M48
;Layer_Color=9474304
;FILE_FORMAT=2:5
INCH,LZ
;TYPE=PLATED
T01F00S00C0.01000
T02F00S00C0.01200
T03F00S00C0.01968
T04F00S00C0.02000
T05F00S00C0.02795
T06F00S00C0.03150
T07F00S00C0.03937
T08F00S00C0.12598
%
T01
X03275Y0181
Y0186
Y01915
Y01965
X03835
Y02015
Y01915
Y01865
Y01815
X03675Y0253
X0324Y02825
X0325445Y0288556
X04Y0294
X0398Y0312
X0415Y03085
X0407Y03215
X03835Y03365
T02
X0492Y03105
X03315
X0323Y031
X0324Y03235
X03275Y03345
X03155Y0334
X0347Y03275
X0394Y03525
X04045Y03475
X0491Y0348
X04915Y0356
X04895Y03305
X0492Y03255
Y03155
T03
X03265Y02325
X03835Y02565
X03925Y0327
T04
X0434Y0312
X04275Y03175
X04265Y03255
Y03405
X0422Y0349
X043Y0354
T05
X014Y0393
X015
Y0453
X014
X016
X017
X018
X0197
X0207
X0217
X0227
X0237
X0261
X0271
X0281
X0291
X0301
Y0393
X0291
X0281
X0271
X0261
X0237
X0227
X0217
X0207
X0197
X018
X017
X016
X0318
X0328
X0338
X0348
X0358
X0382
X0392
X0402
X0412
X0422
X0439
X0449
X0459
Y0453
X0449
X0439
X0422
X0412
X0402
X0392
X0382
X0358
X0348
X0338
X0328
X0318
X0469
X0479
Y0393
X0469
T06
X036Y0283039
Y0312961
T07
X0313Y0252
X0303
X0293
X0283
X0273
X0263
X0253
X0243
X0233
X0223
X0213
X0203
X0193
X0183
X0173
X0163
X0153
X0143
X0133
X0123
Y0322
X0133
X0143
X0153
X0163
X0173
X0183
X0193
X0203
X0213
X0223
X0233
X0243
X0253
X0263
X0273
X0283
X0293
X0303
X0313
T08
X05105Y0183
X0118
Y04595
X05105
M30
