G04*
G04 #@! TF.GenerationSoftware,Altium Limited,Altium Designer,25.8.1 (18)*
G04*
G04 Layer_Color=8388736*
%FSLAX25Y25*%
%MOIN*%
G70*
G04*
G04 #@! TF.SameCoordinates,1EE29D71-5A0B-43A1-B93D-2EDC50B85403*
G04*
G04*
G04 #@! TF.FilePolarity,Negative*
G04*
G01*
G75*
%ADD24R,0.03162X0.03005*%
%ADD25R,0.06312X0.09068*%
%ADD26R,0.03241X0.03162*%
%ADD27R,0.06587X0.05328*%
%ADD28R,0.03753X0.03162*%
%ADD29R,0.03162X0.03753*%
%ADD30R,0.09461X0.03162*%
%ADD31R,0.16391X0.16391*%
%ADD32R,0.20800X0.05800*%
G04:AMPARAMS|DCode=33|XSize=88.71mil|YSize=31.23mil|CornerRadius=6.9mil|HoleSize=0mil|Usage=FLASHONLY|Rotation=180.000|XOffset=0mil|YOffset=0mil|HoleType=Round|Shape=RoundedRectangle|*
%AMROUNDEDRECTD33*
21,1,0.08871,0.01742,0,0,180.0*
21,1,0.07490,0.03123,0,0,180.0*
1,1,0.01381,-0.03745,0.00871*
1,1,0.01381,0.03745,0.00871*
1,1,0.01381,0.03745,-0.00871*
1,1,0.01381,-0.03745,-0.00871*
%
%ADD33ROUNDEDRECTD33*%
%ADD34R,0.06312X0.04737*%
%ADD35R,0.06737X0.06737*%
%ADD36R,0.05595X0.05595*%
%ADD37C,0.05595*%
%ADD38R,0.08674X0.08674*%
%ADD39C,0.08674*%
%ADD40C,0.15800*%
%ADD41C,0.04737*%
%ADD42C,0.02800*%
%ADD43C,0.03200*%
%ADD44C,0.04800*%
D24*
X412500Y342213D02*
D03*
Y338787D02*
D03*
D25*
X143142Y179587D02*
D03*
X160858D02*
D03*
X143142Y215413D02*
D03*
X160858D02*
D03*
X175642Y179587D02*
D03*
X193358D02*
D03*
X175642Y215413D02*
D03*
X193358D02*
D03*
X208142Y179587D02*
D03*
X225858D02*
D03*
X208142Y215413D02*
D03*
X225858D02*
D03*
X240642Y179587D02*
D03*
X258358D02*
D03*
X240642Y215413D02*
D03*
X258358D02*
D03*
D26*
X402280Y342357D02*
D03*
Y338735D02*
D03*
D27*
X391500Y338035D02*
D03*
Y344965D02*
D03*
D28*
X389165Y219000D02*
D03*
X384835D02*
D03*
X326665Y342500D02*
D03*
X322335D02*
D03*
D29*
X336000Y237165D02*
D03*
Y232835D02*
D03*
D30*
X337779Y211500D02*
D03*
X374000Y201500D02*
D03*
X337779Y216500D02*
D03*
Y206500D02*
D03*
Y201500D02*
D03*
X374000Y206500D02*
D03*
Y196500D02*
D03*
Y191500D02*
D03*
X337779D02*
D03*
X374000Y181500D02*
D03*
X337779Y196500D02*
D03*
Y186500D02*
D03*
X374000D02*
D03*
X337779Y181500D02*
D03*
X374000Y211500D02*
D03*
Y216500D02*
D03*
D31*
X465500Y248000D02*
D03*
D32*
Y291248D02*
D03*
Y204752D02*
D03*
D33*
X479827Y305500D02*
D03*
Y310500D02*
D03*
Y315500D02*
D03*
Y320500D02*
D03*
Y325500D02*
D03*
Y330500D02*
D03*
Y335500D02*
D03*
Y340500D02*
D03*
Y345500D02*
D03*
Y350500D02*
D03*
Y355500D02*
D03*
Y360500D02*
D03*
X443173D02*
D03*
Y355500D02*
D03*
Y350500D02*
D03*
Y345500D02*
D03*
Y340500D02*
D03*
Y335500D02*
D03*
Y330500D02*
D03*
Y325500D02*
D03*
Y320500D02*
D03*
Y315500D02*
D03*
Y310500D02*
D03*
Y305500D02*
D03*
D34*
X345831Y338500D02*
D03*
X337169Y334760D02*
D03*
Y342240D02*
D03*
D35*
X203000Y252000D02*
D03*
X163000D02*
D03*
X153000D02*
D03*
X143000D02*
D03*
X223000D02*
D03*
X133000D02*
D03*
X183000D02*
D03*
X233000D02*
D03*
X193000D02*
D03*
X173000D02*
D03*
X213000D02*
D03*
X243000D02*
D03*
X123000D02*
D03*
X283000Y322000D02*
D03*
X313000Y252000D02*
D03*
X303000D02*
D03*
X313000Y322000D02*
D03*
X283000Y252000D02*
D03*
X303000Y322000D02*
D03*
X293000D02*
D03*
Y252000D02*
D03*
X253000D02*
D03*
X273000Y322000D02*
D03*
X263000Y252000D02*
D03*
Y322000D02*
D03*
X253000D02*
D03*
X273000Y252000D02*
D03*
X153000Y322000D02*
D03*
X143000D02*
D03*
X133000D02*
D03*
X123000D02*
D03*
X193000D02*
D03*
X203000D02*
D03*
X233000D02*
D03*
X223000D02*
D03*
X173000D02*
D03*
X163000D02*
D03*
X213000D02*
D03*
X243000D02*
D03*
X183000D02*
D03*
D36*
X140000Y393000D02*
D03*
X197000D02*
D03*
X261000D02*
D03*
X318000D02*
D03*
X382000D02*
D03*
X439000D02*
D03*
D37*
X150000D02*
D03*
X160000D02*
D03*
X170000D02*
D03*
X180000D02*
D03*
Y453000D02*
D03*
X170000D02*
D03*
X160000D02*
D03*
X150000D02*
D03*
X140000D02*
D03*
X207000Y393000D02*
D03*
X217000D02*
D03*
X227000D02*
D03*
X237000D02*
D03*
Y453000D02*
D03*
X227000D02*
D03*
X217000D02*
D03*
X207000D02*
D03*
X197000D02*
D03*
X271000Y393000D02*
D03*
X281000D02*
D03*
X291000D02*
D03*
X301000D02*
D03*
Y453000D02*
D03*
X291000D02*
D03*
X281000D02*
D03*
X271000D02*
D03*
X261000D02*
D03*
X328000Y393000D02*
D03*
X338000D02*
D03*
X348000D02*
D03*
X358000D02*
D03*
Y453000D02*
D03*
X348000D02*
D03*
X338000D02*
D03*
X328000D02*
D03*
X318000D02*
D03*
X392000Y393000D02*
D03*
X402000D02*
D03*
X412000D02*
D03*
X422000D02*
D03*
Y453000D02*
D03*
X412000D02*
D03*
X402000D02*
D03*
X392000D02*
D03*
X382000D02*
D03*
X449000Y393000D02*
D03*
X459000D02*
D03*
X469000D02*
D03*
X479000D02*
D03*
Y453000D02*
D03*
X469000D02*
D03*
X459000D02*
D03*
X449000D02*
D03*
X439000D02*
D03*
D38*
X360000Y283039D02*
D03*
D39*
Y312961D02*
D03*
D40*
X510500Y183000D02*
D03*
Y459500D02*
D03*
X118000D02*
D03*
Y183000D02*
D03*
D41*
X392500Y327000D02*
D03*
X383500Y256500D02*
D03*
X326500Y232500D02*
D03*
D42*
X367500Y253000D02*
D03*
X383500Y336500D02*
D03*
X400000Y294000D02*
D03*
X398000Y312000D02*
D03*
X415000Y308500D02*
D03*
X407000Y321500D02*
D03*
X324000Y282500D02*
D03*
Y290000D02*
D03*
X383500Y201500D02*
D03*
Y196500D02*
D03*
Y191500D02*
D03*
Y186500D02*
D03*
Y181500D02*
D03*
X327500Y196500D02*
D03*
Y186000D02*
D03*
Y191500D02*
D03*
Y181000D02*
D03*
D43*
X491000Y348000D02*
D03*
X404500Y347500D02*
D03*
X394000Y352500D02*
D03*
X347000Y327500D02*
D03*
X331500Y310500D02*
D03*
X327500Y334500D02*
D03*
X315500Y334000D02*
D03*
X324000Y323500D02*
D03*
X323000Y310000D02*
D03*
X492000Y315500D02*
D03*
X489500Y330500D02*
D03*
X491500Y356000D02*
D03*
X492000Y310500D02*
D03*
Y325500D02*
D03*
D44*
X426500D02*
D03*
X430000Y354000D02*
D03*
X422000Y349000D02*
D03*
X427500Y317500D02*
D03*
X426500Y340500D02*
D03*
X434000Y312000D02*
D03*
M02*
