G04*
G04 #@! TF.GenerationSoftware,Altium Limited,Altium Designer,25.8.1 (18)*
G04*
G04 Layer_Physical_Order=1*
G04 Layer_Color=255*
%FSLAX25Y25*%
%MOIN*%
G70*
G04*
G04 #@! TF.SameCoordinates,1EE29D71-5A0B-43A1-B93D-2EDC50B85403*
G04*
G04*
G04 #@! TF.FilePolarity,Positive*
G04*
G01*
G75*
%ADD13C,0.01000*%
%ADD14R,0.02362X0.02205*%
%ADD15R,0.05512X0.08268*%
%ADD16R,0.02441X0.02362*%
%ADD17R,0.05787X0.04528*%
%ADD18R,0.02953X0.02362*%
%ADD19R,0.02362X0.02953*%
%ADD20R,0.08661X0.02362*%
%ADD21R,0.20000X0.05000*%
G04:AMPARAMS|DCode=22|XSize=80.71mil|YSize=23.23mil|CornerRadius=2.9mil|HoleSize=0mil|Usage=FLASHONLY|Rotation=180.000|XOffset=0mil|YOffset=0mil|HoleType=Round|Shape=RoundedRectangle|*
%AMROUNDEDRECTD22*
21,1,0.08071,0.01742,0,0,180.0*
21,1,0.07490,0.02323,0,0,180.0*
1,1,0.00581,-0.03745,0.00871*
1,1,0.00581,0.03745,0.00871*
1,1,0.00581,0.03745,-0.00871*
1,1,0.00581,-0.03745,-0.00871*
%
%ADD22ROUNDEDRECTD22*%
%ADD23R,0.05512X0.03937*%
%ADD45R,0.15590X0.15590*%
%ADD46C,0.01200*%
%ADD47C,0.03000*%
%ADD48C,0.01500*%
%ADD49C,0.01300*%
%ADD50C,0.02200*%
%ADD51C,0.03500*%
%ADD52R,0.05937X0.05937*%
%ADD53R,0.04795X0.04795*%
%ADD54C,0.04795*%
%ADD55R,0.07874X0.07874*%
%ADD56C,0.07874*%
%ADD57C,0.15000*%
%ADD58C,0.03937*%
%ADD59C,0.02000*%
%ADD60C,0.02400*%
%ADD61C,0.04000*%
G36*
X409500Y351000D02*
Y346000D01*
X410497Y344671D01*
X410319Y344315D01*
X410319D01*
Y339478D01*
X404500D01*
Y341857D01*
X402280D01*
X400059D01*
Y339478D01*
X396101D01*
X395394Y340185D01*
X395394Y341299D01*
X395394Y342299D01*
Y344465D01*
X391500D01*
X387606D01*
Y342299D01*
X387606Y341701D01*
X387606Y340701D01*
Y338921D01*
X387558Y338849D01*
X387480Y338459D01*
Y331500D01*
X387497Y331417D01*
X387494Y331332D01*
X387535Y331223D01*
X387558Y331110D01*
X387605Y331039D01*
X387635Y330960D01*
X389632Y327765D01*
X389531Y327391D01*
Y326609D01*
X389734Y325854D01*
X390125Y325177D01*
X390677Y324625D01*
X391354Y324234D01*
X392109Y324031D01*
X392891D01*
X393646Y324234D01*
X394323Y324625D01*
X394875Y325177D01*
X394882Y325188D01*
X399645Y328320D01*
X423664D01*
X424099Y327342D01*
X423704Y326658D01*
X423500Y325895D01*
Y325105D01*
X423704Y324342D01*
X424099Y323658D01*
X424658Y323099D01*
X425342Y322704D01*
X426105Y322500D01*
X426895D01*
X427658Y322704D01*
X428342Y323099D01*
X428408Y323165D01*
X428474Y323169D01*
X428797Y323091D01*
X428988Y322015D01*
X428986Y322014D01*
X427472Y320500D01*
X427105D01*
X426342Y320296D01*
X425658Y319901D01*
X425099Y319342D01*
X424704Y318658D01*
X424500Y317895D01*
Y317105D01*
X424704Y316342D01*
X425099Y315658D01*
X425658Y315099D01*
X426342Y314704D01*
X427105Y314500D01*
X427257D01*
X432158Y309599D01*
X432842Y309204D01*
X432848Y309203D01*
Y299784D01*
X415500D01*
X414817Y299648D01*
X414238Y299262D01*
X383761Y268784D01*
X318500D01*
Y295716D01*
X335978D01*
X336103Y294455D01*
X336565Y292130D01*
X337253Y289861D01*
X338161Y287671D01*
X339278Y285580D01*
X340595Y283609D01*
X342099Y281776D01*
X343776Y280099D01*
X345608Y278595D01*
X347580Y277278D01*
X349671Y276161D01*
X351861Y275253D01*
X354130Y274565D01*
X356455Y274102D01*
X358815Y273870D01*
X361185D01*
X363545Y274102D01*
X365870Y274565D01*
X368139Y275253D01*
X370329Y276161D01*
X372420Y277278D01*
X374392Y278595D01*
X376224Y280099D01*
X377901Y281776D01*
X379405Y283609D01*
X380722Y285580D01*
X381839Y287671D01*
X382747Y289861D01*
X383435Y292130D01*
X383897Y294455D01*
X384130Y296815D01*
Y299185D01*
X383897Y301545D01*
X383435Y303870D01*
X382747Y306139D01*
X381839Y308329D01*
X380722Y310420D01*
X379405Y312391D01*
X377901Y314224D01*
X376224Y315901D01*
X375784Y316262D01*
Y342261D01*
X392239Y358716D01*
X401784D01*
X409500Y351000D01*
D02*
G37*
G36*
X419681Y331819D02*
X440000Y331645D01*
Y329340D01*
X399340D01*
X393500Y325500D01*
X391500D01*
X391000Y327000D01*
Y327500D01*
X388500Y331500D01*
Y338459D01*
X413041D01*
X419681Y331819D01*
D02*
G37*
G36*
X528000Y165500D02*
X100500D01*
X100500Y476500D01*
X141000D01*
Y473379D01*
X138810Y471190D01*
X138446Y470644D01*
X138318Y470000D01*
Y460500D01*
X135000D01*
Y385500D01*
X139621D01*
X141310Y383810D01*
X141310Y383810D01*
X141856Y383446D01*
X142500Y383318D01*
X161500D01*
X162144Y383446D01*
X162690Y383810D01*
X164379Y385500D01*
X178318D01*
Y376000D01*
X178446Y375356D01*
X178810Y374810D01*
X181310Y372310D01*
X181310Y372310D01*
X181856Y371946D01*
X182500Y371818D01*
X234500D01*
X235144Y371946D01*
X235690Y372310D01*
X236343Y372964D01*
X237657D01*
X238310Y372310D01*
X238310Y372310D01*
X238856Y371946D01*
X239500Y371818D01*
X298500D01*
X299144Y371946D01*
X299690Y372310D01*
X300879Y373500D01*
X301121D01*
X302310Y372310D01*
X302310Y372310D01*
X302856Y371946D01*
X303500Y371818D01*
X355500D01*
X356144Y371946D01*
X356690Y372310D01*
X357343Y372964D01*
X358657D01*
X359310Y372310D01*
X359310Y372310D01*
X359856Y371946D01*
X360500Y371818D01*
X388500D01*
Y368437D01*
X388238Y368262D01*
X367738Y347762D01*
X367352Y347183D01*
X367216Y346500D01*
Y321866D01*
X366412Y321270D01*
X365870Y321435D01*
X363545Y321898D01*
X361515Y322097D01*
Y325769D01*
X361515Y325769D01*
X361380Y326452D01*
X360993Y327031D01*
X360993Y327031D01*
X349587Y338437D01*
Y341469D01*
X342075D01*
Y335531D01*
X347445D01*
X357947Y325030D01*
Y322044D01*
X356455Y321898D01*
X354130Y321435D01*
X351861Y320747D01*
X349671Y319839D01*
X347580Y318722D01*
X345608Y317405D01*
X343776Y315901D01*
X342099Y314224D01*
X340595Y312391D01*
X339278Y310420D01*
X338161Y308329D01*
X337253Y306139D01*
X336691Y304284D01*
X318500D01*
Y328500D01*
X304529D01*
Y332867D01*
X312633Y340971D01*
X319858D01*
Y340319D01*
X329142D01*
Y340711D01*
X333413D01*
Y339272D01*
X340925D01*
Y345209D01*
X333413D01*
Y343770D01*
X329142D01*
Y344681D01*
X319858D01*
Y344029D01*
X312000D01*
X311415Y343913D01*
X310919Y343581D01*
X301919Y334581D01*
X301587Y334085D01*
X301471Y333500D01*
Y328500D01*
X112500D01*
Y245500D01*
X193031D01*
X193413Y244576D01*
X182367Y233529D01*
X171500D01*
X170915Y233413D01*
X170419Y233081D01*
X159777Y222440D01*
X159445Y221943D01*
X159329Y221358D01*
Y220547D01*
X157102D01*
Y210279D01*
X164614D01*
Y220547D01*
X163624D01*
X163210Y221547D01*
X172134Y230471D01*
X183000D01*
X183585Y230587D01*
X184081Y230919D01*
X198663Y245500D01*
X203030D01*
X203413Y244576D01*
X192277Y233440D01*
X191945Y232944D01*
X191829Y232358D01*
Y220547D01*
X189602D01*
Y210279D01*
X197114D01*
Y220547D01*
X194888D01*
Y231725D01*
X208663Y245500D01*
X221471D01*
Y232500D01*
X221587Y231915D01*
X221919Y231419D01*
X224329Y229008D01*
Y220547D01*
X222102D01*
Y210279D01*
X229614D01*
Y220547D01*
X227388D01*
Y229642D01*
X227271Y230227D01*
X226940Y230723D01*
X224529Y233134D01*
Y245500D01*
X237337D01*
X242471Y240367D01*
Y232500D01*
X242587Y231915D01*
X242919Y231419D01*
X254573Y219764D01*
Y217669D01*
X254602Y217522D01*
Y210279D01*
X262114D01*
Y220547D01*
X257602D01*
X257515Y220983D01*
X257184Y221479D01*
X245529Y233134D01*
Y241000D01*
X245413Y241585D01*
X245081Y242081D01*
X242587Y244576D01*
X242969Y245500D01*
X318500D01*
Y248170D01*
X319424Y248553D01*
X331238Y236738D01*
X331817Y236351D01*
X332500Y236216D01*
Y235049D01*
X328022D01*
X327646Y235266D01*
X326891Y235469D01*
X326109D01*
X325354Y235266D01*
X324677Y234875D01*
X324125Y234323D01*
X323734Y233646D01*
X323532Y232891D01*
Y232109D01*
X323734Y231354D01*
X323951Y230978D01*
Y214500D01*
X324145Y213525D01*
X324698Y212698D01*
X327698Y209698D01*
X328524Y209145D01*
X329500Y208951D01*
X332000D01*
Y177000D01*
X376000D01*
Y179319D01*
X379331D01*
Y183681D01*
X379331D01*
Y184319D01*
X379331D01*
Y188681D01*
X379331D01*
Y189319D01*
X379331D01*
Y193681D01*
X379331D01*
Y194319D01*
X379331D01*
Y198681D01*
X379331D01*
Y199319D01*
X379331D01*
Y203681D01*
X380207Y203980D01*
X381845D01*
X381850Y203974D01*
X382152Y202980D01*
X381804Y202633D01*
X381542Y202000D01*
X385458D01*
X385195Y202633D01*
X384848Y202980D01*
X385150Y203974D01*
X385155Y203980D01*
X427992D01*
X441116Y201493D01*
X441530Y201321D01*
X442248Y201226D01*
X465500D01*
X465695Y201252D01*
X476500D01*
Y208252D01*
X460500D01*
Y230000D01*
Y231500D01*
Y239205D01*
X465000D01*
Y248000D01*
Y256795D01*
X460500D01*
Y287748D01*
X476500D01*
Y294748D01*
X455053D01*
X454426Y295718D01*
X454646Y296216D01*
X469500D01*
X470183Y296352D01*
X470762Y296738D01*
X476690Y302667D01*
X481844D01*
Y303313D01*
X483572D01*
X484075Y303414D01*
X484502Y303699D01*
X484787Y304125D01*
X484888Y304629D01*
Y306371D01*
X484787Y306874D01*
X484502Y307301D01*
X484288Y307444D01*
X484208Y307809D01*
Y308168D01*
X484740Y308971D01*
X490418D01*
X490754Y308635D01*
X491562Y308300D01*
X492438D01*
X493246Y308635D01*
X493865Y309254D01*
X494200Y310062D01*
Y310938D01*
X493865Y311746D01*
X493246Y312365D01*
X493020Y312459D01*
Y313541D01*
X493246Y313635D01*
X493865Y314254D01*
X494200Y315062D01*
Y315938D01*
X493865Y316746D01*
X493246Y317365D01*
X492438Y317700D01*
X491562D01*
X490754Y317365D01*
X490418Y317029D01*
X484684D01*
X484502Y317301D01*
X484288Y317444D01*
X484208Y317809D01*
Y318191D01*
X484288Y318556D01*
X484502Y318699D01*
X484787Y319126D01*
X484888Y319629D01*
Y321371D01*
X484787Y321874D01*
X484502Y322301D01*
X484288Y322444D01*
X484208Y322809D01*
Y323168D01*
X484740Y323971D01*
X490418D01*
X490754Y323635D01*
X491562Y323300D01*
X492438D01*
X493246Y323635D01*
X493865Y324254D01*
X494200Y325062D01*
Y325938D01*
X493865Y326746D01*
X493246Y327365D01*
X492438Y327700D01*
X491956D01*
X491145Y328396D01*
X491042Y328567D01*
X491044Y328932D01*
X491365Y329254D01*
X491700Y330062D01*
Y330938D01*
X491365Y331746D01*
X490746Y332365D01*
X490300Y332550D01*
Y333818D01*
X494000D01*
X494644Y333946D01*
X495190Y334310D01*
X502690Y341810D01*
X503054Y342356D01*
X503182Y343000D01*
Y450500D01*
X503054Y451144D01*
X502690Y451690D01*
X487190Y467190D01*
X486644Y467554D01*
X486000Y467682D01*
X455500D01*
X455500Y467682D01*
X454856Y467554D01*
X454310Y467190D01*
X447810Y460690D01*
X447684Y460500D01*
X440682D01*
Y470000D01*
X440554Y470644D01*
X440190Y471190D01*
X440190Y471190D01*
X437750Y473629D01*
Y476500D01*
X528000D01*
Y165500D01*
D02*
G37*
G36*
X434500Y290500D02*
Y287423D01*
X433039Y285961D01*
X432598Y285387D01*
X432321Y284718D01*
X432226Y284000D01*
Y248000D01*
Y211597D01*
X428084Y209020D01*
X424500Y209020D01*
X381236D01*
X380934Y210020D01*
X381262Y210238D01*
X385762Y214738D01*
X386149Y215317D01*
X386284Y216000D01*
Y216819D01*
X387930D01*
X388190Y216645D01*
X389165Y216451D01*
X390141Y216645D01*
X390401Y216819D01*
X391642D01*
Y217872D01*
X394802Y221032D01*
X395355Y221859D01*
X395549Y222835D01*
Y247000D01*
X395355Y247975D01*
X394802Y248802D01*
X386379Y257226D01*
X386266Y257646D01*
X385875Y258323D01*
X385323Y258875D01*
X384646Y259266D01*
X383891Y259469D01*
X383109D01*
X382354Y259266D01*
X381677Y258875D01*
X381125Y258323D01*
X380734Y257646D01*
X380532Y256891D01*
Y256109D01*
X380734Y255354D01*
X381125Y254677D01*
X381677Y254125D01*
X382354Y253734D01*
X382774Y253621D01*
X390451Y245944D01*
Y223890D01*
X387742Y221181D01*
X386284D01*
Y228000D01*
X386149Y228683D01*
X385762Y229262D01*
X385762Y229262D01*
X370762Y244262D01*
X370183Y244649D01*
X369500Y244784D01*
X334739D01*
X318762Y260762D01*
X318500Y260936D01*
Y265216D01*
X384500D01*
X385183Y265352D01*
X385762Y265738D01*
X416239Y296216D01*
X428784D01*
X434500Y290500D01*
D02*
G37*
G36*
X435939Y210859D02*
X435967Y209467D01*
X437433Y208000D01*
X442065Y203368D01*
X441707Y202418D01*
X428087Y205000D01*
X377000D01*
Y208000D01*
X424500D01*
X428375Y208000D01*
X434764Y211976D01*
X435939Y210859D01*
D02*
G37*
%LPC*%
G36*
X394500Y354674D02*
Y353000D01*
X396174D01*
X395865Y353746D01*
X395246Y354365D01*
X394500Y354674D01*
D02*
G37*
G36*
X393500D02*
X392754Y354365D01*
X392135Y353746D01*
X391826Y353000D01*
X393500D01*
Y354674D01*
D02*
G37*
G36*
X396174Y352000D02*
X394500D01*
Y350326D01*
X395246Y350635D01*
X395865Y351254D01*
X396174Y352000D01*
D02*
G37*
G36*
X393500D02*
X391826D01*
X392135Y351254D01*
X392754Y350635D01*
X393500Y350326D01*
Y352000D01*
D02*
G37*
G36*
X405000Y349674D02*
Y348000D01*
X406674D01*
X406365Y348746D01*
X405746Y349365D01*
X405000Y349674D01*
D02*
G37*
G36*
X404000D02*
X403254Y349365D01*
X402635Y348746D01*
X402326Y348000D01*
X404000D01*
Y349674D01*
D02*
G37*
G36*
X395394Y348228D02*
X392000D01*
Y345465D01*
X395394D01*
Y348228D01*
D02*
G37*
G36*
X391000D02*
X387606D01*
Y345465D01*
X391000D01*
Y348228D01*
D02*
G37*
G36*
X406674Y347000D02*
X402326D01*
X402635Y346254D01*
X403254Y345635D01*
X403487Y345538D01*
X403288Y344538D01*
X402779D01*
Y342857D01*
X404500D01*
X404500Y344431D01*
X404752Y344932D01*
X405007Y345329D01*
X405746Y345635D01*
X406365Y346254D01*
X406674Y347000D01*
D02*
G37*
G36*
X401780Y344538D02*
X400059D01*
Y342857D01*
X401780D01*
Y344538D01*
D02*
G37*
G36*
X384000Y338458D02*
Y337000D01*
X385458D01*
X385195Y337633D01*
X384633Y338195D01*
X384000Y338458D01*
D02*
G37*
G36*
X383000D02*
X382367Y338195D01*
X381804Y337633D01*
X381542Y337000D01*
X383000D01*
Y338458D01*
D02*
G37*
G36*
X385458Y336000D02*
X384000D01*
Y334542D01*
X384633Y334805D01*
X385195Y335367D01*
X385458Y336000D01*
D02*
G37*
G36*
X383000D02*
X381542D01*
X381804Y335367D01*
X382367Y334805D01*
X383000Y334542D01*
Y336000D01*
D02*
G37*
G36*
X407500Y323458D02*
Y322000D01*
X408958D01*
X408696Y322633D01*
X408133Y323196D01*
X407500Y323458D01*
D02*
G37*
G36*
X406500D02*
X405867Y323196D01*
X405304Y322633D01*
X405042Y322000D01*
X406500D01*
Y323458D01*
D02*
G37*
G36*
X408958Y321000D02*
X407500D01*
Y319542D01*
X408133Y319805D01*
X408696Y320367D01*
X408958Y321000D01*
D02*
G37*
G36*
X406500D02*
X405042D01*
X405304Y320367D01*
X405867Y319805D01*
X406500Y319542D01*
Y321000D01*
D02*
G37*
G36*
X398500Y313958D02*
Y312500D01*
X399958D01*
X399695Y313133D01*
X399133Y313696D01*
X398500Y313958D01*
D02*
G37*
G36*
X397500D02*
X396867Y313696D01*
X396304Y313133D01*
X396042Y312500D01*
X397500D01*
Y313958D01*
D02*
G37*
G36*
X399958Y311500D02*
X398500D01*
Y310042D01*
X399133Y310304D01*
X399695Y310867D01*
X399958Y311500D01*
D02*
G37*
G36*
X397500D02*
X396042D01*
X396304Y310867D01*
X396867Y310304D01*
X397500Y310042D01*
Y311500D01*
D02*
G37*
G36*
X415500Y310458D02*
Y309000D01*
X416958D01*
X416695Y309633D01*
X416133Y310195D01*
X415500Y310458D01*
D02*
G37*
G36*
X414500D02*
X413867Y310195D01*
X413305Y309633D01*
X413042Y309000D01*
X414500D01*
Y310458D01*
D02*
G37*
G36*
X416958Y308000D02*
X415500D01*
Y306542D01*
X416133Y306804D01*
X416695Y307367D01*
X416958Y308000D01*
D02*
G37*
G36*
X414500D02*
X413042D01*
X413305Y307367D01*
X413867Y306804D01*
X414500Y306542D01*
Y308000D01*
D02*
G37*
G36*
X400500Y295958D02*
Y294500D01*
X401958D01*
X401695Y295133D01*
X401133Y295695D01*
X400500Y295958D01*
D02*
G37*
G36*
X399500D02*
X398867Y295695D01*
X398305Y295133D01*
X398042Y294500D01*
X399500D01*
Y295958D01*
D02*
G37*
G36*
X401958Y293500D02*
X400500D01*
Y292042D01*
X401133Y292304D01*
X401695Y292867D01*
X401958Y293500D01*
D02*
G37*
G36*
X399500D02*
X398042D01*
X398305Y292867D01*
X398867Y292304D01*
X399500Y292042D01*
Y293500D01*
D02*
G37*
G36*
X324500Y291958D02*
Y290500D01*
X325958D01*
X325695Y291133D01*
X325133Y291695D01*
X324500Y291958D01*
D02*
G37*
G36*
X323500D02*
X322867Y291695D01*
X322305Y291133D01*
X322042Y290500D01*
X323500D01*
Y291958D01*
D02*
G37*
G36*
X325958Y289500D02*
X324500D01*
Y288042D01*
X325133Y288304D01*
X325695Y288867D01*
X325958Y289500D01*
D02*
G37*
G36*
X323500D02*
X322042D01*
X322305Y288867D01*
X322867Y288304D01*
X323500Y288042D01*
Y289500D01*
D02*
G37*
G36*
X324500Y284458D02*
Y283000D01*
X325958D01*
X325695Y283633D01*
X325133Y284195D01*
X324500Y284458D01*
D02*
G37*
G36*
X323500D02*
X322867Y284195D01*
X322305Y283633D01*
X322042Y283000D01*
X323500D01*
Y284458D01*
D02*
G37*
G36*
X325958Y282000D02*
X324500D01*
Y280542D01*
X325133Y280804D01*
X325695Y281367D01*
X325958Y282000D01*
D02*
G37*
G36*
X323500D02*
X322042D01*
X322305Y281367D01*
X322867Y280804D01*
X323500Y280542D01*
Y282000D01*
D02*
G37*
G36*
X511337Y468000D02*
X509663D01*
X508021Y467673D01*
X506474Y467033D01*
X505082Y466102D01*
X503898Y464918D01*
X502967Y463526D01*
X502327Y461979D01*
X502000Y460337D01*
Y458663D01*
X502327Y457021D01*
X502967Y455474D01*
X503898Y454082D01*
X505082Y452898D01*
X506474Y451967D01*
X508021Y451327D01*
X509663Y451000D01*
X511337D01*
X512979Y451327D01*
X514526Y451967D01*
X515918Y452898D01*
X517102Y454082D01*
X518033Y455474D01*
X518673Y457021D01*
X519000Y458663D01*
Y460337D01*
X518673Y461979D01*
X518033Y463526D01*
X517102Y464918D01*
X515918Y466102D01*
X514526Y467033D01*
X512979Y467673D01*
X511337Y468000D01*
D02*
G37*
G36*
X118837D02*
X117163D01*
X115521Y467673D01*
X113974Y467033D01*
X112582Y466102D01*
X111398Y464918D01*
X110467Y463526D01*
X109827Y461979D01*
X109500Y460337D01*
Y458663D01*
X109827Y457021D01*
X110467Y455474D01*
X111398Y454082D01*
X112582Y452898D01*
X113974Y451967D01*
X115521Y451327D01*
X117163Y451000D01*
X118837D01*
X120479Y451327D01*
X122026Y451967D01*
X123418Y452898D01*
X124602Y454082D01*
X125533Y455474D01*
X126173Y457021D01*
X126500Y458663D01*
Y460337D01*
X126173Y461979D01*
X125533Y463526D01*
X124602Y464918D01*
X123418Y466102D01*
X122026Y467033D01*
X120479Y467673D01*
X118837Y468000D01*
D02*
G37*
G36*
X340925Y337728D02*
X337669D01*
Y335260D01*
X340925D01*
Y337728D01*
D02*
G37*
G36*
X336669D02*
X333413D01*
Y335260D01*
X336669D01*
Y337728D01*
D02*
G37*
G36*
X328000Y336674D02*
Y335000D01*
X329674D01*
X329365Y335746D01*
X328746Y336365D01*
X328000Y336674D01*
D02*
G37*
G36*
X327000D02*
X326254Y336365D01*
X325635Y335746D01*
X325326Y335000D01*
X327000D01*
Y336674D01*
D02*
G37*
G36*
X316000Y336174D02*
Y334500D01*
X317674D01*
X317365Y335246D01*
X316746Y335865D01*
X316000Y336174D01*
D02*
G37*
G36*
X315000D02*
X314254Y335865D01*
X313635Y335246D01*
X313326Y334500D01*
X315000D01*
Y336174D01*
D02*
G37*
G36*
X329674Y334000D02*
X328000D01*
Y332326D01*
X328746Y332635D01*
X329365Y333254D01*
X329674Y334000D01*
D02*
G37*
G36*
X327000D02*
X325326D01*
X325635Y333254D01*
X326254Y332635D01*
X327000Y332326D01*
Y334000D01*
D02*
G37*
G36*
X317674Y333500D02*
X316000D01*
Y331826D01*
X316746Y332135D01*
X317365Y332754D01*
X317674Y333500D01*
D02*
G37*
G36*
X315000D02*
X313326D01*
X313635Y332754D01*
X314254Y332135D01*
X315000Y331826D01*
Y333500D01*
D02*
G37*
G36*
X340925Y334260D02*
X337669D01*
Y331791D01*
X340925D01*
Y334260D01*
D02*
G37*
G36*
X336669D02*
X333413D01*
Y331791D01*
X336669D01*
Y334260D01*
D02*
G37*
G36*
X347500Y329674D02*
Y328000D01*
X349174D01*
X348865Y328746D01*
X348246Y329365D01*
X347500Y329674D01*
D02*
G37*
G36*
X346500D02*
X345754Y329365D01*
X345135Y328746D01*
X344826Y328000D01*
X346500D01*
Y329674D01*
D02*
G37*
G36*
X349174Y327000D02*
X347500D01*
Y325326D01*
X348246Y325635D01*
X348865Y326254D01*
X349174Y327000D01*
D02*
G37*
G36*
X346500D02*
X344826D01*
X345135Y326254D01*
X345754Y325635D01*
X346500Y325326D01*
Y327000D01*
D02*
G37*
G36*
X324500Y325674D02*
Y324000D01*
X326174D01*
X325865Y324746D01*
X325246Y325365D01*
X324500Y325674D01*
D02*
G37*
G36*
X323500D02*
X322754Y325365D01*
X322135Y324746D01*
X321826Y324000D01*
X323500D01*
Y325674D01*
D02*
G37*
G36*
X326174Y323000D02*
X324500D01*
Y321326D01*
X325246Y321635D01*
X325865Y322254D01*
X326174Y323000D01*
D02*
G37*
G36*
X323500D02*
X321826D01*
X322135Y322254D01*
X322754Y321635D01*
X323500Y321326D01*
Y323000D01*
D02*
G37*
G36*
X332000Y312674D02*
Y311000D01*
X333674D01*
X333365Y311746D01*
X332746Y312365D01*
X332000Y312674D01*
D02*
G37*
G36*
X331000D02*
X330254Y312365D01*
X329635Y311746D01*
X329326Y311000D01*
X331000D01*
Y312674D01*
D02*
G37*
G36*
X323500Y312174D02*
Y310500D01*
X325174D01*
X324865Y311246D01*
X324246Y311865D01*
X323500Y312174D01*
D02*
G37*
G36*
X322500D02*
X321754Y311865D01*
X321135Y311246D01*
X320826Y310500D01*
X322500D01*
Y312174D01*
D02*
G37*
G36*
X333674Y310000D02*
X332000D01*
Y308326D01*
X332746Y308635D01*
X333365Y309254D01*
X333674Y310000D01*
D02*
G37*
G36*
X331000D02*
X329326D01*
X329635Y309254D01*
X330254Y308635D01*
X331000Y308326D01*
Y310000D01*
D02*
G37*
G36*
X325174Y309500D02*
X323500D01*
Y307826D01*
X324246Y308135D01*
X324865Y308754D01*
X325174Y309500D01*
D02*
G37*
G36*
X322500D02*
X320826D01*
X321135Y308754D01*
X321754Y308135D01*
X322500Y307826D01*
Y309500D01*
D02*
G37*
G36*
X474295Y256795D02*
X466000D01*
Y248500D01*
X474295D01*
Y256795D01*
D02*
G37*
G36*
Y247500D02*
X466000D01*
Y239205D01*
X474295D01*
Y247500D01*
D02*
G37*
G36*
X146898Y220547D02*
X143642D01*
Y215913D01*
X146898D01*
Y220547D01*
D02*
G37*
G36*
X142642D02*
X139386D01*
Y215913D01*
X142642D01*
Y220547D01*
D02*
G37*
G36*
X244398D02*
X241142D01*
Y215913D01*
X244398D01*
Y220547D01*
D02*
G37*
G36*
X211898D02*
X208642D01*
Y215913D01*
X211898D01*
Y220547D01*
D02*
G37*
G36*
X179398D02*
X176142D01*
Y215913D01*
X179398D01*
Y220547D01*
D02*
G37*
G36*
X240142D02*
X236886D01*
Y215913D01*
X240142D01*
Y220547D01*
D02*
G37*
G36*
X207642D02*
X204386D01*
Y215913D01*
X207642D01*
Y220547D01*
D02*
G37*
G36*
X175142D02*
X171886D01*
Y215913D01*
X175142D01*
Y220547D01*
D02*
G37*
G36*
X244398Y214913D02*
X241142D01*
Y210279D01*
X244398D01*
Y214913D01*
D02*
G37*
G36*
X240142D02*
X236886D01*
Y210279D01*
X240142D01*
Y214913D01*
D02*
G37*
G36*
X211898D02*
X208642D01*
Y210279D01*
X211898D01*
Y214913D01*
D02*
G37*
G36*
X207642D02*
X204386D01*
Y210279D01*
X207642D01*
Y214913D01*
D02*
G37*
G36*
X179398D02*
X176142D01*
Y210279D01*
X179398D01*
Y214913D01*
D02*
G37*
G36*
X175142D02*
X171886D01*
Y210279D01*
X175142D01*
Y214913D01*
D02*
G37*
G36*
X146898Y214913D02*
X143642D01*
Y210279D01*
X146898D01*
Y214913D01*
D02*
G37*
G36*
X142642D02*
X139386D01*
Y210279D01*
X142642D01*
Y214913D01*
D02*
G37*
G36*
X385458Y201000D02*
X384000D01*
Y199542D01*
X384633Y199804D01*
X385195Y200367D01*
X385458Y201000D01*
D02*
G37*
G36*
X383000D02*
X381542D01*
X381804Y200367D01*
X382367Y199804D01*
X383000Y199542D01*
Y201000D01*
D02*
G37*
G36*
X384000Y198458D02*
Y197000D01*
X385458D01*
X385195Y197633D01*
X384633Y198196D01*
X384000Y198458D01*
D02*
G37*
G36*
X383000D02*
X382367Y198196D01*
X381804Y197633D01*
X381542Y197000D01*
X383000D01*
Y198458D01*
D02*
G37*
G36*
X328000D02*
Y197000D01*
X329458D01*
X329195Y197633D01*
X328633Y198196D01*
X328000Y198458D01*
D02*
G37*
G36*
X327000D02*
X326367Y198196D01*
X325804Y197633D01*
X325542Y197000D01*
X327000D01*
Y198458D01*
D02*
G37*
G36*
X385458Y196000D02*
X384000D01*
Y194542D01*
X384633Y194805D01*
X385195Y195367D01*
X385458Y196000D01*
D02*
G37*
G36*
X383000D02*
X381542D01*
X381804Y195367D01*
X382367Y194805D01*
X383000Y194542D01*
Y196000D01*
D02*
G37*
G36*
X329458D02*
X328000D01*
Y194542D01*
X328633Y194805D01*
X329195Y195367D01*
X329458Y196000D01*
D02*
G37*
G36*
X327000D02*
X325542D01*
X325804Y195367D01*
X326367Y194805D01*
X327000Y194542D01*
Y196000D01*
D02*
G37*
G36*
X384000Y193458D02*
Y192000D01*
X385458D01*
X385195Y192633D01*
X384633Y193195D01*
X384000Y193458D01*
D02*
G37*
G36*
X383000D02*
X382367Y193195D01*
X381804Y192633D01*
X381542Y192000D01*
X383000D01*
Y193458D01*
D02*
G37*
G36*
X328000D02*
Y192000D01*
X329458D01*
X329195Y192633D01*
X328633Y193195D01*
X328000Y193458D01*
D02*
G37*
G36*
X327000D02*
X326367Y193195D01*
X325804Y192633D01*
X325542Y192000D01*
X327000D01*
Y193458D01*
D02*
G37*
G36*
X385458Y191000D02*
X384000D01*
Y189542D01*
X384633Y189804D01*
X385195Y190367D01*
X385458Y191000D01*
D02*
G37*
G36*
X383000D02*
X381542D01*
X381804Y190367D01*
X382367Y189804D01*
X383000Y189542D01*
Y191000D01*
D02*
G37*
G36*
X329458D02*
X328000D01*
Y189542D01*
X328633Y189804D01*
X329195Y190367D01*
X329458Y191000D01*
D02*
G37*
G36*
X327000D02*
X325542D01*
X325804Y190367D01*
X326367Y189804D01*
X327000Y189542D01*
Y191000D01*
D02*
G37*
G36*
X384000Y188458D02*
Y187000D01*
X385458D01*
X385195Y187633D01*
X384633Y188196D01*
X384000Y188458D01*
D02*
G37*
G36*
X383000D02*
X382367Y188196D01*
X381804Y187633D01*
X381542Y187000D01*
X383000D01*
Y188458D01*
D02*
G37*
G36*
X328000Y187958D02*
Y186500D01*
X329458D01*
X329195Y187133D01*
X328633Y187696D01*
X328000Y187958D01*
D02*
G37*
G36*
X327000D02*
X326367Y187696D01*
X325804Y187133D01*
X325542Y186500D01*
X327000D01*
Y187958D01*
D02*
G37*
G36*
X385458Y186000D02*
X384000D01*
Y184542D01*
X384633Y184804D01*
X385195Y185367D01*
X385458Y186000D01*
D02*
G37*
G36*
X383000D02*
X381542D01*
X381804Y185367D01*
X382367Y184804D01*
X383000Y184542D01*
Y186000D01*
D02*
G37*
G36*
X329458Y185500D02*
X328000D01*
Y184042D01*
X328633Y184304D01*
X329195Y184867D01*
X329458Y185500D01*
D02*
G37*
G36*
X327000D02*
X325542D01*
X325804Y184867D01*
X326367Y184304D01*
X327000Y184042D01*
Y185500D01*
D02*
G37*
G36*
X384000Y183458D02*
Y182000D01*
X385458D01*
X385195Y182633D01*
X384633Y183195D01*
X384000Y183458D01*
D02*
G37*
G36*
X383000D02*
X382367Y183195D01*
X381804Y182633D01*
X381542Y182000D01*
X383000D01*
Y183458D01*
D02*
G37*
G36*
X328000Y182958D02*
Y181500D01*
X329458D01*
X329195Y182133D01*
X328633Y182695D01*
X328000Y182958D01*
D02*
G37*
G36*
X327000D02*
X326367Y182695D01*
X325804Y182133D01*
X325542Y181500D01*
X327000D01*
Y182958D01*
D02*
G37*
G36*
X385458Y181000D02*
X384000D01*
Y179542D01*
X384633Y179805D01*
X385195Y180367D01*
X385458Y181000D01*
D02*
G37*
G36*
X383000D02*
X381542D01*
X381804Y180367D01*
X382367Y179805D01*
X383000Y179542D01*
Y181000D01*
D02*
G37*
G36*
X329458Y180500D02*
X328000D01*
Y179042D01*
X328633Y179305D01*
X329195Y179867D01*
X329458Y180500D01*
D02*
G37*
G36*
X327000D02*
X325542D01*
X325804Y179867D01*
X326367Y179305D01*
X327000Y179042D01*
Y180500D01*
D02*
G37*
G36*
X511337Y191500D02*
X509663D01*
X508021Y191173D01*
X506474Y190533D01*
X505082Y189602D01*
X503898Y188418D01*
X502967Y187026D01*
X502327Y185479D01*
X502000Y183837D01*
Y182163D01*
X502327Y180521D01*
X502967Y178974D01*
X503898Y177582D01*
X505082Y176398D01*
X506474Y175467D01*
X508021Y174827D01*
X509663Y174500D01*
X511337D01*
X512979Y174827D01*
X514526Y175467D01*
X515918Y176398D01*
X517102Y177582D01*
X518033Y178974D01*
X518673Y180521D01*
X519000Y182163D01*
Y183837D01*
X518673Y185479D01*
X518033Y187026D01*
X517102Y188418D01*
X515918Y189602D01*
X514526Y190533D01*
X512979Y191173D01*
X511337Y191500D01*
D02*
G37*
G36*
X118837D02*
X117163D01*
X115521Y191173D01*
X113974Y190533D01*
X112582Y189602D01*
X111398Y188418D01*
X110467Y187026D01*
X109827Y185479D01*
X109500Y183837D01*
Y182163D01*
X109827Y180521D01*
X110467Y178974D01*
X111398Y177582D01*
X112582Y176398D01*
X113974Y175467D01*
X115521Y174827D01*
X117163Y174500D01*
X118837D01*
X120479Y174827D01*
X122026Y175467D01*
X123418Y176398D01*
X124602Y177582D01*
X125533Y178974D01*
X126173Y180521D01*
X126500Y182163D01*
Y183837D01*
X126173Y185479D01*
X125533Y187026D01*
X124602Y188418D01*
X123418Y189602D01*
X122026Y190533D01*
X120479Y191173D01*
X118837Y191500D01*
D02*
G37*
G36*
X262114Y184721D02*
X254602D01*
Y174453D01*
X262114D01*
Y184721D01*
D02*
G37*
G36*
X244398D02*
X236886D01*
Y174453D01*
X244398D01*
Y184721D01*
D02*
G37*
G36*
X229614D02*
X222102D01*
Y174453D01*
X229614D01*
Y184721D01*
D02*
G37*
G36*
X211898D02*
X204386D01*
Y174453D01*
X211898D01*
Y184721D01*
D02*
G37*
G36*
X197114D02*
X189602D01*
Y174453D01*
X197114D01*
Y184721D01*
D02*
G37*
G36*
X179398D02*
X171886D01*
Y174453D01*
X179398D01*
Y184721D01*
D02*
G37*
G36*
X164614D02*
X157102D01*
Y174453D01*
X164614D01*
Y184721D01*
D02*
G37*
G36*
X146898D02*
X139386D01*
Y174453D01*
X146898D01*
Y184721D01*
D02*
G37*
G36*
X368000Y254958D02*
Y253500D01*
X369458D01*
X369196Y254133D01*
X368633Y254696D01*
X368000Y254958D01*
D02*
G37*
G36*
X367000D02*
X366367Y254696D01*
X365805Y254133D01*
X365542Y253500D01*
X367000D01*
Y254958D01*
D02*
G37*
G36*
X369458Y252500D02*
X368000D01*
Y251042D01*
X368633Y251305D01*
X369196Y251867D01*
X369458Y252500D01*
D02*
G37*
G36*
X367000D02*
X365542D01*
X365805Y251867D01*
X366367Y251305D01*
X367000Y251042D01*
Y252500D01*
D02*
G37*
%LPD*%
D13*
X391000Y338035D02*
X391754Y337282D01*
X402240Y338735D02*
X402280D01*
X491000Y347621D02*
Y348000D01*
X489682Y346207D02*
Y346303D01*
X491000Y347621D01*
X488975Y345500D02*
X489682Y346207D01*
X480327Y345500D02*
X488975D01*
X171500Y232000D02*
X183000D01*
X160858Y215413D02*
Y221358D01*
X171500Y232000D01*
X183000D02*
X203000Y252000D01*
X223000Y232500D02*
X225858Y229642D01*
Y215413D02*
Y229642D01*
X223000Y232500D02*
Y252000D01*
X193358Y215413D02*
Y232358D01*
X213000Y252000D01*
X326669Y214331D02*
X326750Y214250D01*
X233000Y252000D02*
X244000Y241000D01*
Y232500D02*
Y241000D01*
X256102Y217669D02*
Y220398D01*
Y217669D02*
X258358Y215413D01*
X244000Y232500D02*
X256102Y220398D01*
X303000Y333500D02*
X312000Y342500D01*
X322335D01*
X303000Y322000D02*
Y333500D01*
X479827Y315500D02*
X492000D01*
X479827Y330500D02*
X489500D01*
X479827Y310500D02*
X492000D01*
X479827Y325500D02*
X492000D01*
X326925Y342240D02*
X337169D01*
X326665Y342500D02*
X326925Y342240D01*
D14*
X412500Y342213D02*
D03*
Y338787D02*
D03*
D15*
X143142Y179587D02*
D03*
X160858D02*
D03*
X143142Y215413D02*
D03*
X160858D02*
D03*
X175642Y179587D02*
D03*
X193358D02*
D03*
X175642Y215413D02*
D03*
X193358D02*
D03*
X208142Y179587D02*
D03*
X225858D02*
D03*
X208142Y215413D02*
D03*
X225858D02*
D03*
X240642Y179587D02*
D03*
X258358D02*
D03*
X240642Y215413D02*
D03*
X258358D02*
D03*
D16*
X402280Y342357D02*
D03*
Y338735D02*
D03*
D17*
X391500Y338035D02*
D03*
Y344965D02*
D03*
D18*
X389165Y219000D02*
D03*
X384835D02*
D03*
X326665Y342500D02*
D03*
X322335D02*
D03*
D19*
X336000Y237165D02*
D03*
Y232835D02*
D03*
D20*
X337779Y211500D02*
D03*
X374000Y201500D02*
D03*
X337779Y216500D02*
D03*
Y206500D02*
D03*
Y201500D02*
D03*
X374000Y206500D02*
D03*
Y196500D02*
D03*
Y191500D02*
D03*
X337779D02*
D03*
X374000Y181500D02*
D03*
X337779Y196500D02*
D03*
Y186500D02*
D03*
X374000D02*
D03*
X337779Y181500D02*
D03*
X374000Y211500D02*
D03*
Y216500D02*
D03*
D21*
X465500Y291248D02*
D03*
Y204752D02*
D03*
D22*
X479827Y305500D02*
D03*
Y310500D02*
D03*
Y315500D02*
D03*
Y320500D02*
D03*
Y325500D02*
D03*
Y330500D02*
D03*
Y335500D02*
D03*
Y340500D02*
D03*
Y345500D02*
D03*
Y350500D02*
D03*
Y355500D02*
D03*
Y360500D02*
D03*
X443173D02*
D03*
Y355500D02*
D03*
Y350500D02*
D03*
Y345500D02*
D03*
Y340500D02*
D03*
Y335500D02*
D03*
Y330500D02*
D03*
Y325500D02*
D03*
Y320500D02*
D03*
Y315500D02*
D03*
Y310500D02*
D03*
Y305500D02*
D03*
D23*
X345831Y338500D02*
D03*
X337169Y334760D02*
D03*
Y342240D02*
D03*
D45*
X465500Y248000D02*
D03*
D46*
X412500Y342213D02*
X415787D01*
X422500Y335500D01*
X443173D01*
D47*
X392500Y327000D02*
X392754D01*
X479827Y320500D02*
X486500D01*
X293000Y322000D02*
Y333000D01*
X243000Y322000D02*
Y331000D01*
X142500D02*
X143000Y330500D01*
Y322000D02*
Y330500D01*
X293000Y241000D02*
Y252000D01*
X243000D02*
X250500Y244500D01*
Y239000D02*
Y244500D01*
X293000Y241000D02*
X293500Y240500D01*
X182500Y241500D02*
X193000Y252000D01*
X182500Y241000D02*
Y241500D01*
X143000Y240000D02*
Y252000D01*
Y240000D02*
X143500Y239500D01*
X393000Y222835D02*
Y247000D01*
X389165Y219000D02*
X393000Y222835D01*
X383500Y256500D02*
X393000Y247000D01*
X335665Y232500D02*
X336000Y232835D01*
X329500Y211500D02*
X337779D01*
X326500Y232500D02*
X335665D01*
X326500Y214500D02*
X326750Y214250D01*
X326750Y214250D02*
X329500Y211500D01*
X326500Y214500D02*
Y232500D01*
D48*
X374000Y201500D02*
X380000D01*
X374000Y196500D02*
X380000D01*
X331000D02*
X337779D01*
X374000Y191500D02*
X380000D01*
X374000Y181500D02*
X380500D01*
X374000Y186500D02*
X380000D01*
X331000Y191500D02*
X337779D01*
X331500Y181500D02*
X337779D01*
X330500Y186500D02*
X337779D01*
X331000Y181000D02*
X331500Y181500D01*
X318500Y252000D02*
X332500Y238000D01*
X367500D02*
X375000Y230500D01*
X313000Y252000D02*
X318500D01*
X375000Y217181D02*
Y230500D01*
X374000Y216500D02*
X374319D01*
X332500Y238000D02*
X367500D01*
X374319Y216500D02*
X375000Y217181D01*
X391500Y360500D02*
X443173D01*
X374000Y343000D02*
X391500Y360500D01*
X374000Y305000D02*
Y343000D01*
X366500Y297500D02*
X374000Y305000D01*
X308500Y297500D02*
X366500D01*
X263000Y252000D02*
X308500Y297500D01*
X334000Y243000D02*
X369500D01*
X384500Y228000D01*
Y219000D02*
Y228000D01*
X317500Y259500D02*
X334000Y243000D01*
X310500Y259500D02*
X317500D01*
X303000Y252000D02*
X310500Y259500D01*
X380000Y211500D02*
X384500Y216000D01*
Y219000D01*
X374000Y211500D02*
X380000D01*
X369000Y308500D02*
Y346500D01*
X363000Y302500D02*
X369000Y308500D01*
X303500Y302500D02*
X363000D01*
X252765Y251765D02*
X303500Y302500D01*
X474429Y360500D02*
X479827D01*
X369000Y346500D02*
X389500Y367000D01*
X467929D02*
X474429Y360500D01*
X389500Y367000D02*
X467929D01*
X384500Y267000D02*
X415500Y298000D01*
X273000Y252000D02*
X288000Y267000D01*
X384500D01*
X415500Y298000D02*
X469500D01*
X476291Y304839D02*
X476953Y305500D01*
X469500Y298000D02*
X476291Y304791D01*
Y304839D01*
X476953Y305500D02*
X479827D01*
X346644Y338474D02*
X347837Y337281D01*
X348218D02*
X359731Y325769D01*
Y313230D02*
Y325769D01*
X346644Y338474D02*
Y338856D01*
X347837Y337281D02*
X348218D01*
X359731Y313230D02*
X360000Y312961D01*
D49*
X180000Y376000D02*
X182500Y373500D01*
X301000Y376000D02*
X303500Y373500D01*
X358000Y376000D02*
X360500Y373500D01*
X487500Y358000D02*
Y367500D01*
X355500Y373500D02*
X358000Y376000D01*
X424500Y373500D02*
X476500D01*
X182500D02*
X234500D01*
X360500D02*
X419500D01*
X422000Y376000D02*
X424500Y373500D01*
X479827Y355500D02*
X485000D01*
X237000Y376000D02*
Y393000D01*
X422000Y376000D02*
Y393000D01*
X485000Y355500D02*
X487500Y358000D01*
X298500Y373500D02*
X301000Y376000D01*
X303500Y373500D02*
X355500D01*
X479000Y376000D02*
X487500Y367500D01*
X234500Y373500D02*
X237000Y376000D01*
X239500Y373500D02*
X298500D01*
X419500D02*
X422000Y376000D01*
X237000D02*
X239500Y373500D01*
X358000Y376000D02*
Y393000D01*
X476500Y373500D02*
X479000Y376000D01*
X180000D02*
Y393000D01*
X301000Y376000D02*
Y393000D01*
X479000Y376000D02*
Y393000D01*
X197000Y453000D02*
Y470000D01*
X261000Y453000D02*
Y470000D01*
X258500Y472500D02*
X261000Y470000D01*
X382000D02*
X384500Y472500D01*
X194500D02*
X197000Y470000D01*
X263500Y472500D02*
X315500D01*
X382000Y453000D02*
Y470000D01*
X142500Y472500D02*
X194500D01*
X199500D02*
X258500D01*
X315500D02*
X318000Y470000D01*
X384500Y472500D02*
X436500D01*
X140000Y453000D02*
Y470000D01*
X318000Y453000D02*
Y470000D01*
X436500Y472500D02*
X439000Y470000D01*
X140000D02*
X142500Y472500D01*
X320500D02*
X379500D01*
X197000Y470000D02*
X199500Y472500D01*
X261000Y470000D02*
X263500Y472500D01*
X439000Y453000D02*
Y470000D01*
X318000D02*
X320500Y472500D01*
X379500D02*
X382000Y470000D01*
X229500Y440000D02*
X288500D01*
X412000Y442500D02*
Y452500D01*
X170000Y442500D02*
X172500Y440000D01*
X291000Y442500D02*
X293500Y440000D01*
X348000Y442500D02*
Y452500D01*
X456500Y440000D02*
X469000Y452500D01*
X172500Y440000D02*
X224500D01*
X293500D02*
X345500D01*
X170000Y442500D02*
Y452500D01*
X224500Y440000D02*
X227000Y442500D01*
X414500Y440000D02*
X456500D01*
X291000Y442500D02*
Y452500D01*
X345500Y440000D02*
X348000Y442500D01*
X350500Y440000D02*
X409500D01*
X227000Y442500D02*
Y452500D01*
X288500Y440000D02*
X291000Y442500D01*
X412000D02*
X414500Y440000D01*
X348000Y442500D02*
X350500Y440000D01*
X409500D02*
X412000Y442500D01*
X227000D02*
X229500Y440000D01*
X454000Y448500D02*
Y457500D01*
X450500Y445000D02*
X454000Y448500D01*
Y457500D02*
X457500Y461000D01*
X333000Y457500D02*
X336500Y461000D01*
X329500Y445000D02*
X333000Y448500D01*
Y457500D01*
X208500Y445000D02*
X212000Y448500D01*
Y457500D01*
X215500Y461000D01*
X297500D02*
X300500Y458000D01*
X358000Y448500D02*
X361500Y445000D01*
X397000Y457500D02*
X400500Y461000D01*
X422000Y448500D02*
Y458000D01*
X425500Y445000D02*
X450500D01*
X479000Y453000D02*
Y458500D01*
X240000Y445000D02*
X272000D01*
X275500Y448500D01*
X358000D02*
Y453000D01*
X397000Y448500D02*
Y457500D01*
X457500Y461000D02*
X476500D01*
X496500Y346000D02*
Y446500D01*
X393500Y445000D02*
X397000Y448500D01*
X419000Y461000D02*
X422000Y458000D01*
X476500Y461000D02*
X479000Y458500D01*
X479827Y340500D02*
X491000D01*
X180000Y448500D02*
X183500Y445000D01*
X234500Y461000D02*
X237000Y458500D01*
X301000Y448500D02*
X304500Y445000D01*
X329500D01*
X336500Y461000D02*
X355500D01*
X490000Y453000D02*
X496500Y446500D01*
X491000Y340500D02*
X496500Y346000D01*
X183500Y445000D02*
X208500D01*
X215500Y461000D02*
X234500D01*
X275500Y448500D02*
Y457500D01*
X279000Y461000D01*
X422000Y448500D02*
X425500Y445000D01*
X180000Y448500D02*
Y453000D01*
X236500Y448500D02*
X240000Y445000D01*
X300500Y452500D02*
Y458000D01*
X400500Y461000D02*
X419000D01*
X236500Y448500D02*
Y453000D01*
X301000Y448500D02*
Y453000D01*
X355500Y461000D02*
X358000Y458500D01*
X361500Y445000D02*
X393500D01*
X237000Y453000D02*
Y458500D01*
X279000Y461000D02*
X297500D01*
X358000Y453000D02*
Y458500D01*
X479000Y453000D02*
X490000D01*
X407000Y388500D02*
Y397500D01*
X403500Y385000D02*
X407000Y388500D01*
Y397500D02*
X410500Y401000D01*
X282500Y385000D02*
X286000Y388500D01*
Y397500D01*
X289500Y401000D01*
X165000Y388500D02*
Y397500D01*
X168500Y401000D01*
X161500Y385000D02*
X165000Y388500D01*
X140000Y387500D02*
Y393000D01*
X314500Y401000D02*
X318000Y397500D01*
X340000Y385000D02*
X343500Y388500D01*
X410500Y401000D02*
X435500D01*
X193500D02*
X197000Y397500D01*
Y388000D02*
Y393000D01*
X318500Y388000D02*
Y393500D01*
X379000Y401000D02*
X382500Y397500D01*
X384500Y385000D02*
X403500D01*
X439000Y393000D02*
Y397500D01*
X225500Y401000D02*
X257500D01*
X343500Y388500D02*
Y397500D01*
X222000D02*
X225500Y401000D01*
X289500D02*
X314500D01*
X321500Y385000D02*
X340000D01*
X382500Y393000D02*
Y397500D01*
X200000Y385000D02*
X218500D01*
X222000Y388500D02*
Y397500D01*
X261000Y387500D02*
X263500Y385000D01*
X343500Y397500D02*
X347000Y401000D01*
X382000Y387500D02*
Y393000D01*
X261000D02*
Y397500D01*
Y387500D02*
Y393000D01*
X318000D02*
Y397500D01*
X382000Y387500D02*
X384500Y385000D01*
X142500D02*
X161500D01*
X218500D02*
X222000Y388500D01*
X257500Y401000D02*
X261000Y397500D01*
X347000Y401000D02*
X379000D01*
X140000Y387500D02*
X142500Y385000D01*
X168500Y401000D02*
X193500D01*
X197000Y393000D02*
Y397500D01*
Y388000D02*
X200000Y385000D01*
X263500D02*
X282500D01*
X318500Y388000D02*
X321500Y385000D01*
X435500Y401000D02*
X439000Y397500D01*
X486000Y350500D02*
X491500Y356000D01*
X479827Y350500D02*
X486000D01*
X150000Y393000D02*
Y403000D01*
X271000D02*
X273500Y405500D01*
X394500D02*
X446500D01*
X207000Y393000D02*
Y403000D01*
X273500Y405500D02*
X325500D01*
X446500D02*
X449000Y403000D01*
X207000D02*
X209500Y405500D01*
X325500D02*
X328000Y403000D01*
X389500Y405500D02*
X392000Y403000D01*
Y393000D02*
Y403000D01*
X204500Y405500D02*
X207000Y403000D01*
X328000Y393000D02*
Y403000D01*
X268500Y405500D02*
X271000Y403000D01*
X330500Y405500D02*
X389500D01*
X449000Y393000D02*
Y403000D01*
X152500Y405500D02*
X204500D01*
X209500D02*
X268500D01*
X328000Y403000D02*
X330500Y405500D01*
X150000Y403000D02*
X152500Y405500D01*
X271000Y393000D02*
Y403000D01*
X392000D02*
X394500Y405500D01*
X449000Y453000D02*
Y459500D01*
X494000Y335500D02*
X501500Y343000D01*
X455500Y466000D02*
X486000D01*
X449000Y459500D02*
X455500Y466000D01*
X479827Y335500D02*
X494000D01*
X486000Y466000D02*
X501500Y450500D01*
Y343000D02*
Y450500D01*
D50*
X426500Y325500D02*
X443173D01*
X435000Y354000D02*
X438439Y350561D01*
X443112D01*
X430000Y354000D02*
X435000D01*
X443112Y350561D02*
X443173Y350500D01*
X422000Y349000D02*
X422213D01*
X424713Y346500D02*
X439299D01*
X440299Y345500D02*
X443173D01*
X422213Y349000D02*
X424713Y346500D01*
X439299D02*
X440299Y345500D01*
X430500Y320500D02*
X443173D01*
X427500Y317500D02*
X430500Y320500D01*
X426500Y340500D02*
X443173D01*
X434000Y312000D02*
X434325D01*
X435825Y310500D01*
X443673D01*
D51*
X442248Y291248D02*
X465500D01*
X435000Y284000D02*
X442248Y291248D01*
Y204000D02*
X465500D01*
X435000Y211248D02*
X442248Y204000D01*
X435000Y211248D02*
Y248000D01*
Y284000D01*
D52*
X203000Y252000D02*
D03*
X163000D02*
D03*
X153000D02*
D03*
X143000D02*
D03*
X223000D02*
D03*
X133000D02*
D03*
X183000D02*
D03*
X233000D02*
D03*
X193000D02*
D03*
X173000D02*
D03*
X213000D02*
D03*
X243000D02*
D03*
X123000D02*
D03*
X283000Y322000D02*
D03*
X313000Y252000D02*
D03*
X303000D02*
D03*
X313000Y322000D02*
D03*
X283000Y252000D02*
D03*
X303000Y322000D02*
D03*
X293000D02*
D03*
Y252000D02*
D03*
X253000D02*
D03*
X273000Y322000D02*
D03*
X263000Y252000D02*
D03*
Y322000D02*
D03*
X253000D02*
D03*
X273000Y252000D02*
D03*
X153000Y322000D02*
D03*
X143000D02*
D03*
X133000D02*
D03*
X123000D02*
D03*
X193000D02*
D03*
X203000D02*
D03*
X233000D02*
D03*
X223000D02*
D03*
X173000D02*
D03*
X163000D02*
D03*
X213000D02*
D03*
X243000D02*
D03*
X183000D02*
D03*
D53*
X140000Y393000D02*
D03*
X197000D02*
D03*
X261000D02*
D03*
X318000D02*
D03*
X382000D02*
D03*
X439000D02*
D03*
D54*
X150000D02*
D03*
X160000D02*
D03*
X170000D02*
D03*
X180000D02*
D03*
Y453000D02*
D03*
X170000D02*
D03*
X160000D02*
D03*
X150000D02*
D03*
X140000D02*
D03*
X207000Y393000D02*
D03*
X217000D02*
D03*
X227000D02*
D03*
X237000D02*
D03*
Y453000D02*
D03*
X227000D02*
D03*
X217000D02*
D03*
X207000D02*
D03*
X197000D02*
D03*
X271000Y393000D02*
D03*
X281000D02*
D03*
X291000D02*
D03*
X301000D02*
D03*
Y453000D02*
D03*
X291000D02*
D03*
X281000D02*
D03*
X271000D02*
D03*
X261000D02*
D03*
X328000Y393000D02*
D03*
X338000D02*
D03*
X348000D02*
D03*
X358000D02*
D03*
Y453000D02*
D03*
X348000D02*
D03*
X338000D02*
D03*
X328000D02*
D03*
X318000D02*
D03*
X392000Y393000D02*
D03*
X402000D02*
D03*
X412000D02*
D03*
X422000D02*
D03*
Y453000D02*
D03*
X412000D02*
D03*
X402000D02*
D03*
X392000D02*
D03*
X382000D02*
D03*
X449000Y393000D02*
D03*
X459000D02*
D03*
X469000D02*
D03*
X479000D02*
D03*
Y453000D02*
D03*
X469000D02*
D03*
X459000D02*
D03*
X449000D02*
D03*
X439000D02*
D03*
D55*
X360000Y283039D02*
D03*
D56*
Y312961D02*
D03*
D57*
X510500Y183000D02*
D03*
Y459500D02*
D03*
X118000D02*
D03*
Y183000D02*
D03*
D58*
X392500Y327000D02*
D03*
X383500Y256500D02*
D03*
X326500Y232500D02*
D03*
D59*
X367500Y253000D02*
D03*
X383500Y336500D02*
D03*
X400000Y294000D02*
D03*
X398000Y312000D02*
D03*
X415000Y308500D02*
D03*
X407000Y321500D02*
D03*
X324000Y282500D02*
D03*
Y290000D02*
D03*
X383500Y201500D02*
D03*
Y196500D02*
D03*
Y191500D02*
D03*
Y186500D02*
D03*
Y181500D02*
D03*
X327500Y196500D02*
D03*
Y186000D02*
D03*
Y191500D02*
D03*
Y181000D02*
D03*
D60*
X491000Y348000D02*
D03*
X404500Y347500D02*
D03*
X394000Y352500D02*
D03*
X347000Y327500D02*
D03*
X331500Y310500D02*
D03*
X327500Y334500D02*
D03*
X315500Y334000D02*
D03*
X324000Y323500D02*
D03*
X323000Y310000D02*
D03*
X492000Y315500D02*
D03*
X489500Y330500D02*
D03*
X491500Y356000D02*
D03*
X492000Y310500D02*
D03*
Y325500D02*
D03*
D61*
X426500D02*
D03*
X430000Y354000D02*
D03*
X422000Y349000D02*
D03*
X427500Y317500D02*
D03*
X426500Y340500D02*
D03*
X434000Y312000D02*
D03*
M02*
