G04*
G04 #@! TF.GenerationSoftware,Altium Limited,Altium Designer,25.8.1 (18)*
G04*
G04 Layer_Color=65535*
%FSLAX25Y25*%
%MOIN*%
G70*
G04*
G04 #@! TF.SameCoordinates,1EE29D71-5A0B-43A1-B93D-2EDC50B85403*
G04*
G04*
G04 #@! TF.FilePolarity,Positive*
G04*
G01*
G75*
%ADD10C,0.00787*%
%ADD11C,0.00500*%
%ADD12C,0.00600*%
%ADD13C,0.01000*%
G36*
X295877Y222471D02*
X296090D01*
Y222429D01*
X296217D01*
Y222386D01*
X296302D01*
Y222344D01*
X296387D01*
Y222301D01*
X296430D01*
Y222259D01*
X296472D01*
Y222216D01*
X296557D01*
Y222131D01*
X296600D01*
Y222089D01*
X296642D01*
Y221792D01*
X296600D01*
Y221622D01*
X296557D01*
Y221494D01*
X296600D01*
Y221409D01*
X296642D01*
Y221367D01*
X296685D01*
Y221324D01*
X296727D01*
Y221282D01*
X297067D01*
Y221324D01*
X297109D01*
Y221367D01*
X297194D01*
Y221409D01*
X297237D01*
Y221452D01*
X297322D01*
Y221494D01*
X297364D01*
Y221537D01*
X297449D01*
Y221579D01*
X297534D01*
Y221622D01*
X297619D01*
Y221664D01*
X297704D01*
Y221707D01*
X297832D01*
Y221749D01*
X297959D01*
Y221792D01*
X298129D01*
Y221834D01*
X298299D01*
Y221877D01*
X298469D01*
Y221919D01*
X298724D01*
Y221961D01*
X299021D01*
Y222004D01*
X299828D01*
Y221961D01*
X299998D01*
Y221919D01*
X300041D01*
Y221877D01*
X300083D01*
Y221834D01*
X300126D01*
Y221579D01*
X300083D01*
Y221452D01*
X300041D01*
Y221324D01*
X299998D01*
Y221027D01*
X300041D01*
Y220942D01*
X300083D01*
Y220899D01*
X300126D01*
Y220857D01*
X300295D01*
Y220814D01*
X300338D01*
Y220857D01*
X300508D01*
Y220899D01*
X300593D01*
Y220942D01*
X300678D01*
Y220984D01*
X300763D01*
Y221027D01*
X300890D01*
Y221069D01*
X301060D01*
Y221112D01*
X301230D01*
Y221154D01*
X301697D01*
Y221112D01*
X301867D01*
Y221069D01*
X301995D01*
Y221027D01*
X302080D01*
Y220984D01*
X302122D01*
Y220942D01*
X302207D01*
Y220899D01*
X302250D01*
Y220857D01*
X302292D01*
Y220814D01*
X302334D01*
Y220729D01*
X302377D01*
Y220687D01*
X302419D01*
Y220602D01*
X302462D01*
Y220475D01*
X302504D01*
Y220347D01*
X302547D01*
Y219625D01*
X302504D01*
Y219455D01*
X302462D01*
Y219073D01*
X302504D01*
Y218988D01*
X302547D01*
Y218945D01*
X302632D01*
Y218903D01*
X302759D01*
Y218860D01*
X303014D01*
Y218818D01*
X303142D01*
Y218775D01*
X303227D01*
Y218733D01*
X303311D01*
Y218690D01*
X303354D01*
Y218648D01*
X303397D01*
Y218605D01*
X303439D01*
Y218520D01*
X303481D01*
Y218436D01*
X303524D01*
Y218308D01*
X303566D01*
Y217756D01*
X303524D01*
Y217586D01*
X303481D01*
Y217501D01*
X303439D01*
Y217416D01*
X303397D01*
Y217331D01*
X303354D01*
Y217246D01*
X303311D01*
Y217204D01*
X303269D01*
Y217161D01*
X303227D01*
Y217119D01*
X303184D01*
Y217076D01*
X303142D01*
Y217034D01*
X303099D01*
Y216991D01*
X303057D01*
Y216949D01*
X303014D01*
Y216906D01*
X302972D01*
Y216864D01*
X302929D01*
Y216779D01*
X302887D01*
Y216566D01*
X302929D01*
Y216481D01*
X302972D01*
Y216439D01*
X303014D01*
Y216396D01*
X303099D01*
Y216354D01*
X303142D01*
Y216312D01*
X303227D01*
Y216269D01*
X303269D01*
Y216227D01*
X303311D01*
Y216184D01*
X303354D01*
Y216142D01*
X303397D01*
Y216099D01*
X303439D01*
Y216014D01*
X303481D01*
Y215972D01*
X303524D01*
Y215844D01*
X303566D01*
Y215419D01*
X303524D01*
Y215292D01*
X303481D01*
Y215207D01*
X303439D01*
Y215165D01*
X303397D01*
Y215080D01*
X303354D01*
Y215037D01*
X303311D01*
Y214995D01*
X303269D01*
Y214952D01*
X303227D01*
Y214910D01*
X303184D01*
Y214867D01*
X303099D01*
Y214825D01*
X303057D01*
Y214782D01*
X302972D01*
Y214740D01*
X302887D01*
Y214697D01*
X302802D01*
Y214655D01*
X302717D01*
Y214612D01*
X302632D01*
Y214570D01*
X302462D01*
Y214527D01*
X302334D01*
Y214485D01*
X302292D01*
Y214442D01*
X302250D01*
Y214357D01*
X302207D01*
Y214103D01*
X302250D01*
Y214018D01*
X302292D01*
Y213975D01*
X302334D01*
Y213933D01*
X302377D01*
Y213890D01*
X302419D01*
Y213040D01*
X302334D01*
Y213083D01*
X301867D01*
Y213040D01*
X301697D01*
Y212998D01*
X301612D01*
Y212956D01*
X301485D01*
Y212913D01*
X301400D01*
Y212871D01*
X301357D01*
Y212828D01*
X301273D01*
Y212786D01*
X301230D01*
Y212743D01*
X301187D01*
Y212701D01*
X301145D01*
Y212658D01*
X301102D01*
Y212616D01*
X301060D01*
Y212573D01*
X301018D01*
Y212488D01*
X300975D01*
Y212446D01*
X300933D01*
Y212361D01*
X300890D01*
Y212276D01*
X300848D01*
Y212191D01*
X300805D01*
Y211894D01*
X300848D01*
Y211851D01*
X300890D01*
Y211809D01*
X300933D01*
Y211766D01*
X300975D01*
Y211724D01*
X301273D01*
Y211766D01*
X301357D01*
Y211809D01*
X301400D01*
Y211851D01*
X301442D01*
Y211936D01*
X301485D01*
Y211979D01*
X301527D01*
Y212064D01*
X301570D01*
Y212148D01*
X301612D01*
Y212191D01*
X301655D01*
Y212233D01*
X301697D01*
Y212276D01*
X301740D01*
Y212318D01*
X301782D01*
Y212361D01*
X301910D01*
Y212403D01*
X302250D01*
Y212361D01*
X302334D01*
Y212318D01*
X302377D01*
Y212276D01*
X302462D01*
Y212191D01*
X302504D01*
Y212106D01*
X302547D01*
Y211979D01*
X302589D01*
Y211681D01*
X302547D01*
Y211511D01*
X302504D01*
Y211426D01*
X302462D01*
Y211341D01*
X302419D01*
Y211256D01*
X302377D01*
Y211214D01*
X302334D01*
Y211171D01*
X302292D01*
Y211129D01*
X302250D01*
Y211086D01*
X302207D01*
Y211044D01*
X302122D01*
Y211001D01*
X302037D01*
Y210959D01*
X301527D01*
Y211001D01*
X301485D01*
Y210959D01*
X301400D01*
Y210916D01*
X301357D01*
Y210874D01*
X301315D01*
Y210747D01*
X301273D01*
Y210449D01*
X301315D01*
Y210364D01*
X301357D01*
Y210322D01*
X301400D01*
Y210279D01*
X301442D01*
Y210237D01*
X301570D01*
Y210194D01*
X301612D01*
Y210024D01*
X301570D01*
Y209855D01*
X301527D01*
Y209727D01*
X301485D01*
Y209600D01*
X301442D01*
Y209472D01*
X301400D01*
Y209345D01*
X301357D01*
Y209260D01*
X301315D01*
Y209132D01*
X301273D01*
Y209047D01*
X301230D01*
Y208920D01*
X301187D01*
Y208835D01*
X301145D01*
Y208750D01*
X301102D01*
Y208665D01*
X301060D01*
Y208538D01*
X301018D01*
Y208453D01*
X300975D01*
Y208368D01*
X300933D01*
Y208283D01*
X300890D01*
Y208155D01*
X300848D01*
Y208113D01*
X300805D01*
Y208070D01*
X300635D01*
Y208028D01*
X300550D01*
Y207985D01*
X300465D01*
Y207943D01*
X300423D01*
Y207900D01*
X300380D01*
Y207858D01*
X300338D01*
Y207815D01*
X300295D01*
Y207773D01*
X300253D01*
Y207731D01*
X300210D01*
Y207688D01*
X300168D01*
Y207646D01*
X300126D01*
Y207603D01*
X300083D01*
Y207561D01*
X300041D01*
Y207518D01*
X299998D01*
Y207476D01*
X299956D01*
Y207433D01*
X299913D01*
Y207391D01*
X299871D01*
Y207348D01*
X299828D01*
Y207306D01*
X299786D01*
Y207263D01*
X299743D01*
Y207221D01*
X299701D01*
Y207178D01*
X299658D01*
Y207136D01*
X299616D01*
Y207093D01*
X299573D01*
Y207051D01*
X299531D01*
Y207008D01*
X299488D01*
Y206966D01*
X299446D01*
Y206923D01*
X299403D01*
Y206881D01*
X299361D01*
Y206796D01*
X299318D01*
Y206753D01*
X299276D01*
Y206711D01*
X299233D01*
Y206668D01*
X299191D01*
Y206626D01*
X299148D01*
Y206583D01*
X299106D01*
Y206499D01*
X299063D01*
Y206456D01*
X299021D01*
Y206414D01*
X298978D01*
Y206371D01*
X298936D01*
Y206286D01*
X298894D01*
Y206244D01*
X298851D01*
Y206201D01*
X298809D01*
Y206116D01*
X298766D01*
Y206074D01*
X298724D01*
Y205989D01*
X298681D01*
Y205946D01*
X298639D01*
Y205861D01*
X298596D01*
Y205819D01*
X298554D01*
Y205734D01*
X298511D01*
Y205691D01*
X298469D01*
Y205606D01*
X298426D01*
Y205564D01*
X298384D01*
Y205479D01*
X298341D01*
Y205394D01*
X298299D01*
Y205309D01*
X298256D01*
Y205224D01*
X298214D01*
Y205182D01*
X298171D01*
Y205097D01*
X298129D01*
Y205012D01*
X298086D01*
Y204927D01*
X298044D01*
Y204842D01*
X298002D01*
Y204757D01*
X297959D01*
Y204672D01*
X297917D01*
Y204587D01*
X297874D01*
Y204460D01*
X297832D01*
Y204375D01*
X297789D01*
Y204290D01*
X297747D01*
Y204162D01*
X297704D01*
Y204077D01*
X297662D01*
Y203950D01*
X297619D01*
Y203822D01*
X297577D01*
Y203695D01*
X297534D01*
Y203567D01*
X297492D01*
Y203440D01*
X297449D01*
Y203312D01*
X297407D01*
Y203185D01*
X297364D01*
Y203015D01*
X297322D01*
Y202845D01*
X297279D01*
Y202675D01*
X297237D01*
Y202420D01*
X297194D01*
Y202166D01*
X297152D01*
Y201826D01*
X297109D01*
Y201783D01*
X297067D01*
Y201741D01*
X296982D01*
Y201698D01*
X296854D01*
Y201656D01*
X296727D01*
Y201613D01*
X296600D01*
Y201571D01*
X296430D01*
Y201528D01*
X296260D01*
Y201486D01*
X296005D01*
Y201443D01*
X295750D01*
Y201401D01*
X295410D01*
Y201358D01*
X294391D01*
Y201401D01*
X294051D01*
Y201443D01*
X293838D01*
Y201486D01*
X293669D01*
Y201528D01*
X293541D01*
Y201571D01*
X293456D01*
Y201613D01*
X293329D01*
Y201656D01*
X293244D01*
Y201698D01*
X293201D01*
Y201741D01*
X293159D01*
Y201783D01*
X293116D01*
Y201826D01*
X293074D01*
Y202888D01*
X293031D01*
Y203143D01*
X292989D01*
Y203355D01*
X292946D01*
Y203482D01*
X292904D01*
Y203610D01*
X292861D01*
Y203737D01*
X292819D01*
Y203865D01*
X292776D01*
Y203950D01*
X292734D01*
Y204077D01*
X292691D01*
Y204162D01*
X292649D01*
Y204247D01*
X292606D01*
Y204332D01*
X292564D01*
Y204375D01*
X292522D01*
Y204460D01*
X292479D01*
Y204544D01*
X292437D01*
Y204629D01*
X292394D01*
Y204672D01*
X292352D01*
Y204757D01*
X292309D01*
Y204799D01*
X292267D01*
Y204884D01*
X292224D01*
Y204927D01*
X292182D01*
Y204969D01*
X292139D01*
Y205054D01*
X292097D01*
Y205097D01*
X292054D01*
Y205139D01*
X292012D01*
Y205224D01*
X291969D01*
Y205267D01*
X291927D01*
Y205309D01*
X291884D01*
Y205352D01*
X291842D01*
Y205436D01*
X291799D01*
Y205479D01*
X291757D01*
Y205521D01*
X291714D01*
Y205564D01*
X291672D01*
Y205606D01*
X291629D01*
Y205649D01*
X291587D01*
Y205691D01*
X291544D01*
Y205776D01*
X291502D01*
Y205819D01*
X291459D01*
Y205861D01*
X291417D01*
Y205904D01*
X291374D01*
Y205946D01*
X291332D01*
Y205989D01*
X291290D01*
Y206031D01*
X291247D01*
Y206074D01*
X291205D01*
Y206116D01*
X291162D01*
Y206159D01*
X291120D01*
Y206201D01*
X291077D01*
Y206244D01*
X291035D01*
Y206286D01*
X290992D01*
Y206329D01*
X290950D01*
Y206371D01*
X290907D01*
Y206414D01*
X290865D01*
Y206456D01*
X290822D01*
Y206499D01*
X290780D01*
Y206541D01*
X290737D01*
Y206583D01*
X290695D01*
Y206626D01*
X290652D01*
Y206668D01*
X290610D01*
Y206711D01*
X290567D01*
Y206753D01*
X290525D01*
Y206796D01*
X290482D01*
Y206838D01*
X290440D01*
Y206881D01*
X290398D01*
Y206923D01*
X290355D01*
Y206966D01*
X290313D01*
Y207008D01*
X290270D01*
Y207051D01*
X290228D01*
Y207093D01*
X290185D01*
Y207136D01*
X290143D01*
Y207178D01*
X290100D01*
Y207221D01*
X290058D01*
Y207263D01*
X290015D01*
Y207306D01*
X289973D01*
Y207348D01*
X289930D01*
Y207391D01*
X289888D01*
Y207433D01*
X289845D01*
Y207476D01*
X289803D01*
Y207518D01*
X289760D01*
Y207561D01*
X289718D01*
Y207603D01*
X289675D01*
Y207688D01*
X289633D01*
Y207731D01*
X289590D01*
Y207773D01*
X289548D01*
Y207815D01*
X289505D01*
Y207858D01*
X289463D01*
Y207900D01*
X289420D01*
Y207985D01*
X289378D01*
Y208028D01*
X289335D01*
Y208070D01*
X289293D01*
Y208113D01*
X289250D01*
Y208198D01*
X289208D01*
Y208240D01*
X289165D01*
Y208325D01*
X289123D01*
Y208368D01*
X289081D01*
Y208410D01*
X289038D01*
Y208495D01*
X288996D01*
Y208538D01*
X288953D01*
Y208623D01*
X288911D01*
Y208665D01*
X288868D01*
Y208750D01*
X288826D01*
Y208792D01*
X288783D01*
Y208877D01*
X288741D01*
Y208962D01*
X288698D01*
Y209005D01*
X288656D01*
Y209090D01*
X288613D01*
Y209175D01*
X288571D01*
Y209260D01*
X288528D01*
Y209345D01*
X288486D01*
Y209430D01*
X288443D01*
Y209515D01*
X288401D01*
Y209600D01*
X288358D01*
Y209685D01*
X288316D01*
Y209812D01*
X288273D01*
Y209897D01*
X288231D01*
Y210024D01*
X288189D01*
Y210109D01*
X288146D01*
Y210237D01*
X288104D01*
Y210364D01*
X288061D01*
Y210534D01*
X288019D01*
Y210662D01*
X287976D01*
Y210831D01*
X287934D01*
Y211001D01*
X287891D01*
Y211214D01*
X287849D01*
Y211426D01*
X287806D01*
Y211724D01*
X287764D01*
Y212106D01*
X287721D01*
Y213635D01*
X287679D01*
Y214060D01*
X287636D01*
Y214188D01*
X287679D01*
Y216142D01*
X287721D01*
Y216439D01*
X287679D01*
Y216524D01*
X287636D01*
Y216566D01*
X287594D01*
Y216609D01*
X287509D01*
Y216651D01*
X287424D01*
Y216694D01*
X287339D01*
Y216736D01*
X287254D01*
Y216779D01*
X287211D01*
Y216821D01*
X287169D01*
Y216864D01*
X287126D01*
Y216906D01*
X287084D01*
Y216949D01*
X287041D01*
Y217034D01*
X286999D01*
Y217076D01*
X286957D01*
Y217204D01*
X286914D01*
Y217373D01*
X286872D01*
Y217459D01*
X286914D01*
Y217671D01*
X286957D01*
Y217713D01*
X286999D01*
Y217798D01*
X287041D01*
Y217841D01*
X287084D01*
Y217883D01*
X287169D01*
Y217926D01*
X287296D01*
Y217968D01*
X287509D01*
Y217926D01*
X287934D01*
Y217968D01*
X287976D01*
Y218011D01*
X288019D01*
Y218181D01*
X287976D01*
Y218393D01*
X287934D01*
Y218563D01*
X287891D01*
Y219115D01*
X287934D01*
Y219285D01*
X287976D01*
Y219413D01*
X288019D01*
Y219540D01*
X288061D01*
Y219625D01*
X288104D01*
Y219710D01*
X288146D01*
Y219752D01*
X288189D01*
Y219837D01*
X288231D01*
Y219880D01*
X288273D01*
Y219922D01*
X288316D01*
Y219965D01*
X288358D01*
Y220007D01*
X288401D01*
Y220050D01*
X288443D01*
Y220092D01*
X288486D01*
Y220135D01*
X288528D01*
Y220177D01*
X288613D01*
Y220220D01*
X288698D01*
Y220262D01*
X288783D01*
Y220305D01*
X289123D01*
Y220262D01*
X289208D01*
Y220220D01*
X289293D01*
Y220177D01*
X289335D01*
Y220135D01*
X289378D01*
Y220050D01*
X289420D01*
Y220007D01*
X289505D01*
Y219965D01*
X289718D01*
Y220007D01*
X289803D01*
Y220050D01*
X289845D01*
Y220092D01*
X289888D01*
Y220177D01*
X289930D01*
Y220305D01*
X289973D01*
Y220390D01*
X290015D01*
Y220475D01*
X290058D01*
Y220560D01*
X290100D01*
Y220644D01*
X290143D01*
Y220687D01*
X290185D01*
Y220772D01*
X290228D01*
Y220814D01*
X290270D01*
Y220899D01*
X290313D01*
Y220942D01*
X290355D01*
Y220984D01*
X290398D01*
Y221027D01*
X290440D01*
Y221069D01*
X290482D01*
Y221112D01*
X290525D01*
Y221154D01*
X290567D01*
Y221197D01*
X290610D01*
Y221239D01*
X290652D01*
Y221282D01*
X290695D01*
Y221324D01*
X290737D01*
Y221367D01*
X290822D01*
Y221409D01*
X290865D01*
Y221452D01*
X290950D01*
Y221494D01*
X291035D01*
Y221537D01*
X291120D01*
Y221579D01*
X291205D01*
Y221622D01*
X291332D01*
Y221664D01*
X291502D01*
Y221707D01*
X292012D01*
Y221664D01*
X292182D01*
Y221622D01*
X292309D01*
Y221579D01*
X292394D01*
Y221537D01*
X292479D01*
Y221494D01*
X292522D01*
Y221452D01*
X292606D01*
Y221409D01*
X292649D01*
Y221367D01*
X292691D01*
Y221324D01*
X292734D01*
Y221282D01*
X292776D01*
Y221239D01*
X292819D01*
Y221197D01*
X292861D01*
Y221154D01*
X292904D01*
Y221112D01*
X292946D01*
Y221069D01*
X292989D01*
Y221027D01*
X293074D01*
Y220984D01*
X293329D01*
Y221027D01*
X293414D01*
Y221069D01*
X293456D01*
Y221112D01*
X293498D01*
Y221197D01*
X293541D01*
Y221282D01*
X293583D01*
Y221367D01*
X293626D01*
Y221409D01*
X293669D01*
Y221452D01*
X293711D01*
Y221537D01*
X293753D01*
Y221579D01*
X293796D01*
Y221622D01*
X293838D01*
Y221664D01*
X293881D01*
Y221707D01*
X293923D01*
Y221749D01*
X293966D01*
Y221792D01*
X294008D01*
Y221834D01*
X294051D01*
Y221877D01*
X294093D01*
Y221919D01*
X294136D01*
Y221961D01*
X294178D01*
Y222004D01*
X294263D01*
Y222046D01*
X294306D01*
Y222089D01*
X294391D01*
Y222131D01*
X294433D01*
Y222174D01*
X294518D01*
Y222216D01*
X294603D01*
Y222259D01*
X294730D01*
Y222301D01*
X294815D01*
Y222344D01*
X294900D01*
Y222386D01*
X295028D01*
Y222429D01*
X295198D01*
Y222471D01*
X295368D01*
Y222514D01*
X295877D01*
Y222471D01*
D02*
G37*
G36*
X298044Y201698D02*
X298171D01*
Y201656D01*
X298299D01*
Y201613D01*
X298384D01*
Y201571D01*
X298511D01*
Y201528D01*
X298596D01*
Y201486D01*
X298681D01*
Y201443D01*
X298766D01*
Y201401D01*
X298851D01*
Y201358D01*
X298936D01*
Y201316D01*
X299021D01*
Y201273D01*
X299106D01*
Y201231D01*
X299191D01*
Y201188D01*
X299276D01*
Y201146D01*
X299361D01*
Y201103D01*
X299403D01*
Y201061D01*
X299488D01*
Y201019D01*
X299573D01*
Y200976D01*
X299616D01*
Y200934D01*
X299701D01*
Y200891D01*
X299786D01*
Y200849D01*
X299828D01*
Y200806D01*
X299913D01*
Y200764D01*
X299956D01*
Y200721D01*
X300041D01*
Y200679D01*
X300083D01*
Y200636D01*
X300168D01*
Y200594D01*
X300210D01*
Y200551D01*
X300253D01*
Y200509D01*
X300338D01*
Y200466D01*
X300380D01*
Y200424D01*
X300423D01*
Y200381D01*
X300465D01*
Y200339D01*
X300550D01*
Y200296D01*
X300593D01*
Y200254D01*
X300635D01*
Y200211D01*
X300678D01*
Y200169D01*
X300720D01*
Y200127D01*
X300763D01*
Y200084D01*
X300805D01*
Y200042D01*
X300848D01*
Y199999D01*
X299871D01*
Y199957D01*
X298681D01*
Y199914D01*
X290228D01*
Y199957D01*
X289590D01*
Y199999D01*
X289633D01*
Y200042D01*
X289675D01*
Y200084D01*
X289760D01*
Y200127D01*
X289803D01*
Y200169D01*
X289888D01*
Y200211D01*
X289930D01*
Y200254D01*
X290015D01*
Y200296D01*
X290058D01*
Y200339D01*
X290143D01*
Y200381D01*
X290185D01*
Y200424D01*
X290270D01*
Y200466D01*
X290355D01*
Y200509D01*
X290398D01*
Y200551D01*
X290482D01*
Y200594D01*
X290567D01*
Y200636D01*
X290610D01*
Y200679D01*
X290695D01*
Y200721D01*
X290780D01*
Y200764D01*
X290865D01*
Y200806D01*
X290907D01*
Y200849D01*
X290992D01*
Y200891D01*
X291077D01*
Y200934D01*
X291162D01*
Y200976D01*
X291247D01*
Y201019D01*
X291290D01*
Y201061D01*
X291417D01*
Y201103D01*
X291459D01*
Y201146D01*
X291544D01*
Y201188D01*
X291629D01*
Y201231D01*
X291714D01*
Y201273D01*
X291842D01*
Y201316D01*
X291927D01*
Y201358D01*
X292012D01*
Y201401D01*
X292097D01*
Y201443D01*
X292182D01*
Y201486D01*
X292309D01*
Y201528D01*
X292352D01*
Y201486D01*
X292394D01*
Y201401D01*
X292437D01*
Y201316D01*
X292479D01*
Y201273D01*
X292522D01*
Y201231D01*
X292564D01*
Y201188D01*
X292606D01*
Y201146D01*
X292691D01*
Y201103D01*
X292734D01*
Y201061D01*
X292819D01*
Y201019D01*
X292861D01*
Y200976D01*
X292946D01*
Y200934D01*
X293031D01*
Y200891D01*
X293159D01*
Y200849D01*
X293244D01*
Y200806D01*
X293371D01*
Y200764D01*
X293541D01*
Y200721D01*
X293711D01*
Y200679D01*
X293923D01*
Y200636D01*
X294221D01*
Y200594D01*
X295538D01*
Y200636D01*
X295920D01*
Y200679D01*
X296175D01*
Y200721D01*
X296387D01*
Y200764D01*
X296600D01*
Y200806D01*
X296727D01*
Y200849D01*
X296897D01*
Y200891D01*
X297024D01*
Y200934D01*
X297109D01*
Y200976D01*
X297237D01*
Y201019D01*
X297322D01*
Y201061D01*
X297407D01*
Y201103D01*
X297492D01*
Y201146D01*
X297577D01*
Y201188D01*
X297662D01*
Y201231D01*
X297704D01*
Y201273D01*
X297747D01*
Y201316D01*
X297789D01*
Y201358D01*
X297832D01*
Y201443D01*
X297874D01*
Y201571D01*
X297917D01*
Y201741D01*
X298044D01*
Y201698D01*
D02*
G37*
G36*
X301527Y199319D02*
X301570D01*
Y199277D01*
X301612D01*
Y199234D01*
X301655D01*
Y199192D01*
X301697D01*
Y199149D01*
X301740D01*
Y199107D01*
X301782D01*
Y199065D01*
X301825D01*
Y199022D01*
X301867D01*
Y198937D01*
X301910D01*
Y198895D01*
X301952D01*
Y198852D01*
X301995D01*
Y198810D01*
X302037D01*
Y198767D01*
X302080D01*
Y198682D01*
X302122D01*
Y198640D01*
X302165D01*
Y198597D01*
X302207D01*
Y198512D01*
X302250D01*
Y198470D01*
X302292D01*
Y198385D01*
X302334D01*
Y198342D01*
X302377D01*
Y198300D01*
X302419D01*
Y198215D01*
X302462D01*
Y198130D01*
X302207D01*
Y198087D01*
X301315D01*
Y198045D01*
X300083D01*
Y198002D01*
X294391D01*
Y198045D01*
X292691D01*
Y198087D01*
X291374D01*
Y198130D01*
X290185D01*
Y198172D01*
X287721D01*
Y198257D01*
X287764D01*
Y198300D01*
X287806D01*
Y198342D01*
X287849D01*
Y198385D01*
X287891D01*
Y198427D01*
X287934D01*
Y198512D01*
X287976D01*
Y198555D01*
X288019D01*
Y198597D01*
X288061D01*
Y198640D01*
X288104D01*
Y198682D01*
X288146D01*
Y198725D01*
X288189D01*
Y198767D01*
X288231D01*
Y198810D01*
X288273D01*
Y198852D01*
X288316D01*
Y198895D01*
X288358D01*
Y198937D01*
X288401D01*
Y198979D01*
X288443D01*
Y199022D01*
X288486D01*
Y199065D01*
X288528D01*
Y199107D01*
X288571D01*
Y199149D01*
X288656D01*
Y199192D01*
X288698D01*
Y199234D01*
X288741D01*
Y199277D01*
X289165D01*
Y199234D01*
X290482D01*
Y199192D01*
X294093D01*
Y199149D01*
X297959D01*
Y199192D01*
X299318D01*
Y199234D01*
X299956D01*
Y199277D01*
X300550D01*
Y199319D01*
X301145D01*
Y199362D01*
X301527D01*
Y199319D01*
D02*
G37*
G36*
X287551Y197493D02*
X288443D01*
Y197450D01*
X290100D01*
Y197408D01*
X291162D01*
Y197365D01*
X292394D01*
Y197323D01*
X293711D01*
Y197280D01*
X295495D01*
Y197238D01*
X299786D01*
Y197280D01*
X301018D01*
Y197323D01*
X301910D01*
Y197365D01*
X302717D01*
Y197408D01*
X302972D01*
Y197323D01*
X303014D01*
Y197280D01*
X303057D01*
Y197195D01*
X303099D01*
Y197110D01*
X303142D01*
Y197025D01*
X303184D01*
Y196940D01*
X303227D01*
Y196898D01*
X303269D01*
Y196813D01*
X303311D01*
Y196728D01*
X303354D01*
Y196643D01*
X303397D01*
Y196516D01*
X303439D01*
Y196431D01*
X302674D01*
Y196388D01*
X301740D01*
Y196346D01*
X300805D01*
Y196303D01*
X299531D01*
Y196261D01*
X297959D01*
Y196218D01*
X296217D01*
Y196261D01*
X293711D01*
Y196303D01*
X292139D01*
Y196346D01*
X290992D01*
Y196388D01*
X289973D01*
Y196431D01*
X289123D01*
Y196473D01*
X288104D01*
Y196516D01*
X287126D01*
Y196558D01*
X286489D01*
Y196601D01*
X286532D01*
Y196643D01*
X286574D01*
Y196728D01*
X286617D01*
Y196813D01*
X286659D01*
Y196855D01*
X286702D01*
Y196940D01*
X286744D01*
Y196983D01*
X286787D01*
Y197068D01*
X286829D01*
Y197110D01*
X286872D01*
Y197195D01*
X286914D01*
Y197238D01*
X286957D01*
Y197280D01*
X286999D01*
Y197323D01*
X287041D01*
Y197408D01*
X287084D01*
Y197450D01*
X287126D01*
Y197493D01*
X287169D01*
Y197535D01*
X287551D01*
Y197493D01*
D02*
G37*
G36*
X297152Y227186D02*
X297704D01*
Y227144D01*
X298086D01*
Y227102D01*
X298426D01*
Y227059D01*
X298724D01*
Y227017D01*
X298978D01*
Y226974D01*
X299191D01*
Y226932D01*
X299446D01*
Y226889D01*
X299658D01*
Y226847D01*
X299871D01*
Y226804D01*
X300041D01*
Y226762D01*
X300210D01*
Y226719D01*
X300380D01*
Y226677D01*
X300550D01*
Y226634D01*
X300720D01*
Y226592D01*
X300848D01*
Y226549D01*
X301018D01*
Y226507D01*
X301145D01*
Y226464D01*
X301273D01*
Y226422D01*
X301400D01*
Y226379D01*
X301527D01*
Y226337D01*
X301655D01*
Y226294D01*
X301782D01*
Y226252D01*
X301910D01*
Y226209D01*
X302037D01*
Y226167D01*
X302165D01*
Y226125D01*
X302250D01*
Y226082D01*
X302377D01*
Y226040D01*
X302504D01*
Y225997D01*
X302589D01*
Y225955D01*
X302717D01*
Y225912D01*
X302802D01*
Y225870D01*
X302887D01*
Y225827D01*
X303014D01*
Y225785D01*
X303099D01*
Y225742D01*
X303184D01*
Y225700D01*
X303311D01*
Y225657D01*
X303397D01*
Y225615D01*
X303481D01*
Y225572D01*
X303566D01*
Y225530D01*
X303651D01*
Y225487D01*
X303736D01*
Y225445D01*
X303821D01*
Y225402D01*
X303906D01*
Y225360D01*
X303991D01*
Y225317D01*
X304076D01*
Y225275D01*
X304161D01*
Y225232D01*
X304246D01*
Y225190D01*
X304331D01*
Y225148D01*
X304416D01*
Y225105D01*
X304501D01*
Y225062D01*
X304586D01*
Y225020D01*
X304671D01*
Y224977D01*
X304713D01*
Y224935D01*
X304798D01*
Y224893D01*
X304883D01*
Y224850D01*
X304968D01*
Y224808D01*
X305011D01*
Y224765D01*
X305096D01*
Y224723D01*
X305181D01*
Y224680D01*
X305223D01*
Y224638D01*
X305308D01*
Y224595D01*
X305393D01*
Y224553D01*
X305436D01*
Y224510D01*
X305521D01*
Y224468D01*
X305563D01*
Y224425D01*
X305648D01*
Y224383D01*
X305733D01*
Y224340D01*
X305775D01*
Y224298D01*
X305860D01*
Y224255D01*
X305903D01*
Y224213D01*
X305988D01*
Y224170D01*
X306030D01*
Y224128D01*
X306115D01*
Y224085D01*
X306158D01*
Y224043D01*
X306200D01*
Y224001D01*
X306285D01*
Y223958D01*
X306328D01*
Y223916D01*
X306413D01*
Y223873D01*
X306455D01*
Y223831D01*
X306498D01*
Y223788D01*
X306582D01*
Y223746D01*
X306625D01*
Y223703D01*
X306710D01*
Y223661D01*
X306752D01*
Y223618D01*
X306795D01*
Y223576D01*
X306880D01*
Y223533D01*
X306922D01*
Y223491D01*
X306965D01*
Y223448D01*
X307007D01*
Y223406D01*
X307092D01*
Y223363D01*
X307135D01*
Y223321D01*
X307177D01*
Y223278D01*
X307220D01*
Y223236D01*
X307305D01*
Y223193D01*
X307347D01*
Y223151D01*
X307390D01*
Y223108D01*
X307432D01*
Y223066D01*
X307475D01*
Y223023D01*
X307560D01*
Y222981D01*
X307602D01*
Y222938D01*
X307645D01*
Y222896D01*
X307687D01*
Y222853D01*
X307730D01*
Y222811D01*
X307772D01*
Y222769D01*
X307857D01*
Y222726D01*
X307899D01*
Y222684D01*
X307942D01*
Y222641D01*
X307984D01*
Y222599D01*
X308027D01*
Y222556D01*
X308069D01*
Y222514D01*
X308112D01*
Y222471D01*
X308154D01*
Y222429D01*
X308197D01*
Y222386D01*
X308239D01*
Y222344D01*
X308282D01*
Y222301D01*
X308324D01*
Y222259D01*
X308367D01*
Y222216D01*
X308409D01*
Y222174D01*
X308452D01*
Y222131D01*
X308494D01*
Y222089D01*
X308579D01*
Y222004D01*
X308664D01*
Y221919D01*
X308706D01*
Y221877D01*
X308749D01*
Y221834D01*
X308791D01*
Y221792D01*
X308834D01*
Y221749D01*
X308876D01*
Y221707D01*
X308919D01*
Y221664D01*
X308961D01*
Y221622D01*
X309004D01*
Y221579D01*
X309046D01*
Y221537D01*
X309089D01*
Y221494D01*
X309131D01*
Y221452D01*
X309174D01*
Y221409D01*
X309216D01*
Y221367D01*
X309259D01*
Y221282D01*
X309301D01*
Y221239D01*
X309344D01*
Y221197D01*
X309386D01*
Y221154D01*
X309429D01*
Y221112D01*
X309471D01*
Y221069D01*
X309514D01*
Y221027D01*
X309556D01*
Y220942D01*
X309599D01*
Y220899D01*
X309641D01*
Y220857D01*
X309684D01*
Y220814D01*
X309726D01*
Y220772D01*
X309769D01*
Y220687D01*
X309811D01*
Y220644D01*
X309854D01*
Y220602D01*
X309896D01*
Y220560D01*
X309939D01*
Y220475D01*
X309981D01*
Y220432D01*
X310023D01*
Y220390D01*
X310066D01*
Y220347D01*
X310108D01*
Y220262D01*
X310151D01*
Y220220D01*
X310193D01*
Y220177D01*
X310236D01*
Y220092D01*
X310278D01*
Y220050D01*
X310321D01*
Y220007D01*
X310363D01*
Y219922D01*
X310406D01*
Y219880D01*
X310448D01*
Y219837D01*
X310491D01*
Y219752D01*
X310533D01*
Y219710D01*
X310576D01*
Y219625D01*
X310618D01*
Y219583D01*
X310661D01*
Y219498D01*
X310703D01*
Y219455D01*
X310746D01*
Y219413D01*
X310788D01*
Y219328D01*
X310831D01*
Y219285D01*
X310873D01*
Y219200D01*
X310915D01*
Y219158D01*
X310958D01*
Y219073D01*
X311000D01*
Y218988D01*
X311043D01*
Y218945D01*
X311085D01*
Y218860D01*
X311128D01*
Y218818D01*
X311170D01*
Y218733D01*
X311213D01*
Y218648D01*
X311255D01*
Y218605D01*
X311298D01*
Y218520D01*
X311340D01*
Y218436D01*
X311383D01*
Y218351D01*
X311425D01*
Y218308D01*
X311468D01*
Y218223D01*
X311510D01*
Y218138D01*
X311553D01*
Y218053D01*
X311595D01*
Y218011D01*
X311638D01*
Y217926D01*
X311680D01*
Y217841D01*
X311723D01*
Y217756D01*
X311765D01*
Y217671D01*
X311808D01*
Y217586D01*
X311850D01*
Y217501D01*
X311893D01*
Y217416D01*
X311935D01*
Y217331D01*
X311978D01*
Y217246D01*
X312020D01*
Y217161D01*
X312063D01*
Y217076D01*
X312105D01*
Y216991D01*
X312147D01*
Y216906D01*
X312190D01*
Y216779D01*
X312232D01*
Y216694D01*
X312275D01*
Y216609D01*
X312317D01*
Y216481D01*
X312360D01*
Y216396D01*
X312402D01*
Y216312D01*
X312445D01*
Y216184D01*
X312487D01*
Y216099D01*
X312530D01*
Y215972D01*
X312572D01*
Y215887D01*
X312615D01*
Y215759D01*
X312657D01*
Y215632D01*
X312700D01*
Y215504D01*
X312742D01*
Y215377D01*
X312785D01*
Y215249D01*
X312827D01*
Y215122D01*
X312870D01*
Y214995D01*
X312912D01*
Y214867D01*
X312955D01*
Y214740D01*
X312997D01*
Y214570D01*
X313040D01*
Y214442D01*
X313082D01*
Y214272D01*
X313124D01*
Y214103D01*
X313167D01*
Y213933D01*
X313210D01*
Y213763D01*
X313252D01*
Y213593D01*
X313294D01*
Y213380D01*
X313337D01*
Y213168D01*
X313379D01*
Y212956D01*
X313422D01*
Y212701D01*
X313464D01*
Y212658D01*
Y212446D01*
X313507D01*
Y212191D01*
X313549D01*
Y211809D01*
X313592D01*
Y211426D01*
X313634D01*
Y210916D01*
X313677D01*
Y209812D01*
X313719D01*
Y209430D01*
X313677D01*
Y208410D01*
X313634D01*
Y207900D01*
X313592D01*
Y207518D01*
X313549D01*
Y207178D01*
X313507D01*
Y206923D01*
X313464D01*
Y206668D01*
X313422D01*
Y206414D01*
X313379D01*
Y206201D01*
X313337D01*
Y205989D01*
X313294D01*
Y205819D01*
X313252D01*
Y205606D01*
X313210D01*
Y205436D01*
X313167D01*
Y205267D01*
X313124D01*
Y205097D01*
X313082D01*
Y204969D01*
X313040D01*
Y204799D01*
X312997D01*
Y204672D01*
X312955D01*
Y204544D01*
X312912D01*
Y204375D01*
X312870D01*
Y204247D01*
X312827D01*
Y204120D01*
X312785D01*
Y203992D01*
X312742D01*
Y203865D01*
X312700D01*
Y203737D01*
X312657D01*
Y203652D01*
X312615D01*
Y203525D01*
X312572D01*
Y203397D01*
X312530D01*
Y203312D01*
X312487D01*
Y203185D01*
X312445D01*
Y203100D01*
X312402D01*
Y202973D01*
X312360D01*
Y202888D01*
X312317D01*
Y202803D01*
X312275D01*
Y202675D01*
X312232D01*
Y202590D01*
X312190D01*
Y202505D01*
X312147D01*
Y202420D01*
X312105D01*
Y202293D01*
X312063D01*
Y202208D01*
X312020D01*
Y202123D01*
X311978D01*
Y202038D01*
X311935D01*
Y201953D01*
X311893D01*
Y201868D01*
X311850D01*
Y201783D01*
X311808D01*
Y201698D01*
X311765D01*
Y201613D01*
X311723D01*
Y201528D01*
X311680D01*
Y201443D01*
X311638D01*
Y201401D01*
X311595D01*
Y201316D01*
X311553D01*
Y201231D01*
X311510D01*
Y201146D01*
X311468D01*
Y201061D01*
X311425D01*
Y201019D01*
X311383D01*
Y200934D01*
X311340D01*
Y200849D01*
X311298D01*
Y200806D01*
X311255D01*
Y200721D01*
X311213D01*
Y200636D01*
X311170D01*
Y200594D01*
X311128D01*
Y200509D01*
X311085D01*
Y200424D01*
X311043D01*
Y200381D01*
X311000D01*
Y200296D01*
X310958D01*
Y200254D01*
X310915D01*
Y200169D01*
X310873D01*
Y200127D01*
X310831D01*
Y200042D01*
X310788D01*
Y199999D01*
X310746D01*
Y199914D01*
X310703D01*
Y199872D01*
X310661D01*
Y199787D01*
X310618D01*
Y199744D01*
X310576D01*
Y199659D01*
X310533D01*
Y199617D01*
X310491D01*
Y199574D01*
X310448D01*
Y199489D01*
X310406D01*
Y199447D01*
X310363D01*
Y199362D01*
X310321D01*
Y199319D01*
X310278D01*
Y199277D01*
X310236D01*
Y199192D01*
X310193D01*
Y199149D01*
X310151D01*
Y199107D01*
X310108D01*
Y199022D01*
X310066D01*
Y198979D01*
X310023D01*
Y198937D01*
X309981D01*
Y198895D01*
X309939D01*
Y198810D01*
X309896D01*
Y198767D01*
X309854D01*
Y198725D01*
X309811D01*
Y198640D01*
X309769D01*
Y198597D01*
X309726D01*
Y198555D01*
X309684D01*
Y198512D01*
X309641D01*
Y198470D01*
X309599D01*
Y198385D01*
X309556D01*
Y198342D01*
X309514D01*
Y198300D01*
X309471D01*
Y198257D01*
X309429D01*
Y198215D01*
X309386D01*
Y198172D01*
X309344D01*
Y198087D01*
X309301D01*
Y198045D01*
X309259D01*
Y198002D01*
X309216D01*
Y197960D01*
X309174D01*
Y197917D01*
X309131D01*
Y197875D01*
X309089D01*
Y197833D01*
X309046D01*
Y197790D01*
X309004D01*
Y197748D01*
X308961D01*
Y197663D01*
X308919D01*
Y197620D01*
X308876D01*
Y197578D01*
X308834D01*
Y197535D01*
X308791D01*
Y197493D01*
X308749D01*
Y197450D01*
X308706D01*
Y197408D01*
X308664D01*
Y197365D01*
X308622D01*
Y197323D01*
X308579D01*
Y197280D01*
X308537D01*
Y197238D01*
X308494D01*
Y197195D01*
X308452D01*
Y197153D01*
X308409D01*
Y197110D01*
X308367D01*
Y197068D01*
X308324D01*
Y197025D01*
X308282D01*
Y196983D01*
X308239D01*
Y196940D01*
X308154D01*
Y196898D01*
X308112D01*
Y196855D01*
X308069D01*
Y196813D01*
X308027D01*
Y196771D01*
X307984D01*
Y196728D01*
X307942D01*
Y196686D01*
X307899D01*
Y196643D01*
X307857D01*
Y196601D01*
X307814D01*
Y196558D01*
X307772D01*
Y196516D01*
X307687D01*
Y196473D01*
X307645D01*
Y196431D01*
X307602D01*
Y196388D01*
X307560D01*
Y196346D01*
X307517D01*
Y196303D01*
X307475D01*
Y196261D01*
X307390D01*
Y196218D01*
X307347D01*
Y196176D01*
X307305D01*
Y196133D01*
X307262D01*
Y196091D01*
X307220D01*
Y196048D01*
X307135D01*
Y196006D01*
X307092D01*
Y195963D01*
X307050D01*
Y195921D01*
X307007D01*
Y195878D01*
X306922D01*
Y195836D01*
X306880D01*
Y195793D01*
X306837D01*
Y195751D01*
X306752D01*
Y195709D01*
X306710D01*
Y195666D01*
X306667D01*
Y195624D01*
X306582D01*
Y195581D01*
X306540D01*
Y195539D01*
X306498D01*
Y195496D01*
X306413D01*
Y195454D01*
X306370D01*
Y195411D01*
X306328D01*
Y195369D01*
X306243D01*
Y195326D01*
X306200D01*
Y195284D01*
X306158D01*
Y195241D01*
X306073D01*
Y195199D01*
X306030D01*
Y195156D01*
X305945D01*
Y195114D01*
X305903D01*
Y195071D01*
X305818D01*
Y195029D01*
X305775D01*
Y194986D01*
X305690D01*
Y194944D01*
X305648D01*
Y194901D01*
X305563D01*
Y194859D01*
X305521D01*
Y194816D01*
X305436D01*
Y194774D01*
X305393D01*
Y194731D01*
X305308D01*
Y194689D01*
X305223D01*
Y194647D01*
X305181D01*
Y194604D01*
X305096D01*
Y194647D01*
X305053D01*
Y194774D01*
X305011D01*
Y194901D01*
X304968D01*
Y194986D01*
X304926D01*
Y195114D01*
X304883D01*
Y195241D01*
X304841D01*
Y195326D01*
X304798D01*
Y195411D01*
X304756D01*
Y195539D01*
X304713D01*
Y195624D01*
X304671D01*
Y195709D01*
X304628D01*
Y195836D01*
X304586D01*
Y195921D01*
X304543D01*
Y196006D01*
X304501D01*
Y196091D01*
X304458D01*
Y196176D01*
X304416D01*
Y196261D01*
X304374D01*
Y196346D01*
X304331D01*
Y196431D01*
X304289D01*
Y196516D01*
X304246D01*
Y196601D01*
X304204D01*
Y196686D01*
X304161D01*
Y196771D01*
X304119D01*
Y196855D01*
X304076D01*
Y196940D01*
X304034D01*
Y197025D01*
X303991D01*
Y197110D01*
X303949D01*
Y197195D01*
X303906D01*
Y197280D01*
X303864D01*
Y197323D01*
X303821D01*
Y197408D01*
X303779D01*
Y197493D01*
X303736D01*
Y197578D01*
X303694D01*
Y197620D01*
X303651D01*
Y197705D01*
X303609D01*
Y197790D01*
X303566D01*
Y197833D01*
X303524D01*
Y197917D01*
X303481D01*
Y198002D01*
X303439D01*
Y198045D01*
X303397D01*
Y198130D01*
X303354D01*
Y198172D01*
X303311D01*
Y198257D01*
X303269D01*
Y198342D01*
X303227D01*
Y198385D01*
X303184D01*
Y198470D01*
X303142D01*
Y198512D01*
X303099D01*
Y198555D01*
X303057D01*
Y198640D01*
X303014D01*
Y198682D01*
X302972D01*
Y198767D01*
X302929D01*
Y198810D01*
X302887D01*
Y198852D01*
X302844D01*
Y198937D01*
X302802D01*
Y198979D01*
X302759D01*
Y199065D01*
X302717D01*
Y199107D01*
X302674D01*
Y199149D01*
X302632D01*
Y199192D01*
X302589D01*
Y199277D01*
X302547D01*
Y199319D01*
X302504D01*
Y199362D01*
X302462D01*
Y199404D01*
X302419D01*
Y199489D01*
X302377D01*
Y199532D01*
X302334D01*
Y199574D01*
X302292D01*
Y199617D01*
X302250D01*
Y199659D01*
X302207D01*
Y199744D01*
X302165D01*
Y199787D01*
X302122D01*
Y199829D01*
X302080D01*
Y199872D01*
X302037D01*
Y199914D01*
X301995D01*
Y199957D01*
X301952D01*
Y199999D01*
X301910D01*
Y200042D01*
X301867D01*
Y200084D01*
X301825D01*
Y200127D01*
X301782D01*
Y200169D01*
X301740D01*
Y200211D01*
X301697D01*
Y200254D01*
X301655D01*
Y200296D01*
X301612D01*
Y200339D01*
X301570D01*
Y200381D01*
X301527D01*
Y200424D01*
X301485D01*
Y200466D01*
X301442D01*
Y200509D01*
X301400D01*
Y200551D01*
X301315D01*
Y200594D01*
X301273D01*
Y200636D01*
X301230D01*
Y200679D01*
X301187D01*
Y200721D01*
X301145D01*
Y200764D01*
X301060D01*
Y200806D01*
X301018D01*
Y200849D01*
X300975D01*
Y200891D01*
X300933D01*
Y200934D01*
X300890D01*
Y200976D01*
X300805D01*
Y201019D01*
X300763D01*
Y201061D01*
X300720D01*
Y201103D01*
X300635D01*
Y201146D01*
X300593D01*
Y201188D01*
X300550D01*
Y201231D01*
X300465D01*
Y201273D01*
X300423D01*
Y201316D01*
X300338D01*
Y201358D01*
X300295D01*
Y201401D01*
X300210D01*
Y201443D01*
X300168D01*
Y201486D01*
X300083D01*
Y201528D01*
X300041D01*
Y201571D01*
X299956D01*
Y201613D01*
X299871D01*
Y201656D01*
X299828D01*
Y201698D01*
X299743D01*
Y201741D01*
X299658D01*
Y201783D01*
X299573D01*
Y201826D01*
X299488D01*
Y201868D01*
X299403D01*
Y201911D01*
X299318D01*
Y201953D01*
X299233D01*
Y201996D01*
X299148D01*
Y202038D01*
X299063D01*
Y202081D01*
X298978D01*
Y202123D01*
X298894D01*
Y202166D01*
X298809D01*
Y202208D01*
X298681D01*
Y202251D01*
X298596D01*
Y202293D01*
X298469D01*
Y202335D01*
X298384D01*
Y202378D01*
X298256D01*
Y202420D01*
X298129D01*
Y202463D01*
X298002D01*
Y202633D01*
X298044D01*
Y202803D01*
X298086D01*
Y202930D01*
X298129D01*
Y203058D01*
X298171D01*
Y203185D01*
X298214D01*
Y203312D01*
X298256D01*
Y203440D01*
X298299D01*
Y203567D01*
X298341D01*
Y203652D01*
X298384D01*
Y203780D01*
X298426D01*
Y203865D01*
X298469D01*
Y203950D01*
X298511D01*
Y204077D01*
X298554D01*
Y204162D01*
X298596D01*
Y204247D01*
X298639D01*
Y204332D01*
X298681D01*
Y204417D01*
X298724D01*
Y204502D01*
X298766D01*
Y204587D01*
X298809D01*
Y204672D01*
X298851D01*
Y204757D01*
X298894D01*
Y204842D01*
X298936D01*
Y204927D01*
X298978D01*
Y204969D01*
X299021D01*
Y205054D01*
X299063D01*
Y205139D01*
X299106D01*
Y205224D01*
X299148D01*
Y205267D01*
X299191D01*
Y205352D01*
X299233D01*
Y205394D01*
X299276D01*
Y205479D01*
X299318D01*
Y205521D01*
X299361D01*
Y205606D01*
X299403D01*
Y205649D01*
X299446D01*
Y205734D01*
X299488D01*
Y205776D01*
X299531D01*
Y205819D01*
X299573D01*
Y205904D01*
X299616D01*
Y205946D01*
X299658D01*
Y205989D01*
X299701D01*
Y206074D01*
X299743D01*
Y206116D01*
X299786D01*
Y206159D01*
X299828D01*
Y206201D01*
X299871D01*
Y206244D01*
X299913D01*
Y206286D01*
X299956D01*
Y206371D01*
X299998D01*
Y206414D01*
X300041D01*
Y206456D01*
X300083D01*
Y206499D01*
X300126D01*
Y206541D01*
X300168D01*
Y206583D01*
X300210D01*
Y206626D01*
X300253D01*
Y206668D01*
X300295D01*
Y206711D01*
X300338D01*
Y206753D01*
X300380D01*
Y206796D01*
X300423D01*
Y206838D01*
X300465D01*
Y206881D01*
X300508D01*
Y206923D01*
X300550D01*
Y206966D01*
X300593D01*
Y207008D01*
X300635D01*
Y207051D01*
X300678D01*
Y207093D01*
X300720D01*
Y207136D01*
X300763D01*
Y207178D01*
X300805D01*
Y207221D01*
X300848D01*
Y207263D01*
X300890D01*
Y207306D01*
X300933D01*
Y207348D01*
X300975D01*
Y207391D01*
X301018D01*
Y207476D01*
X301060D01*
Y207518D01*
X301102D01*
Y207561D01*
X301145D01*
Y207603D01*
X301187D01*
Y207943D01*
X301230D01*
Y208028D01*
X301273D01*
Y208070D01*
X301315D01*
Y208155D01*
X301357D01*
Y208198D01*
X301400D01*
Y208283D01*
X301442D01*
Y208325D01*
X301485D01*
Y208410D01*
X301527D01*
Y208453D01*
X301570D01*
Y208538D01*
X301612D01*
Y208623D01*
X301655D01*
Y208707D01*
X301697D01*
Y208750D01*
X301740D01*
Y208835D01*
X301782D01*
Y208920D01*
X301825D01*
Y209005D01*
X301867D01*
Y209090D01*
X301910D01*
Y209175D01*
X301952D01*
Y209302D01*
X301995D01*
Y209387D01*
X302037D01*
Y209472D01*
X302080D01*
Y209600D01*
X302122D01*
Y209727D01*
X302165D01*
Y209855D01*
X302207D01*
Y210024D01*
X302250D01*
Y210322D01*
X302334D01*
Y210364D01*
X302419D01*
Y210407D01*
X302462D01*
Y210449D01*
X302547D01*
Y210492D01*
X302589D01*
Y210534D01*
X302674D01*
Y210577D01*
X302717D01*
Y210619D01*
X302759D01*
Y210662D01*
X302802D01*
Y210704D01*
X302844D01*
Y210747D01*
X302887D01*
Y210831D01*
X302929D01*
Y210874D01*
X302972D01*
Y210959D01*
X303014D01*
Y211001D01*
X303057D01*
Y211086D01*
X303099D01*
Y211171D01*
X303142D01*
Y211299D01*
X303184D01*
Y211426D01*
X303227D01*
Y211681D01*
X303269D01*
Y211894D01*
X303227D01*
Y212148D01*
X303184D01*
Y212318D01*
X303142D01*
Y212403D01*
X303099D01*
Y212488D01*
X303057D01*
Y212573D01*
X303014D01*
Y212616D01*
X302972D01*
Y212658D01*
X302929D01*
Y212871D01*
X302972D01*
Y213210D01*
X303014D01*
Y213678D01*
X303057D01*
Y213975D01*
X303142D01*
Y214018D01*
X303227D01*
Y214060D01*
X303311D01*
Y214103D01*
X303397D01*
Y214145D01*
X303481D01*
Y214188D01*
X303524D01*
Y214230D01*
X303566D01*
Y214272D01*
X303651D01*
Y214315D01*
X303694D01*
Y214357D01*
X303736D01*
Y214400D01*
X303779D01*
Y214442D01*
X303821D01*
Y214485D01*
X303864D01*
Y214527D01*
X303906D01*
Y214570D01*
X303949D01*
Y214612D01*
X303991D01*
Y214697D01*
X304034D01*
Y214740D01*
X304076D01*
Y214825D01*
X304119D01*
Y214910D01*
X304161D01*
Y214995D01*
X304204D01*
Y215122D01*
X304246D01*
Y215292D01*
X304289D01*
Y215844D01*
X304246D01*
Y216014D01*
X304204D01*
Y216142D01*
X304161D01*
Y216227D01*
X304119D01*
Y216312D01*
X304076D01*
Y216396D01*
X304034D01*
Y216439D01*
X303991D01*
Y216524D01*
X303949D01*
Y216566D01*
X303906D01*
Y216609D01*
X303864D01*
Y216651D01*
X303821D01*
Y216736D01*
X303864D01*
Y216821D01*
X303906D01*
Y216864D01*
X303949D01*
Y216949D01*
X303991D01*
Y216991D01*
X304034D01*
Y217076D01*
X304076D01*
Y217161D01*
X304119D01*
Y217289D01*
X304161D01*
Y217416D01*
X304204D01*
Y217544D01*
X304246D01*
Y217798D01*
X304289D01*
Y218266D01*
X304246D01*
Y218478D01*
X304204D01*
Y218648D01*
X304161D01*
Y218733D01*
X304119D01*
Y218818D01*
X304076D01*
Y218903D01*
X304034D01*
Y218945D01*
X303991D01*
Y219030D01*
X303949D01*
Y219073D01*
X303906D01*
Y219115D01*
X303864D01*
Y219158D01*
X303821D01*
Y219200D01*
X303779D01*
Y219243D01*
X303694D01*
Y219285D01*
X303651D01*
Y219328D01*
X303566D01*
Y219370D01*
X303481D01*
Y219413D01*
X303397D01*
Y219455D01*
X303311D01*
Y219498D01*
X303227D01*
Y219625D01*
X303269D01*
Y220390D01*
X303227D01*
Y220602D01*
X303184D01*
Y220729D01*
X303142D01*
Y220814D01*
X303099D01*
Y220899D01*
X303057D01*
Y220984D01*
X303014D01*
Y221069D01*
X302972D01*
Y221112D01*
X302929D01*
Y221197D01*
X302887D01*
Y221239D01*
X302844D01*
Y221282D01*
X302802D01*
Y221324D01*
X302759D01*
Y221367D01*
X302717D01*
Y221409D01*
X302674D01*
Y221452D01*
X302632D01*
Y221494D01*
X302547D01*
Y221537D01*
X302504D01*
Y221579D01*
X302419D01*
Y221622D01*
X302377D01*
Y221664D01*
X302292D01*
Y221707D01*
X302207D01*
Y221749D01*
X302080D01*
Y221792D01*
X301952D01*
Y221834D01*
X301740D01*
Y221877D01*
X301102D01*
Y221834D01*
X300933D01*
Y221792D01*
X300805D01*
Y222004D01*
X300763D01*
Y222131D01*
X300720D01*
Y222216D01*
X300678D01*
Y222259D01*
X300635D01*
Y222301D01*
X300593D01*
Y222344D01*
X300550D01*
Y222386D01*
X300508D01*
Y222429D01*
X300465D01*
Y222471D01*
X300380D01*
Y222514D01*
X300338D01*
Y222556D01*
X300253D01*
Y222599D01*
X300126D01*
Y222641D01*
X299956D01*
Y222684D01*
X299786D01*
Y222726D01*
X298978D01*
Y222684D01*
X298639D01*
Y222641D01*
X298426D01*
Y222599D01*
X298214D01*
Y222556D01*
X298044D01*
Y222514D01*
X297874D01*
Y222471D01*
X297747D01*
Y222429D01*
X297619D01*
Y222386D01*
X297492D01*
Y222344D01*
X297407D01*
Y222301D01*
X297279D01*
Y222386D01*
X297237D01*
Y222471D01*
X297194D01*
Y222556D01*
X297152D01*
Y222599D01*
X297109D01*
Y222641D01*
X297067D01*
Y222684D01*
X297024D01*
Y222726D01*
X296982D01*
Y222769D01*
X296939D01*
Y222811D01*
X296897D01*
Y222853D01*
X296812D01*
Y222896D01*
X296769D01*
Y222938D01*
X296685D01*
Y222981D01*
X296600D01*
Y223023D01*
X296515D01*
Y223066D01*
X296430D01*
Y223108D01*
X296302D01*
Y223151D01*
X296175D01*
Y223193D01*
X295962D01*
Y223236D01*
X295283D01*
Y223193D01*
X295070D01*
Y223151D01*
X294900D01*
Y223108D01*
X294730D01*
Y223066D01*
X294603D01*
Y223023D01*
X294518D01*
Y222981D01*
X294433D01*
Y222938D01*
X294306D01*
Y222896D01*
X294221D01*
Y222853D01*
X294136D01*
Y222811D01*
X294093D01*
Y222769D01*
X294008D01*
Y222726D01*
X293966D01*
Y222684D01*
X293881D01*
Y222641D01*
X293796D01*
Y222599D01*
X293753D01*
Y222556D01*
X293711D01*
Y222514D01*
X293669D01*
Y222471D01*
X293583D01*
Y222429D01*
X293541D01*
Y222386D01*
X293498D01*
Y222344D01*
X293456D01*
Y222301D01*
X293414D01*
Y222259D01*
X293371D01*
Y222216D01*
X293329D01*
Y222174D01*
X293286D01*
Y222131D01*
X293244D01*
Y222089D01*
X293201D01*
Y222004D01*
X293159D01*
Y221961D01*
X293116D01*
Y221919D01*
X293074D01*
Y221961D01*
X293031D01*
Y222004D01*
X292989D01*
Y222046D01*
X292904D01*
Y222089D01*
X292861D01*
Y222131D01*
X292776D01*
Y222174D01*
X292734D01*
Y222216D01*
X292649D01*
Y222259D01*
X292564D01*
Y222301D01*
X292437D01*
Y222344D01*
X292309D01*
Y222386D01*
X292097D01*
Y222429D01*
X291459D01*
Y222386D01*
X291247D01*
Y222344D01*
X291120D01*
Y222301D01*
X290992D01*
Y222259D01*
X290865D01*
Y222216D01*
X290780D01*
Y222174D01*
X290695D01*
Y222131D01*
X290610D01*
Y222089D01*
X290567D01*
Y222046D01*
X290482D01*
Y222004D01*
X290440D01*
Y221961D01*
X290355D01*
Y221919D01*
X290313D01*
Y221877D01*
X290270D01*
Y221834D01*
X290185D01*
Y221792D01*
X290143D01*
Y221749D01*
X290100D01*
Y221707D01*
X290058D01*
Y221664D01*
X290015D01*
Y221622D01*
X289973D01*
Y221579D01*
X289930D01*
Y221537D01*
X289888D01*
Y221494D01*
X289845D01*
Y221452D01*
X289803D01*
Y221409D01*
X289760D01*
Y221324D01*
X289718D01*
Y221282D01*
X289675D01*
Y221239D01*
X289633D01*
Y221154D01*
X289590D01*
Y221112D01*
X289548D01*
Y221027D01*
X289505D01*
Y220942D01*
X289378D01*
Y220984D01*
X289250D01*
Y221027D01*
X288783D01*
Y220984D01*
X288613D01*
Y220942D01*
X288486D01*
Y220899D01*
X288401D01*
Y220857D01*
X288316D01*
Y220814D01*
X288231D01*
Y220772D01*
X288146D01*
Y220729D01*
X288104D01*
Y220687D01*
X288061D01*
Y220644D01*
X287976D01*
Y220602D01*
X287934D01*
Y220560D01*
X287891D01*
Y220517D01*
X287849D01*
Y220475D01*
X287806D01*
Y220432D01*
X287764D01*
Y220390D01*
X287721D01*
Y220305D01*
X287679D01*
Y220262D01*
X287636D01*
Y220220D01*
X287594D01*
Y220135D01*
X287551D01*
Y220092D01*
X287509D01*
Y220007D01*
X287466D01*
Y219922D01*
X287424D01*
Y219837D01*
X287381D01*
Y219710D01*
X287339D01*
Y219583D01*
X287296D01*
Y219455D01*
X287254D01*
Y219243D01*
X287211D01*
Y218690D01*
X287169D01*
Y218648D01*
X286999D01*
Y218605D01*
X286914D01*
Y218563D01*
X286829D01*
Y218520D01*
X286744D01*
Y218478D01*
X286659D01*
Y218436D01*
X286617D01*
Y218393D01*
X286574D01*
Y218351D01*
X286532D01*
Y218308D01*
X286489D01*
Y218266D01*
X286447D01*
Y218223D01*
X286404D01*
Y218181D01*
X286362D01*
Y218096D01*
X286319D01*
Y218011D01*
X286277D01*
Y217926D01*
X286234D01*
Y217798D01*
X286192D01*
Y217204D01*
X286234D01*
Y217034D01*
X286277D01*
Y216906D01*
X286319D01*
Y216779D01*
X286362D01*
Y216694D01*
X286404D01*
Y216609D01*
X286447D01*
Y216566D01*
X286489D01*
Y216481D01*
X286532D01*
Y216439D01*
X286574D01*
Y216396D01*
X286617D01*
Y216354D01*
X286659D01*
Y216312D01*
X286702D01*
Y216269D01*
X286744D01*
Y216227D01*
X286787D01*
Y216184D01*
X286872D01*
Y216142D01*
X286914D01*
Y216099D01*
X286999D01*
Y216057D01*
X287041D01*
Y215335D01*
X287084D01*
Y214697D01*
X287126D01*
Y214145D01*
X287169D01*
Y213805D01*
X287126D01*
Y213678D01*
X287084D01*
Y213593D01*
X287041D01*
Y213380D01*
X286999D01*
Y212786D01*
X286957D01*
Y212743D01*
X286999D01*
Y211936D01*
X287041D01*
Y211596D01*
X287084D01*
Y211299D01*
X287126D01*
Y211086D01*
X287169D01*
Y210874D01*
X287211D01*
Y210704D01*
X287254D01*
Y210534D01*
X287296D01*
Y210364D01*
X287339D01*
Y210237D01*
X287381D01*
Y210067D01*
X287424D01*
Y209939D01*
X287466D01*
Y209855D01*
X287509D01*
Y209727D01*
X287551D01*
Y209600D01*
X287594D01*
Y209515D01*
X287636D01*
Y209430D01*
X287679D01*
Y209345D01*
X287721D01*
Y209217D01*
X287764D01*
Y209132D01*
X287806D01*
Y209047D01*
X287849D01*
Y208962D01*
X287891D01*
Y208877D01*
X287934D01*
Y208792D01*
X287976D01*
Y208750D01*
X288019D01*
Y208665D01*
X288061D01*
Y208580D01*
X288104D01*
Y208495D01*
X288146D01*
Y208453D01*
X288189D01*
Y208368D01*
X288231D01*
Y208283D01*
X288273D01*
Y208240D01*
X288316D01*
Y208155D01*
X288358D01*
Y208113D01*
X288401D01*
Y208070D01*
X288443D01*
Y207985D01*
X288486D01*
Y207943D01*
X288528D01*
Y207858D01*
X288571D01*
Y207815D01*
X288613D01*
Y207773D01*
X288656D01*
Y207731D01*
X288698D01*
Y207646D01*
X288741D01*
Y207603D01*
X288783D01*
Y207561D01*
X288826D01*
Y207518D01*
X288868D01*
Y207433D01*
X288911D01*
Y207391D01*
X288953D01*
Y207348D01*
X288996D01*
Y207306D01*
X289038D01*
Y207263D01*
X289081D01*
Y207221D01*
X289123D01*
Y207136D01*
X289165D01*
Y207093D01*
X289208D01*
Y207051D01*
X289250D01*
Y207008D01*
X289293D01*
Y206966D01*
X289335D01*
Y206923D01*
X289378D01*
Y206881D01*
X289420D01*
Y206838D01*
X289463D01*
Y206796D01*
X289505D01*
Y206753D01*
X289548D01*
Y206711D01*
X289590D01*
Y206668D01*
X289633D01*
Y206626D01*
X289675D01*
Y206583D01*
X289718D01*
Y206541D01*
X289760D01*
Y206499D01*
X289803D01*
Y206456D01*
X289845D01*
Y206414D01*
X289888D01*
Y206371D01*
X289930D01*
Y206329D01*
X289973D01*
Y206286D01*
X290015D01*
Y206244D01*
X290058D01*
Y206201D01*
X290100D01*
Y206159D01*
X290143D01*
Y206116D01*
X290185D01*
Y206074D01*
X290228D01*
Y206031D01*
X290270D01*
Y205989D01*
X290313D01*
Y205946D01*
X290355D01*
Y205904D01*
X290398D01*
Y205861D01*
X290440D01*
Y205819D01*
X290482D01*
Y205776D01*
X290525D01*
Y205734D01*
X290567D01*
Y205691D01*
X290610D01*
Y205649D01*
X290652D01*
Y205606D01*
X290695D01*
Y205564D01*
X290737D01*
Y205521D01*
X290780D01*
Y205479D01*
X290822D01*
Y205436D01*
X290865D01*
Y205394D01*
X290907D01*
Y205309D01*
X290950D01*
Y205267D01*
X290992D01*
Y205224D01*
X291035D01*
Y205182D01*
X291077D01*
Y205139D01*
X291120D01*
Y205097D01*
X291162D01*
Y205054D01*
X291205D01*
Y205012D01*
X291247D01*
Y204927D01*
X291290D01*
Y204884D01*
X291332D01*
Y204842D01*
X291374D01*
Y204799D01*
X291417D01*
Y204757D01*
X291459D01*
Y204672D01*
X291502D01*
Y204629D01*
X291544D01*
Y204587D01*
X291587D01*
Y204502D01*
X291629D01*
Y204460D01*
X291672D01*
Y204375D01*
X291714D01*
Y204332D01*
X291757D01*
Y204247D01*
X291799D01*
Y204205D01*
X291842D01*
Y204120D01*
X291884D01*
Y204035D01*
X291927D01*
Y203950D01*
X291969D01*
Y203907D01*
X292012D01*
Y203780D01*
X292054D01*
Y203695D01*
X292097D01*
Y203610D01*
X292139D01*
Y203482D01*
X292182D01*
Y203355D01*
X292224D01*
Y203227D01*
X292267D01*
Y203058D01*
X292309D01*
Y202803D01*
X292352D01*
Y202251D01*
X292224D01*
Y202208D01*
X292139D01*
Y202166D01*
X292012D01*
Y202123D01*
X291927D01*
Y202081D01*
X291842D01*
Y202038D01*
X291714D01*
Y201996D01*
X291629D01*
Y201953D01*
X291544D01*
Y201911D01*
X291417D01*
Y201868D01*
X291332D01*
Y201826D01*
X291247D01*
Y201783D01*
X291162D01*
Y201741D01*
X291077D01*
Y201698D01*
X290992D01*
Y201656D01*
X290907D01*
Y201613D01*
X290822D01*
Y201571D01*
X290737D01*
Y201528D01*
X290695D01*
Y201486D01*
X290610D01*
Y201443D01*
X290525D01*
Y201401D01*
X290440D01*
Y201358D01*
X290355D01*
Y201316D01*
X290270D01*
Y201273D01*
X290228D01*
Y201231D01*
X290143D01*
Y201188D01*
X290058D01*
Y201146D01*
X289973D01*
Y201103D01*
X289930D01*
Y201061D01*
X289845D01*
Y201019D01*
X289760D01*
Y200976D01*
X289675D01*
Y200934D01*
X289633D01*
Y200891D01*
X289548D01*
Y200849D01*
X289505D01*
Y200806D01*
X289420D01*
Y200764D01*
X289378D01*
Y200721D01*
X289293D01*
Y200679D01*
X289250D01*
Y200636D01*
X289208D01*
Y200594D01*
X289123D01*
Y200551D01*
X289081D01*
Y200509D01*
X289038D01*
Y200466D01*
X288996D01*
Y200424D01*
X288911D01*
Y200381D01*
X288868D01*
Y200339D01*
X288826D01*
Y200296D01*
X288783D01*
Y200254D01*
X288741D01*
Y200211D01*
X288698D01*
Y200169D01*
X288613D01*
Y200127D01*
X288571D01*
Y200084D01*
X288528D01*
Y200042D01*
X288486D01*
Y199999D01*
X288443D01*
Y199957D01*
X288401D01*
Y199914D01*
X288358D01*
Y199872D01*
X288316D01*
Y199829D01*
X288231D01*
Y199787D01*
X288189D01*
Y199744D01*
X288146D01*
Y199702D01*
X288104D01*
Y199659D01*
X288061D01*
Y199617D01*
X288019D01*
Y199574D01*
X287976D01*
Y199532D01*
X287934D01*
Y199489D01*
X287891D01*
Y199447D01*
X287849D01*
Y199404D01*
X287806D01*
Y199362D01*
X287764D01*
Y199319D01*
X287721D01*
Y199277D01*
X287679D01*
Y199234D01*
X287636D01*
Y199149D01*
X287594D01*
Y199107D01*
X287551D01*
Y199065D01*
X287509D01*
Y199022D01*
X287466D01*
Y198979D01*
X287424D01*
Y198937D01*
X287381D01*
Y198895D01*
X287339D01*
Y198852D01*
X287296D01*
Y198767D01*
X287254D01*
Y198725D01*
X287211D01*
Y198682D01*
X287169D01*
Y198640D01*
X287126D01*
Y198597D01*
X287084D01*
Y198555D01*
X287041D01*
Y198470D01*
X286999D01*
Y198427D01*
X286957D01*
Y198385D01*
X286914D01*
Y198342D01*
X286872D01*
Y198257D01*
X286829D01*
Y198215D01*
X286787D01*
Y198172D01*
X286744D01*
Y198087D01*
X286702D01*
Y198045D01*
X286659D01*
Y198002D01*
X286617D01*
Y197917D01*
X286574D01*
Y197875D01*
X286532D01*
Y197790D01*
X286489D01*
Y197748D01*
X286447D01*
Y197705D01*
X286404D01*
Y197620D01*
X286362D01*
Y197578D01*
X286319D01*
Y197493D01*
X286277D01*
Y197450D01*
X286234D01*
Y197365D01*
X286192D01*
Y197323D01*
X286149D01*
Y197238D01*
X286107D01*
Y197153D01*
X286064D01*
Y197110D01*
X286022D01*
Y197025D01*
X285980D01*
Y196983D01*
X285937D01*
Y196898D01*
X285894D01*
Y196813D01*
X285852D01*
Y196771D01*
X285810D01*
Y196686D01*
X285767D01*
Y196601D01*
X285725D01*
Y196516D01*
X285682D01*
Y196431D01*
X285640D01*
Y196388D01*
X285597D01*
Y196303D01*
X285555D01*
Y196218D01*
X285512D01*
Y196133D01*
X285470D01*
Y196048D01*
X285427D01*
Y195963D01*
X285385D01*
Y195878D01*
X285342D01*
Y195793D01*
X285300D01*
Y195666D01*
X285257D01*
Y195581D01*
X285215D01*
Y195496D01*
X285172D01*
Y195411D01*
X285130D01*
Y195454D01*
X285045D01*
Y195496D01*
X285002D01*
Y195539D01*
X284960D01*
Y195581D01*
X284875D01*
Y195624D01*
X284833D01*
Y195666D01*
X284790D01*
Y195709D01*
X284705D01*
Y195751D01*
X284663D01*
Y195793D01*
X284620D01*
Y195836D01*
X284578D01*
Y195878D01*
X284493D01*
Y195921D01*
X284450D01*
Y195963D01*
X284408D01*
Y196006D01*
X284365D01*
Y196048D01*
X284280D01*
Y196091D01*
X284238D01*
Y196133D01*
X284195D01*
Y196176D01*
X284153D01*
Y196218D01*
X284068D01*
Y196261D01*
X284025D01*
Y196303D01*
X283983D01*
Y196346D01*
X283940D01*
Y196388D01*
X283898D01*
Y196431D01*
X283856D01*
Y196473D01*
X283813D01*
Y196516D01*
X283728D01*
Y196558D01*
X283686D01*
Y196601D01*
X283643D01*
Y196643D01*
X283601D01*
Y196686D01*
X283558D01*
Y196728D01*
X283516D01*
Y196771D01*
X283473D01*
Y196813D01*
X283431D01*
Y196855D01*
X283388D01*
Y196898D01*
X283346D01*
Y196940D01*
X283303D01*
Y196983D01*
X283218D01*
Y197025D01*
X283176D01*
Y197068D01*
X283133D01*
Y197110D01*
X283091D01*
Y197153D01*
X283048D01*
Y197195D01*
X283006D01*
Y197238D01*
X282963D01*
Y197280D01*
X282921D01*
Y197323D01*
X282878D01*
Y197365D01*
X282836D01*
Y197408D01*
X282793D01*
Y197450D01*
X282751D01*
Y197493D01*
X282709D01*
Y197535D01*
X282666D01*
Y197620D01*
X282624D01*
Y197663D01*
X282581D01*
Y197705D01*
X282539D01*
Y197748D01*
X282496D01*
Y197790D01*
X282454D01*
Y197833D01*
X282411D01*
Y197875D01*
X282369D01*
Y197917D01*
X282326D01*
Y197960D01*
X282284D01*
Y198002D01*
X282241D01*
Y198045D01*
X282199D01*
Y198130D01*
X282156D01*
Y198172D01*
X282114D01*
Y198215D01*
X282071D01*
Y198257D01*
X282029D01*
Y198300D01*
X281986D01*
Y198385D01*
X281944D01*
Y198427D01*
X281901D01*
Y198470D01*
X281859D01*
Y198512D01*
X281816D01*
Y198555D01*
X281774D01*
Y198640D01*
X281731D01*
Y198682D01*
X281689D01*
Y198725D01*
X281646D01*
Y198767D01*
X281604D01*
Y198852D01*
X281561D01*
Y198895D01*
X281519D01*
Y198937D01*
X281477D01*
Y199022D01*
X281434D01*
Y199065D01*
X281392D01*
Y199107D01*
X281349D01*
Y199192D01*
X281307D01*
Y199234D01*
X281264D01*
Y199277D01*
X281222D01*
Y199362D01*
X281179D01*
Y199404D01*
X281137D01*
Y199447D01*
X281094D01*
Y199532D01*
X281052D01*
Y199574D01*
X281009D01*
Y199659D01*
X280967D01*
Y199702D01*
X280924D01*
Y199787D01*
X280882D01*
Y199829D01*
X280839D01*
Y199914D01*
X280797D01*
Y199957D01*
X280754D01*
Y199999D01*
X280712D01*
Y200084D01*
X280669D01*
Y200169D01*
X280627D01*
Y200211D01*
X280585D01*
Y200296D01*
X280542D01*
Y200339D01*
X280500D01*
Y200424D01*
X280457D01*
Y200466D01*
X280415D01*
Y200551D01*
X280372D01*
Y200636D01*
X280330D01*
Y200679D01*
X280287D01*
Y200764D01*
X280245D01*
Y200849D01*
X280202D01*
Y200891D01*
X280160D01*
Y200976D01*
X280117D01*
Y201061D01*
X280075D01*
Y201146D01*
X280032D01*
Y201231D01*
X279990D01*
Y201273D01*
X279947D01*
Y201358D01*
X279905D01*
Y201443D01*
X279862D01*
Y201528D01*
X279820D01*
Y201613D01*
X279777D01*
Y201698D01*
X279735D01*
Y201783D01*
X279692D01*
Y201868D01*
X279650D01*
Y201953D01*
X279607D01*
Y202038D01*
X279565D01*
Y202123D01*
X279522D01*
Y202208D01*
X279480D01*
Y202293D01*
X279437D01*
Y202378D01*
X279395D01*
Y202463D01*
X279352D01*
Y202590D01*
X279310D01*
Y202675D01*
X279268D01*
Y202760D01*
X279225D01*
Y202888D01*
X279183D01*
Y202973D01*
X279140D01*
Y203058D01*
X279098D01*
Y203185D01*
X279055D01*
Y203270D01*
X279013D01*
Y203397D01*
X278970D01*
Y203525D01*
X278928D01*
Y203610D01*
X278885D01*
Y203737D01*
X278843D01*
Y203865D01*
X278800D01*
Y203992D01*
X278758D01*
Y204120D01*
X278715D01*
Y204247D01*
X278673D01*
Y204375D01*
X278630D01*
Y204502D01*
X278588D01*
Y204629D01*
X278545D01*
Y204799D01*
X278503D01*
Y204927D01*
X278460D01*
Y205097D01*
X278418D01*
Y205224D01*
X278376D01*
Y205394D01*
X278333D01*
Y205606D01*
X278291D01*
Y205776D01*
X278248D01*
Y205989D01*
X278206D01*
Y206201D01*
X278163D01*
Y206414D01*
X278121D01*
Y206626D01*
X278078D01*
Y206881D01*
X278036D01*
Y207178D01*
X277993D01*
Y207518D01*
X277951D01*
Y207858D01*
X277908D01*
Y208325D01*
X277866D01*
Y208962D01*
X277823D01*
Y210492D01*
X277866D01*
Y211214D01*
X277908D01*
Y211639D01*
X277951D01*
Y212021D01*
X277993D01*
Y212318D01*
X278036D01*
Y212616D01*
X278078D01*
Y212828D01*
X278121D01*
Y213083D01*
X278163D01*
Y213295D01*
X278206D01*
Y213465D01*
X278248D01*
Y213678D01*
X278291D01*
Y213848D01*
X278333D01*
Y214018D01*
X278376D01*
Y214188D01*
X278418D01*
Y214315D01*
X278460D01*
Y214485D01*
X278503D01*
Y214612D01*
X278545D01*
Y214782D01*
X278588D01*
Y214910D01*
X278630D01*
Y215037D01*
X278673D01*
Y215165D01*
X278715D01*
Y215292D01*
X278758D01*
Y215419D01*
X278800D01*
Y215547D01*
X278843D01*
Y215674D01*
X278885D01*
Y215759D01*
X278928D01*
Y215887D01*
X278970D01*
Y216014D01*
X279013D01*
Y216099D01*
X279055D01*
Y216227D01*
X279098D01*
Y216312D01*
X279140D01*
Y216439D01*
X279183D01*
Y216524D01*
X279225D01*
Y216609D01*
X279268D01*
Y216694D01*
X279310D01*
Y216821D01*
X279352D01*
Y216906D01*
X279395D01*
Y216991D01*
X279437D01*
Y217076D01*
X279480D01*
Y217161D01*
X279522D01*
Y217246D01*
X279565D01*
Y217331D01*
X279607D01*
Y217459D01*
X279650D01*
Y217544D01*
X279692D01*
Y217628D01*
X279735D01*
Y217671D01*
X279777D01*
Y217756D01*
X279820D01*
Y217841D01*
X279862D01*
Y217926D01*
X279905D01*
Y218011D01*
X279947D01*
Y218096D01*
X279990D01*
Y218181D01*
X280032D01*
Y218223D01*
X280075D01*
Y218308D01*
X280117D01*
Y218393D01*
X280160D01*
Y218478D01*
X280202D01*
Y218520D01*
X280245D01*
Y218605D01*
X280287D01*
Y218690D01*
X280330D01*
Y218733D01*
X280372D01*
Y218818D01*
X280415D01*
Y218903D01*
X280457D01*
Y218945D01*
X280500D01*
Y219030D01*
X280542D01*
Y219073D01*
X280585D01*
Y219158D01*
X280627D01*
Y219200D01*
X280669D01*
Y219285D01*
X280712D01*
Y219370D01*
X280754D01*
Y219413D01*
X280797D01*
Y219498D01*
X280839D01*
Y219540D01*
X280882D01*
Y219625D01*
X280924D01*
Y219668D01*
X280967D01*
Y219710D01*
X281009D01*
Y219795D01*
X281052D01*
Y219837D01*
X281094D01*
Y219922D01*
X281137D01*
Y219965D01*
X281179D01*
Y220007D01*
X281222D01*
Y220092D01*
X281264D01*
Y220135D01*
X281307D01*
Y220177D01*
X281349D01*
Y220262D01*
X281392D01*
Y220305D01*
X281434D01*
Y220347D01*
X281477D01*
Y220432D01*
X281519D01*
Y220475D01*
X281561D01*
Y220517D01*
X281604D01*
Y220560D01*
X281646D01*
Y220644D01*
X281689D01*
Y220687D01*
X281731D01*
Y220729D01*
X281774D01*
Y220772D01*
X281816D01*
Y220814D01*
X281859D01*
Y220899D01*
X281901D01*
Y220942D01*
X281944D01*
Y220984D01*
X281986D01*
Y221027D01*
X282029D01*
Y221069D01*
X282071D01*
Y221154D01*
X282114D01*
Y221197D01*
X282156D01*
Y221239D01*
X282199D01*
Y221282D01*
X282241D01*
Y221324D01*
X282284D01*
Y221367D01*
X282326D01*
Y221409D01*
X282369D01*
Y221452D01*
X282411D01*
Y221494D01*
X282454D01*
Y221579D01*
X282496D01*
Y221622D01*
X282539D01*
Y221664D01*
X282581D01*
Y221707D01*
X282624D01*
Y221749D01*
X282666D01*
Y221792D01*
X282709D01*
Y221834D01*
X282751D01*
Y221877D01*
X282793D01*
Y221919D01*
X282836D01*
Y221961D01*
X282878D01*
Y222004D01*
X282921D01*
Y222046D01*
X282963D01*
Y222089D01*
X283006D01*
Y222131D01*
X283048D01*
Y222174D01*
X283091D01*
Y222216D01*
X283133D01*
Y222259D01*
X283176D01*
Y222301D01*
X283218D01*
Y222344D01*
X283261D01*
Y222386D01*
X283303D01*
Y222429D01*
X283346D01*
Y222471D01*
X283388D01*
Y222514D01*
X283473D01*
Y222556D01*
X283516D01*
Y222599D01*
X283558D01*
Y222641D01*
X283601D01*
Y222684D01*
X283643D01*
Y222726D01*
X283686D01*
Y222769D01*
X283728D01*
Y222811D01*
X283770D01*
Y222853D01*
X283856D01*
Y222896D01*
X283898D01*
Y222938D01*
X283940D01*
Y222981D01*
X283983D01*
Y223023D01*
X284025D01*
Y223066D01*
X284068D01*
Y223108D01*
X284153D01*
Y223151D01*
X284195D01*
Y223193D01*
X284238D01*
Y223236D01*
X284280D01*
Y223278D01*
X284365D01*
Y223321D01*
X284408D01*
Y223363D01*
X284450D01*
Y223406D01*
X284493D01*
Y223448D01*
X284578D01*
Y223491D01*
X284620D01*
Y223533D01*
X284663D01*
Y223576D01*
X284748D01*
Y223618D01*
X284790D01*
Y223661D01*
X284833D01*
Y223703D01*
X284875D01*
Y223746D01*
X284960D01*
Y223788D01*
X285002D01*
Y223831D01*
X285087D01*
Y223873D01*
X285130D01*
Y223916D01*
X285172D01*
Y223958D01*
X285257D01*
Y224001D01*
X285300D01*
Y224043D01*
X285385D01*
Y224085D01*
X285427D01*
Y224128D01*
X285470D01*
Y224170D01*
X285555D01*
Y224213D01*
X285640D01*
Y224255D01*
X285682D01*
Y224298D01*
X285767D01*
Y224340D01*
X285810D01*
Y224383D01*
X285894D01*
Y224425D01*
X285937D01*
Y224468D01*
X286022D01*
Y224510D01*
X286064D01*
Y224553D01*
X286149D01*
Y224595D01*
X286234D01*
Y224638D01*
X286277D01*
Y224680D01*
X286362D01*
Y224723D01*
X286404D01*
Y224765D01*
X286489D01*
Y224808D01*
X286574D01*
Y224850D01*
X286659D01*
Y224893D01*
X286702D01*
Y224935D01*
X286787D01*
Y224977D01*
X286872D01*
Y225020D01*
X286957D01*
Y225062D01*
X287041D01*
Y225105D01*
X287126D01*
Y225148D01*
X287169D01*
Y225190D01*
X287254D01*
Y225232D01*
X287339D01*
Y225275D01*
X287424D01*
Y225317D01*
X287509D01*
Y225360D01*
X287594D01*
Y225402D01*
X287679D01*
Y225445D01*
X287764D01*
Y225487D01*
X287849D01*
Y225530D01*
X287976D01*
Y225572D01*
X288061D01*
Y225615D01*
X288146D01*
Y225657D01*
X288231D01*
Y225700D01*
X288316D01*
Y225742D01*
X288443D01*
Y225785D01*
X288528D01*
Y225827D01*
X288613D01*
Y225870D01*
X288741D01*
Y225912D01*
X288826D01*
Y225955D01*
X288953D01*
Y225997D01*
X289038D01*
Y226040D01*
X289165D01*
Y226082D01*
X289250D01*
Y226125D01*
X289378D01*
Y226167D01*
X289505D01*
Y226209D01*
X289633D01*
Y226252D01*
X289718D01*
Y226294D01*
X289845D01*
Y226337D01*
X289973D01*
Y226379D01*
X290100D01*
Y226422D01*
X290270D01*
Y226464D01*
X290398D01*
Y226507D01*
X290525D01*
Y226549D01*
X290695D01*
Y226592D01*
X290822D01*
Y226634D01*
X290992D01*
Y226677D01*
X291162D01*
Y226719D01*
X291332D01*
Y226762D01*
X291544D01*
Y226804D01*
X291714D01*
Y226847D01*
X291927D01*
Y226889D01*
X292139D01*
Y226932D01*
X292352D01*
Y226974D01*
X292606D01*
Y227017D01*
X292861D01*
Y227059D01*
X293159D01*
Y227102D01*
X293498D01*
Y227144D01*
X293881D01*
Y227186D01*
X294433D01*
Y227229D01*
X297152D01*
Y227186D01*
D02*
G37*
G36*
X286277Y195836D02*
X287126D01*
Y195793D01*
X288104D01*
Y195751D01*
X288953D01*
Y195709D01*
X289845D01*
Y195666D01*
X290780D01*
Y195624D01*
X291842D01*
Y195581D01*
X293329D01*
Y195539D01*
X299786D01*
Y195581D01*
X301060D01*
Y195624D01*
X302080D01*
Y195666D01*
X302972D01*
Y195709D01*
X303609D01*
Y195751D01*
X303821D01*
Y195666D01*
X303864D01*
Y195581D01*
X303906D01*
Y195454D01*
X303949D01*
Y195369D01*
X303991D01*
Y195284D01*
X304034D01*
Y195199D01*
X304076D01*
Y195071D01*
X304119D01*
Y194944D01*
X304161D01*
Y194901D01*
X303566D01*
Y194859D01*
X302887D01*
Y194816D01*
X302250D01*
Y194774D01*
X301527D01*
Y194731D01*
X300848D01*
Y194689D01*
X300041D01*
Y194647D01*
X298978D01*
Y194604D01*
X294093D01*
Y194647D01*
X292819D01*
Y194689D01*
X292012D01*
Y194731D01*
X291290D01*
Y194774D01*
X290525D01*
Y194816D01*
X289718D01*
Y194859D01*
X288868D01*
Y194901D01*
X287934D01*
Y194944D01*
X286829D01*
Y194986D01*
X285725D01*
Y195029D01*
X285640D01*
Y195071D01*
X285682D01*
Y195156D01*
X285725D01*
Y195241D01*
X285767D01*
Y195326D01*
X285810D01*
Y195411D01*
X285852D01*
Y195496D01*
X285894D01*
Y195539D01*
X285937D01*
Y195624D01*
X285980D01*
Y195709D01*
X286022D01*
Y195751D01*
X286064D01*
Y195836D01*
X286107D01*
Y195878D01*
X286277D01*
Y195836D01*
D02*
G37*
G36*
X287466Y194179D02*
X288401D01*
Y194137D01*
X289250D01*
Y194094D01*
X290185D01*
Y194052D01*
X290950D01*
Y194009D01*
X291757D01*
Y193967D01*
X292522D01*
Y193924D01*
X293201D01*
Y193882D01*
X294178D01*
Y193839D01*
X295580D01*
Y193797D01*
X298129D01*
Y193839D01*
X299403D01*
Y193882D01*
X300168D01*
Y193924D01*
X300933D01*
Y193967D01*
X301612D01*
Y194009D01*
X302250D01*
Y194052D01*
X302929D01*
Y194094D01*
X303609D01*
Y194137D01*
X304204D01*
Y194179D01*
X304331D01*
Y194137D01*
X304289D01*
Y194094D01*
X304204D01*
Y194052D01*
X304119D01*
Y194009D01*
X304034D01*
Y193967D01*
X303949D01*
Y193924D01*
X303864D01*
Y193882D01*
X303779D01*
Y193839D01*
X303694D01*
Y193797D01*
X303609D01*
Y193754D01*
X303524D01*
Y193712D01*
X303439D01*
Y193669D01*
X303354D01*
Y193627D01*
X303269D01*
Y193585D01*
X303142D01*
Y193542D01*
X303057D01*
Y193500D01*
X302972D01*
Y193457D01*
X302887D01*
Y193415D01*
X302759D01*
Y193372D01*
X302674D01*
Y193330D01*
X302589D01*
Y193287D01*
X302462D01*
Y193245D01*
X302377D01*
Y193202D01*
X302250D01*
Y193160D01*
X302165D01*
Y193117D01*
X302037D01*
Y193075D01*
X301952D01*
Y193032D01*
X301825D01*
Y192990D01*
X301697D01*
Y192947D01*
X301570D01*
Y192905D01*
X301442D01*
Y192862D01*
X301315D01*
Y192820D01*
X301187D01*
Y192777D01*
X301060D01*
Y192735D01*
X300933D01*
Y192692D01*
X300805D01*
Y192650D01*
X300635D01*
Y192607D01*
X300508D01*
Y192565D01*
X300338D01*
Y192523D01*
X300168D01*
Y192480D01*
X299998D01*
Y192438D01*
X299828D01*
Y192395D01*
X299616D01*
Y192352D01*
X299446D01*
Y192310D01*
X299233D01*
Y192268D01*
X298978D01*
Y192225D01*
X298766D01*
Y192183D01*
X298469D01*
Y192140D01*
X298171D01*
Y192098D01*
X297832D01*
Y192055D01*
X297449D01*
Y192013D01*
X296812D01*
Y191970D01*
X294815D01*
Y192013D01*
X294221D01*
Y192055D01*
X293796D01*
Y192098D01*
X293414D01*
Y192140D01*
X293116D01*
Y192183D01*
X292861D01*
Y192225D01*
X292606D01*
Y192268D01*
X292352D01*
Y192310D01*
X292139D01*
Y192352D01*
X291969D01*
Y192395D01*
X291757D01*
Y192438D01*
X291587D01*
Y192480D01*
X291417D01*
Y192523D01*
X291247D01*
Y192565D01*
X291077D01*
Y192607D01*
X290907D01*
Y192650D01*
X290780D01*
Y192692D01*
X290610D01*
Y192735D01*
X290482D01*
Y192777D01*
X290355D01*
Y192820D01*
X290228D01*
Y192862D01*
X290100D01*
Y192905D01*
X289973D01*
Y192947D01*
X289845D01*
Y192990D01*
X289718D01*
Y193032D01*
X289590D01*
Y193075D01*
X289505D01*
Y193117D01*
X289378D01*
Y193160D01*
X289250D01*
Y193202D01*
X289165D01*
Y193245D01*
X289038D01*
Y193287D01*
X288953D01*
Y193330D01*
X288868D01*
Y193372D01*
X288741D01*
Y193415D01*
X288656D01*
Y193457D01*
X288571D01*
Y193500D01*
X288443D01*
Y193542D01*
X288358D01*
Y193585D01*
X288273D01*
Y193627D01*
X288189D01*
Y193669D01*
X288104D01*
Y193712D01*
X288019D01*
Y193754D01*
X287934D01*
Y193797D01*
X287849D01*
Y193839D01*
X287764D01*
Y193882D01*
X287679D01*
Y193924D01*
X287594D01*
Y193967D01*
X287509D01*
Y194009D01*
X287424D01*
Y194052D01*
X287339D01*
Y194094D01*
X287254D01*
Y194137D01*
X287169D01*
Y194179D01*
X287126D01*
Y194222D01*
X287466D01*
Y194179D01*
D02*
G37*
%LPC*%
G36*
X296175Y213933D02*
X295793D01*
Y213890D01*
X295708D01*
Y213848D01*
X295665D01*
Y213805D01*
X295580D01*
Y213720D01*
X295538D01*
Y213635D01*
X295495D01*
Y213253D01*
X295538D01*
Y213168D01*
X295580D01*
Y213125D01*
X295623D01*
Y213083D01*
X295665D01*
Y213040D01*
X295750D01*
Y212998D01*
X295835D01*
Y212956D01*
X296090D01*
Y212998D01*
X296217D01*
Y213040D01*
X296260D01*
Y213083D01*
X296302D01*
Y213125D01*
X296345D01*
Y213168D01*
X296387D01*
Y213210D01*
X296430D01*
Y213338D01*
X296472D01*
Y213550D01*
X296430D01*
Y213678D01*
X296387D01*
Y213720D01*
Y213763D01*
X296345D01*
Y213805D01*
X296302D01*
Y213848D01*
X296217D01*
Y213890D01*
X296175D01*
Y213933D01*
D02*
G37*
G36*
X289845D02*
X289463D01*
Y213890D01*
X289378D01*
Y213848D01*
X289335D01*
Y213805D01*
X289293D01*
Y213763D01*
X289250D01*
Y213720D01*
X289208D01*
Y213635D01*
X289165D01*
Y213295D01*
Y213253D01*
X289208D01*
Y213168D01*
X289250D01*
Y213125D01*
X289293D01*
Y213083D01*
X289335D01*
Y213040D01*
X289420D01*
Y212998D01*
X289505D01*
Y212956D01*
X289760D01*
Y212998D01*
X289888D01*
Y213040D01*
X289930D01*
Y213083D01*
X289973D01*
Y213125D01*
X290015D01*
Y213168D01*
X290058D01*
Y213210D01*
X290100D01*
Y213338D01*
X290143D01*
Y213593D01*
X290100D01*
Y213678D01*
X290058D01*
Y213763D01*
X290015D01*
Y213805D01*
X289973D01*
Y213848D01*
X289930D01*
Y213890D01*
X289845D01*
Y213933D01*
D02*
G37*
G36*
X291374Y210619D02*
X291120D01*
Y210577D01*
X291077D01*
Y210534D01*
X291035D01*
Y210492D01*
X290992D01*
Y210237D01*
X291035D01*
Y210194D01*
X291077D01*
Y210152D01*
X291120D01*
Y210109D01*
X291162D01*
Y210067D01*
X291205D01*
Y210024D01*
X291290D01*
Y209982D01*
X291332D01*
Y209939D01*
X291417D01*
Y209897D01*
X291502D01*
Y209855D01*
X291587D01*
Y209812D01*
X291672D01*
Y209770D01*
X291842D01*
Y209727D01*
X292054D01*
Y209685D01*
X292437D01*
Y209727D01*
X292649D01*
Y209770D01*
X292776D01*
Y209812D01*
X292861D01*
Y209855D01*
X292946D01*
Y209897D01*
X293031D01*
Y209939D01*
X293116D01*
Y209982D01*
X293159D01*
Y210024D01*
X293201D01*
Y210067D01*
X293244D01*
Y210109D01*
X293286D01*
Y210152D01*
X293329D01*
Y210237D01*
X293371D01*
Y210364D01*
X293329D01*
Y210449D01*
X293286D01*
Y210492D01*
X293244D01*
Y210534D01*
X292989D01*
Y210492D01*
X292904D01*
Y210449D01*
X292819D01*
Y210407D01*
X292776D01*
Y210364D01*
X292691D01*
Y210322D01*
X292564D01*
Y210279D01*
X292394D01*
Y210237D01*
X292097D01*
Y210279D01*
X291927D01*
Y210322D01*
X291799D01*
Y210364D01*
X291714D01*
Y210407D01*
X291629D01*
Y210449D01*
X291587D01*
Y210492D01*
X291502D01*
Y210534D01*
X291459D01*
Y210577D01*
X291374D01*
Y210619D01*
D02*
G37*
%LPD*%
D10*
X161106Y222000D02*
G03*
X161500Y222000I197J0D01*
G01*
D02*
G03*
X161106Y222000I-197J0D01*
G01*
X193606D02*
G03*
X194000Y222000I197J0D01*
G01*
D02*
G03*
X193606Y222000I-197J0D01*
G01*
X226106D02*
G03*
X226500Y222000I197J0D01*
G01*
D02*
G03*
X226106Y222000I-197J0D01*
G01*
X258606D02*
G03*
X259000Y222000I197J0D01*
G01*
D02*
G03*
X258606Y222000I-197J0D01*
G01*
X140394Y382646D02*
G03*
X140394Y382646I-394J0D01*
G01*
X197394D02*
G03*
X197394Y382646I-394J0D01*
G01*
X261394D02*
G03*
X261394Y382646I-394J0D01*
G01*
X318394D02*
G03*
X318394Y382646I-394J0D01*
G01*
X382394D02*
G03*
X382394Y382646I-394J0D01*
G01*
X439394D02*
G03*
X439394Y382646I-394J0D01*
G01*
X329283Y216500D02*
G03*
X329283Y216500I-394J0D01*
G01*
X488291Y303177D02*
G03*
X488291Y303177I-394J0D01*
G01*
X163811Y185689D02*
Y209311D01*
X140189Y185689D02*
Y209311D01*
X196311Y185689D02*
Y209311D01*
X172689Y185689D02*
Y209311D01*
X228811Y185689D02*
Y209311D01*
X205189Y185689D02*
Y209311D01*
X261311Y185689D02*
Y209311D01*
X237689Y185689D02*
Y209311D01*
D11*
X383622Y298000D02*
G03*
X383622Y298000I-23622J0D01*
G01*
X135197Y385598D02*
X184803D01*
Y460402D01*
X135197D02*
X184803D01*
X135197Y385598D02*
Y460402D01*
X192197Y385598D02*
X241803D01*
Y460402D01*
X192197D02*
X241803D01*
X192197Y385598D02*
Y460402D01*
X256197Y385598D02*
X305803D01*
Y460402D01*
X256197D02*
X305803D01*
X256197Y385598D02*
Y460402D01*
X313197Y385598D02*
X362803D01*
Y460402D01*
X313197D02*
X362803D01*
X313197Y385598D02*
Y460402D01*
X377197Y385598D02*
X426803D01*
Y460402D01*
X377197D02*
X426803D01*
X377197Y385598D02*
Y460402D01*
X434197Y385598D02*
X483803D01*
Y460402D01*
X434197D02*
X483803D01*
X434197Y385598D02*
Y460402D01*
X405279Y336546D02*
Y344546D01*
X399279Y336546D02*
Y344546D01*
X360000Y261701D02*
Y269575D01*
X356063Y265638D02*
X363937D01*
X360000Y329181D02*
Y337055D01*
X387000Y334500D02*
Y348500D01*
X396000Y334500D02*
Y348500D01*
X382500Y216500D02*
X391500D01*
X382500Y221500D02*
X391500D01*
X338500Y230500D02*
Y239500D01*
X333500Y230500D02*
Y239500D01*
X320000Y340000D02*
X329000D01*
X320000Y345000D02*
X329000D01*
X380890Y176500D02*
Y221500D01*
X330890Y176500D02*
X380890D01*
X330890D02*
Y221500D01*
X380890D01*
X446539Y302291D02*
X476461D01*
X446539Y363709D02*
X476461D01*
D12*
X415000Y337000D02*
Y344000D01*
X410000Y337000D02*
Y344000D01*
X163811Y185689D02*
Y209311D01*
X196311Y185689D02*
Y209311D01*
X228811Y185689D02*
Y209311D01*
X261311Y185689D02*
Y209311D01*
X110000Y242500D02*
X320000D01*
X100000Y272172D02*
Y302500D01*
X110000Y242500D02*
Y332500D01*
X100000Y272172D02*
X120000D01*
X100000Y302500D02*
X120000D01*
X110000Y332500D02*
X320000D01*
Y242500D02*
Y332500D01*
X123000Y271672D02*
Y302000D01*
X431135Y206248D02*
Y289752D01*
X494600Y219000D02*
Y277000D01*
X431135Y206248D02*
X453000D01*
X431135Y289752D02*
X453000D01*
X484094D02*
X495978Y278449D01*
X494600Y277000D02*
X495978Y278449D01*
X494600Y219000D02*
Y277000D01*
Y219000D02*
X495978Y217551D01*
X484094Y206248D02*
X495978Y217551D01*
X478000Y289752D02*
X484094D01*
X478000Y206248D02*
X484094D01*
X431135D02*
Y289752D01*
X344100Y332900D02*
Y335100D01*
X341500Y332900D02*
X344100D01*
Y341900D02*
Y344100D01*
X341500D02*
X344100D01*
D13*
X441506Y195594D02*
Y189596D01*
Y191595D01*
X445505Y195594D01*
X442506Y192595D01*
X445505Y189596D01*
X450503D02*
X448504D01*
X447504Y190596D01*
Y192595D01*
X448504Y193595D01*
X450503D01*
X451503Y192595D01*
Y191595D01*
X447504D01*
X456501Y189596D02*
X454502D01*
X453502Y190596D01*
Y192595D01*
X454502Y193595D01*
X456501D01*
X457501Y192595D01*
Y191595D01*
X453502D01*
X459500Y187597D02*
Y193595D01*
X462499D01*
X463499Y192595D01*
Y190596D01*
X462499Y189596D01*
X459500D01*
X471496D02*
X473496D01*
X472496D01*
Y193595D01*
X471496D01*
X477494Y194594D02*
Y193595D01*
X476495D01*
X478494D01*
X477494D01*
Y190596D01*
X478494Y189596D01*
X423512Y175000D02*
Y180998D01*
X426511D01*
X427510Y179998D01*
Y177999D01*
X426511Y176999D01*
X423512D01*
X430510D02*
X432509D01*
X433509Y177999D01*
Y179998D01*
X432509Y180998D01*
X430510D01*
X429510Y179998D01*
Y177999D01*
X430510Y176999D01*
X435508D02*
X438507D01*
X439507Y177999D01*
X438507Y178999D01*
X436508D01*
X435508Y179998D01*
X436508Y180998D01*
X439507D01*
X441506Y176999D02*
X443505D01*
X442506D01*
Y180998D01*
X441506D01*
X447504Y181998D02*
Y180998D01*
X446504D01*
X448504D01*
X447504D01*
Y177999D01*
X448504Y176999D01*
X451503D02*
X453502D01*
X452502D01*
Y180998D01*
X451503D01*
X456501D02*
X458500Y176999D01*
X460500Y180998D01*
X465498Y176999D02*
X463499D01*
X462499Y177999D01*
Y179998D01*
X463499Y180998D01*
X465498D01*
X466498Y179998D01*
Y178999D01*
X462499D01*
X476495Y176999D02*
X474495Y178999D01*
Y180998D01*
X476495Y182997D01*
X479494Y180998D02*
Y177999D01*
X480493Y176999D01*
X483492D01*
Y180998D01*
X485492Y175000D02*
Y180998D01*
X488491D01*
X489491Y179998D01*
Y177999D01*
X488491Y176999D01*
X485492D01*
X491490D02*
X493489Y178999D01*
Y180998D01*
X491490Y182997D01*
X496488Y178999D02*
Y183997D01*
Y177999D02*
Y176999D01*
X285857Y187999D02*
Y183143D01*
X286143Y182286D01*
X286714Y182000D01*
X287285D01*
X285000Y185999D02*
X287000D01*
X289856Y187999D02*
X288999Y187713D01*
X288428Y186856D01*
X288142Y185428D01*
Y184571D01*
X288428Y183143D01*
X288999Y182286D01*
X289856Y182000D01*
X290427D01*
X291284Y182286D01*
X291856Y183143D01*
X292141Y184571D01*
Y185428D01*
X291856Y186856D01*
X291284Y187713D01*
X290427Y187999D01*
X289856D01*
X293484Y185999D02*
Y182000D01*
Y184856D02*
X294341Y185714D01*
X294912Y185999D01*
X295769D01*
X296340Y185714D01*
X296626Y184856D01*
Y182000D01*
Y184856D02*
X297483Y185714D01*
X298054Y185999D01*
X298911D01*
X299483Y185714D01*
X299768Y184856D01*
Y182000D01*
X305367Y185999D02*
X305081Y185142D01*
X304510Y184571D01*
X303653Y184285D01*
X303367D01*
X302510Y184571D01*
X301939Y185142D01*
X301654Y185999D01*
Y186285D01*
X301939Y187142D01*
X302510Y187713D01*
X303367Y187999D01*
X303653D01*
X304510Y187713D01*
X305081Y187142D01*
X305367Y185999D01*
Y184571D01*
X305081Y183143D01*
X304510Y182286D01*
X303653Y182000D01*
X303082D01*
X302225Y182286D01*
X301939Y182857D01*
X153998Y202001D02*
X154998Y203001D01*
Y205000D01*
X153998Y206000D01*
X152999D01*
X151999Y205000D01*
Y203001D01*
X150999Y202001D01*
X150000D01*
X149000Y203001D01*
Y205000D01*
X150000Y206000D01*
X154998Y200002D02*
X149000D01*
X150999Y198003D01*
X149000Y196003D01*
X154998D01*
X149000Y194004D02*
X152999D01*
Y191005D01*
X151999Y190005D01*
X149000D01*
X186498Y202001D02*
X187498Y203001D01*
Y205000D01*
X186498Y206000D01*
X185499D01*
X184499Y205000D01*
Y203001D01*
X183499Y202001D01*
X182500D01*
X181500Y203001D01*
Y205000D01*
X182500Y206000D01*
X187498Y200002D02*
X181500D01*
X183499Y198003D01*
X181500Y196003D01*
X187498D01*
X181500Y194004D02*
X185499D01*
Y191005D01*
X184499Y190005D01*
X181500D01*
X218998Y202001D02*
X219998Y203001D01*
Y205000D01*
X218998Y206000D01*
X217999D01*
X216999Y205000D01*
Y203001D01*
X215999Y202001D01*
X215000D01*
X214000Y203001D01*
Y205000D01*
X215000Y206000D01*
X219998Y200002D02*
X214000D01*
X215999Y198003D01*
X214000Y196003D01*
X219998D01*
X214000Y194004D02*
X217999D01*
Y191005D01*
X216999Y190005D01*
X214000D01*
X251498Y202001D02*
X252498Y203001D01*
Y205000D01*
X251498Y206000D01*
X250499D01*
X249499Y205000D01*
Y203001D01*
X248499Y202001D01*
X247500D01*
X246500Y203001D01*
Y205000D01*
X247500Y206000D01*
X252498Y200002D02*
X246500D01*
X248499Y198003D01*
X246500Y196003D01*
X252498D01*
X246500Y194004D02*
X250499D01*
Y191005D01*
X249499Y190005D01*
X246500D01*
X163000Y284499D02*
Y290497D01*
X165999D01*
X166999Y289498D01*
Y287498D01*
X165999Y286499D01*
X163000D01*
X164999D02*
X166999Y284499D01*
X169998Y288498D02*
X171997D01*
X172997Y287498D01*
Y284499D01*
X169998D01*
X168998Y285499D01*
X169998Y286499D01*
X172997D01*
X174996Y284499D02*
X177995D01*
X178995Y285499D01*
X177995Y286499D01*
X175996D01*
X174996Y287498D01*
X175996Y288498D01*
X178995D01*
X180994Y282500D02*
Y288498D01*
X183993D01*
X184993Y287498D01*
Y285499D01*
X183993Y284499D01*
X180994D01*
X186992Y290497D02*
Y284499D01*
X189991D01*
X190991Y285499D01*
Y286499D01*
Y287498D01*
X189991Y288498D01*
X186992D01*
X195989Y284499D02*
X193990D01*
X192990Y285499D01*
Y287498D01*
X193990Y288498D01*
X195989D01*
X196989Y287498D01*
Y286499D01*
X192990D01*
X198988Y288498D02*
Y284499D01*
Y286499D01*
X199988Y287498D01*
X200988Y288498D01*
X201987D01*
X204986D02*
Y284499D01*
Y286499D01*
X205986Y287498D01*
X206986Y288498D01*
X207985D01*
X210984D02*
Y285499D01*
X211984Y284499D01*
X214983D01*
Y283500D01*
X213983Y282500D01*
X212984D01*
X214983Y284499D02*
Y288498D01*
X222981Y284499D02*
Y290497D01*
X225980D01*
X226979Y289498D01*
Y287498D01*
X225980Y286499D01*
X222981D01*
X228979Y284499D02*
X230978D01*
X229978D01*
Y288498D01*
X228979D01*
X239975Y284499D02*
Y290497D01*
X242974D01*
X243974Y289498D01*
Y287498D01*
X242974Y286499D01*
X239975D01*
X245973Y284499D02*
X247972D01*
X246973D01*
Y288498D01*
X245973D01*
X254970D02*
X251971D01*
X250972Y287498D01*
Y285499D01*
X251971Y284499D01*
X254970D01*
X257969D02*
X259969D01*
X260968Y285499D01*
Y287498D01*
X259969Y288498D01*
X257969D01*
X256970Y287498D01*
Y285499D01*
X257969Y284499D01*
X140000Y426497D02*
Y420499D01*
X142999D01*
X143999Y421499D01*
Y425498D01*
X142999Y426497D01*
X140000D01*
X145998Y420499D02*
X147997D01*
X146998D01*
Y424498D01*
X145998D01*
X150996Y420499D02*
X153996D01*
X154995Y421499D01*
X153996Y422499D01*
X151996D01*
X150996Y423498D01*
X151996Y424498D01*
X154995D01*
X156994Y418500D02*
Y424498D01*
X159994D01*
X160993Y423498D01*
Y421499D01*
X159994Y420499D01*
X156994D01*
X162993D02*
X164992D01*
X163992D01*
Y426497D01*
X162993D01*
X168991Y424498D02*
X170990D01*
X171990Y423498D01*
Y420499D01*
X168991D01*
X167991Y421499D01*
X168991Y422499D01*
X171990D01*
X173989Y424498D02*
Y421499D01*
X174989Y420499D01*
X177988D01*
Y419500D01*
X176988Y418500D01*
X175988D01*
X177988Y420499D02*
Y424498D01*
X197000Y426497D02*
Y420499D01*
X199999D01*
X200999Y421499D01*
Y425498D01*
X199999Y426497D01*
X197000D01*
X202998Y420499D02*
X204997D01*
X203998D01*
Y424498D01*
X202998D01*
X207996Y420499D02*
X210995D01*
X211995Y421499D01*
X210995Y422499D01*
X208996D01*
X207996Y423498D01*
X208996Y424498D01*
X211995D01*
X213995Y418500D02*
Y424498D01*
X216993D01*
X217993Y423498D01*
Y421499D01*
X216993Y420499D01*
X213995D01*
X219992D02*
X221992D01*
X220992D01*
Y426497D01*
X219992D01*
X225991Y424498D02*
X227990D01*
X228990Y423498D01*
Y420499D01*
X225991D01*
X224991Y421499D01*
X225991Y422499D01*
X228990D01*
X230989Y424498D02*
Y421499D01*
X231989Y420499D01*
X234988D01*
Y419500D01*
X233988Y418500D01*
X232988D01*
X234988Y420499D02*
Y424498D01*
X261000Y426497D02*
Y420499D01*
X263999D01*
X264999Y421499D01*
Y425498D01*
X263999Y426497D01*
X261000D01*
X266998Y420499D02*
X268997D01*
X267998D01*
Y424498D01*
X266998D01*
X271996Y420499D02*
X274995D01*
X275995Y421499D01*
X274995Y422499D01*
X272996D01*
X271996Y423498D01*
X272996Y424498D01*
X275995D01*
X277994Y418500D02*
Y424498D01*
X280994D01*
X281993Y423498D01*
Y421499D01*
X280994Y420499D01*
X277994D01*
X283993D02*
X285992D01*
X284992D01*
Y426497D01*
X283993D01*
X289991Y424498D02*
X291990D01*
X292990Y423498D01*
Y420499D01*
X289991D01*
X288991Y421499D01*
X289991Y422499D01*
X292990D01*
X294989Y424498D02*
Y421499D01*
X295989Y420499D01*
X298988D01*
Y419500D01*
X297988Y418500D01*
X296988D01*
X298988Y420499D02*
Y424498D01*
X318000Y426497D02*
Y420499D01*
X320999D01*
X321999Y421499D01*
Y425498D01*
X320999Y426497D01*
X318000D01*
X323998Y420499D02*
X325997D01*
X324998D01*
Y424498D01*
X323998D01*
X328996Y420499D02*
X331995D01*
X332995Y421499D01*
X331995Y422499D01*
X329996D01*
X328996Y423498D01*
X329996Y424498D01*
X332995D01*
X334995Y418500D02*
Y424498D01*
X337994D01*
X338993Y423498D01*
Y421499D01*
X337994Y420499D01*
X334995D01*
X340992D02*
X342992D01*
X341992D01*
Y426497D01*
X340992D01*
X346991Y424498D02*
X348990D01*
X349990Y423498D01*
Y420499D01*
X346991D01*
X345991Y421499D01*
X346991Y422499D01*
X349990D01*
X351989Y424498D02*
Y421499D01*
X352989Y420499D01*
X355988D01*
Y419500D01*
X354988Y418500D01*
X353988D01*
X355988Y420499D02*
Y424498D01*
X382000Y426497D02*
Y420499D01*
X384999D01*
X385999Y421499D01*
Y425498D01*
X384999Y426497D01*
X382000D01*
X387998Y420499D02*
X389997D01*
X388998D01*
Y424498D01*
X387998D01*
X392996Y420499D02*
X395995D01*
X396995Y421499D01*
X395995Y422499D01*
X393996D01*
X392996Y423498D01*
X393996Y424498D01*
X396995D01*
X398994Y418500D02*
Y424498D01*
X401994D01*
X402993Y423498D01*
Y421499D01*
X401994Y420499D01*
X398994D01*
X404992D02*
X406992D01*
X405992D01*
Y426497D01*
X404992D01*
X410991Y424498D02*
X412990D01*
X413990Y423498D01*
Y420499D01*
X410991D01*
X409991Y421499D01*
X410991Y422499D01*
X413990D01*
X415989Y424498D02*
Y421499D01*
X416989Y420499D01*
X419988D01*
Y419500D01*
X418988Y418500D01*
X417988D01*
X419988Y420499D02*
Y424498D01*
X439000Y426497D02*
Y420499D01*
X441999D01*
X442999Y421499D01*
Y425498D01*
X441999Y426497D01*
X439000D01*
X444998Y420499D02*
X446997D01*
X445998D01*
Y424498D01*
X444998D01*
X449996Y420499D02*
X452995D01*
X453995Y421499D01*
X452995Y422499D01*
X450996D01*
X449996Y423498D01*
X450996Y424498D01*
X453995D01*
X455995Y418500D02*
Y424498D01*
X458993D01*
X459993Y423498D01*
Y421499D01*
X458993Y420499D01*
X455995D01*
X461993D02*
X463992D01*
X462992D01*
Y426497D01*
X461993D01*
X467991Y424498D02*
X469990D01*
X470990Y423498D01*
Y420499D01*
X467991D01*
X466991Y421499D01*
X467991Y422499D01*
X470990D01*
X472989Y424498D02*
Y421499D01*
X473989Y420499D01*
X476988D01*
Y419500D01*
X475988Y418500D01*
X474988D01*
X476988Y420499D02*
Y424498D01*
X348000Y301498D02*
Y295500D01*
X350999D01*
X351999Y296500D01*
Y297499D01*
X350999Y298499D01*
X348000D01*
X350999D01*
X351999Y299499D01*
Y300498D01*
X350999Y301498D01*
X348000D01*
X353998Y299499D02*
Y296500D01*
X354998Y295500D01*
X357997D01*
Y299499D01*
X359996D02*
X363995D01*
X359996Y295500D01*
X363995D01*
X365994Y299499D02*
X369993D01*
X365994Y295500D01*
X369993D01*
X359888Y211500D02*
X353890D01*
Y208501D01*
X354889Y207501D01*
X358888D01*
X359888Y208501D01*
Y211500D01*
X358888Y205502D02*
X359888Y204502D01*
Y202503D01*
X358888Y201503D01*
X357889D01*
X356889Y202503D01*
Y203503D01*
Y202503D01*
X355889Y201503D01*
X354889D01*
X353890Y202503D01*
Y204502D01*
X354889Y205502D01*
X353890Y195505D02*
Y199504D01*
X357889Y195505D01*
X358888D01*
X359888Y196505D01*
Y198504D01*
X358888Y199504D01*
Y193506D02*
X359888Y192506D01*
Y190507D01*
X358888Y189507D01*
X357889D01*
X356889Y190507D01*
Y191507D01*
Y190507D01*
X355889Y189507D01*
X354889D01*
X353890Y190507D01*
Y192506D01*
X354889Y193506D01*
X353890Y187508D02*
Y185508D01*
Y186508D01*
X359888D01*
X358888Y187508D01*
X464500Y312000D02*
X458502D01*
X460501Y313999D01*
X458502Y315999D01*
X464500D01*
Y317998D02*
X460501D01*
X458502Y319997D01*
X460501Y321997D01*
X464500D01*
X461501D01*
Y317998D01*
X458502Y323996D02*
X464500Y327995D01*
X458502D02*
X464500Y323996D01*
X458502Y329994D02*
Y333993D01*
X459502D01*
X463500Y329994D01*
X464500D01*
Y339991D02*
Y335992D01*
X460501Y339991D01*
X459502D01*
X458502Y338991D01*
Y336992D01*
X459502Y335992D01*
X464500Y345989D02*
Y341990D01*
X460501Y345989D01*
X459502D01*
X458502Y344989D01*
Y342990D01*
X459502Y341990D01*
X464500Y347988D02*
Y349988D01*
Y348988D01*
X458502D01*
X459502Y347988D01*
X112502Y198499D02*
Y192501D01*
Y195500D01*
X116500D01*
Y198499D01*
Y192501D01*
X121499D02*
Y198499D01*
X118500Y195500D01*
X122498D01*
X113002Y448999D02*
Y443001D01*
Y446000D01*
X117000D01*
Y448999D01*
Y443001D01*
X119000Y447999D02*
X119999Y448999D01*
X121999D01*
X122998Y447999D01*
Y447000D01*
X121999Y446000D01*
X120999D01*
X121999D01*
X122998Y445000D01*
Y444001D01*
X121999Y443001D01*
X119999D01*
X119000Y444001D01*
X505502Y449499D02*
Y443501D01*
Y446500D01*
X509500D01*
Y449499D01*
Y443501D01*
X515498D02*
X511500D01*
X515498Y447500D01*
Y448499D01*
X514499Y449499D01*
X512499D01*
X511500Y448499D01*
X506501Y199499D02*
Y193501D01*
Y196500D01*
X510500D01*
Y199499D01*
Y193501D01*
X512499D02*
X514499D01*
X513499D01*
Y199499D01*
X512499Y198499D01*
X439100Y373798D02*
Y368800D01*
X440100Y367800D01*
X442099D01*
X443099Y368800D01*
Y373798D01*
X445098Y372798D02*
X446098Y373798D01*
X448097D01*
X449097Y372798D01*
Y371799D01*
X448097Y370799D01*
X447097D01*
X448097D01*
X449097Y369799D01*
Y368800D01*
X448097Y367800D01*
X446098D01*
X445098Y368800D01*
X100700Y341798D02*
Y336800D01*
X101700Y335800D01*
X103699D01*
X104699Y336800D01*
Y341798D01*
X106698Y335800D02*
X108697D01*
X107698D01*
Y341798D01*
X106698Y340798D01*
X335000Y353598D02*
X338999D01*
X336999D01*
Y347600D01*
X340998D02*
X342997D01*
X341998D01*
Y353598D01*
X340998Y352598D01*
X242299Y229698D02*
X241299Y230698D01*
X239300D01*
X238300Y229698D01*
Y228699D01*
X239300Y227699D01*
X241299D01*
X242299Y226699D01*
Y225700D01*
X241299Y224700D01*
X239300D01*
X238300Y225700D01*
X247297Y224700D02*
Y230698D01*
X244298Y227699D01*
X248297D01*
X209799Y229698D02*
X208799Y230698D01*
X206800D01*
X205800Y229698D01*
Y228699D01*
X206800Y227699D01*
X208799D01*
X209799Y226699D01*
Y225700D01*
X208799Y224700D01*
X206800D01*
X205800Y225700D01*
X211798Y229698D02*
X212798Y230698D01*
X214797D01*
X215797Y229698D01*
Y228699D01*
X214797Y227699D01*
X213797D01*
X214797D01*
X215797Y226699D01*
Y225700D01*
X214797Y224700D01*
X212798D01*
X211798Y225700D01*
X177299Y229698D02*
X176299Y230698D01*
X174300D01*
X173300Y229698D01*
Y228699D01*
X174300Y227699D01*
X176299D01*
X177299Y226699D01*
Y225700D01*
X176299Y224700D01*
X174300D01*
X173300Y225700D01*
X183297Y224700D02*
X179298D01*
X183297Y228699D01*
Y229698D01*
X182297Y230698D01*
X180298D01*
X179298Y229698D01*
X144799D02*
X143799Y230698D01*
X141800D01*
X140800Y229698D01*
Y228699D01*
X141800Y227699D01*
X143799D01*
X144799Y226699D01*
Y225700D01*
X143799Y224700D01*
X141800D01*
X140800Y225700D01*
X146798Y224700D02*
X148797D01*
X147798D01*
Y230698D01*
X146798Y229698D01*
X363503Y224001D02*
Y229999D01*
X366502D01*
X367501Y228999D01*
Y227000D01*
X366502Y226000D01*
X363503D01*
X365502D02*
X367501Y224001D01*
X369501Y229999D02*
X373499D01*
X371500D01*
Y224001D01*
X379497Y228999D02*
X378498Y229999D01*
X376498D01*
X375499Y228999D01*
Y225001D01*
X376498Y224001D01*
X378498D01*
X379497Y225001D01*
X309502Y346001D02*
Y351999D01*
X312501D01*
X313500Y350999D01*
Y349000D01*
X312501Y348000D01*
X309502D01*
X311501D02*
X313500Y346001D01*
X318499D02*
Y351999D01*
X315500Y349000D01*
X319498D01*
X414502Y354001D02*
Y359999D01*
X417501D01*
X418500Y358999D01*
Y357000D01*
X417501Y356000D01*
X414502D01*
X416501D02*
X418500Y354001D01*
X420500Y358999D02*
X421499Y359999D01*
X423499D01*
X424498Y358999D01*
Y358000D01*
X423499Y357000D01*
X422499D01*
X423499D01*
X424498Y356000D01*
Y355001D01*
X423499Y354001D01*
X421499D01*
X420500Y355001D01*
X341502Y228501D02*
Y234499D01*
X344501D01*
X345500Y233499D01*
Y231500D01*
X344501Y230500D01*
X341502D01*
X343501D02*
X345500Y228501D01*
X351498D02*
X347500D01*
X351498Y232500D01*
Y233499D01*
X350499Y234499D01*
X348499D01*
X347500Y233499D01*
X394501Y211501D02*
Y217499D01*
X397500D01*
X398500Y216499D01*
Y214500D01*
X397500Y213500D01*
X394501D01*
X396501D02*
X398500Y211501D01*
X400499D02*
X402499D01*
X401499D01*
Y217499D01*
X400499Y216499D01*
X434100Y470498D02*
Y464500D01*
X437099D01*
X438099Y465500D01*
Y469498D01*
X437099Y470498D01*
X434100D01*
X444097D02*
X442097Y469498D01*
X440098Y467499D01*
Y465500D01*
X441098Y464500D01*
X443097D01*
X444097Y465500D01*
Y466499D01*
X443097Y467499D01*
X440098D01*
X377100Y470498D02*
Y464500D01*
X380099D01*
X381099Y465500D01*
Y469498D01*
X380099Y470498D01*
X377100D01*
X387097D02*
X383098D01*
Y467499D01*
X385097Y468499D01*
X386097D01*
X387097Y467499D01*
Y465500D01*
X386097Y464500D01*
X384098D01*
X383098Y465500D01*
X313100Y470498D02*
Y464500D01*
X316099D01*
X317099Y465500D01*
Y469498D01*
X316099Y470498D01*
X313100D01*
X322097Y464500D02*
Y470498D01*
X319098Y467499D01*
X323097D01*
X256100Y470498D02*
Y464500D01*
X259099D01*
X260099Y465500D01*
Y469498D01*
X259099Y470498D01*
X256100D01*
X262098Y469498D02*
X263098Y470498D01*
X265097D01*
X266097Y469498D01*
Y468499D01*
X265097Y467499D01*
X264097D01*
X265097D01*
X266097Y466499D01*
Y465500D01*
X265097Y464500D01*
X263098D01*
X262098Y465500D01*
X192100Y470498D02*
Y464500D01*
X195099D01*
X196099Y465500D01*
Y469498D01*
X195099Y470498D01*
X192100D01*
X202097Y464500D02*
X198098D01*
X202097Y468499D01*
Y469498D01*
X201097Y470498D01*
X199098D01*
X198098Y469498D01*
X135100Y470498D02*
Y464500D01*
X138099D01*
X139099Y465500D01*
Y469498D01*
X138099Y470498D01*
X135100D01*
X141098Y464500D02*
X143097D01*
X142098D01*
Y470498D01*
X141098Y469498D01*
X403780Y359046D02*
X402780Y360045D01*
X400781D01*
X399781Y359046D01*
Y355047D01*
X400781Y354047D01*
X402780D01*
X403780Y355047D01*
X409778Y354047D02*
X405779D01*
X409778Y358046D01*
Y359046D01*
X408778Y360045D01*
X406779D01*
X405779Y359046D01*
X391000Y360499D02*
X390000Y361499D01*
X388001D01*
X387001Y360499D01*
Y356501D01*
X388001Y355501D01*
X390000D01*
X391000Y356501D01*
X392999Y355501D02*
X394999D01*
X393999D01*
Y361499D01*
X392999Y360499D01*
X497002Y307499D02*
Y301501D01*
X500001D01*
X501001Y302501D01*
Y303500D01*
X500001Y304500D01*
X497002D01*
X500001D01*
X501001Y305500D01*
Y306499D01*
X500001Y307499D01*
X497002D01*
X503000D02*
X506999D01*
X505000D01*
Y301501D01*
X508998D02*
X510998D01*
X509998D01*
Y307499D01*
X508998Y306499D01*
X372501Y331999D02*
Y326001D01*
X375500D01*
X376500Y327001D01*
Y328000D01*
X375500Y329000D01*
X372501D01*
X375500D01*
X376500Y330000D01*
Y330999D01*
X375500Y331999D01*
X372501D01*
X378499Y326001D02*
X380499D01*
X379499D01*
Y331999D01*
X378499Y330999D01*
M02*
