G04*
G04 #@! TF.GenerationSoftware,Altium Limited,Altium Designer,25.8.1 (18)*
G04*
G04 Layer_Color=16711935*
%FSLAX25Y25*%
%MOIN*%
G70*
G04*
G04 #@! TF.SameCoordinates,88319C62-EFB5-4932-9794-969BEDCF7067*
G04*
G04*
G04 #@! TF.FilePolarity,Negative*
G04*
G01*
G75*
%ADD35R,0.06737X0.06737*%
%ADD36R,0.05595X0.05595*%
%ADD37C,0.05595*%
%ADD38R,0.08674X0.08674*%
%ADD39C,0.08674*%
%ADD40C,0.15800*%
%ADD41C,0.02800*%
%ADD42C,0.04737*%
%ADD43C,0.03200*%
%ADD44C,0.04800*%
D35*
X183000Y322000D02*
D03*
X243000D02*
D03*
X213000D02*
D03*
X163000D02*
D03*
X173000D02*
D03*
X223000D02*
D03*
X233000D02*
D03*
X203000D02*
D03*
X193000D02*
D03*
X123000D02*
D03*
X133000D02*
D03*
X143000D02*
D03*
X153000D02*
D03*
X273000Y252000D02*
D03*
X253000Y322000D02*
D03*
X263000D02*
D03*
Y252000D02*
D03*
X273000Y322000D02*
D03*
X253000Y252000D02*
D03*
X293000D02*
D03*
Y322000D02*
D03*
X303000D02*
D03*
X283000Y252000D02*
D03*
X313000Y322000D02*
D03*
X303000Y252000D02*
D03*
X313000D02*
D03*
X283000Y322000D02*
D03*
X123000Y252000D02*
D03*
X243000D02*
D03*
X213000D02*
D03*
X173000D02*
D03*
X193000D02*
D03*
X233000D02*
D03*
X183000D02*
D03*
X133000D02*
D03*
X223000D02*
D03*
X143000D02*
D03*
X153000D02*
D03*
X163000D02*
D03*
X203000D02*
D03*
D36*
X140000Y393000D02*
D03*
X197000D02*
D03*
X261000D02*
D03*
X318000D02*
D03*
X382000D02*
D03*
X439000D02*
D03*
D37*
X150000D02*
D03*
X160000D02*
D03*
X170000D02*
D03*
X180000D02*
D03*
Y453000D02*
D03*
X170000D02*
D03*
X160000D02*
D03*
X150000D02*
D03*
X140000D02*
D03*
X207000Y393000D02*
D03*
X217000D02*
D03*
X227000D02*
D03*
X237000D02*
D03*
Y453000D02*
D03*
X227000D02*
D03*
X217000D02*
D03*
X207000D02*
D03*
X197000D02*
D03*
X271000Y393000D02*
D03*
X281000D02*
D03*
X291000D02*
D03*
X301000D02*
D03*
Y453000D02*
D03*
X291000D02*
D03*
X281000D02*
D03*
X271000D02*
D03*
X261000D02*
D03*
X328000Y393000D02*
D03*
X338000D02*
D03*
X348000D02*
D03*
X358000D02*
D03*
Y453000D02*
D03*
X348000D02*
D03*
X338000D02*
D03*
X328000D02*
D03*
X318000D02*
D03*
X392000Y393000D02*
D03*
X402000D02*
D03*
X412000D02*
D03*
X422000D02*
D03*
Y453000D02*
D03*
X412000D02*
D03*
X402000D02*
D03*
X392000D02*
D03*
X382000D02*
D03*
X449000Y393000D02*
D03*
X459000D02*
D03*
X469000D02*
D03*
X479000D02*
D03*
Y453000D02*
D03*
X469000D02*
D03*
X459000D02*
D03*
X449000D02*
D03*
X439000D02*
D03*
D38*
X360000Y283039D02*
D03*
D39*
Y312961D02*
D03*
D40*
X510500Y183000D02*
D03*
Y459500D02*
D03*
X118000D02*
D03*
Y183000D02*
D03*
D41*
X325445Y288556D02*
D03*
X367500Y253000D02*
D03*
X383500Y336500D02*
D03*
X400000Y294000D02*
D03*
X398000Y312000D02*
D03*
X415000Y308500D02*
D03*
X407000Y321500D02*
D03*
X324000Y282500D02*
D03*
X383500Y201500D02*
D03*
Y196500D02*
D03*
Y191500D02*
D03*
Y186500D02*
D03*
Y181500D02*
D03*
X327500Y196500D02*
D03*
Y186000D02*
D03*
Y191500D02*
D03*
Y181000D02*
D03*
D42*
X392500Y327000D02*
D03*
X383500Y256500D02*
D03*
X326500Y232500D02*
D03*
D43*
X491000Y348000D02*
D03*
X404500Y347500D02*
D03*
X394000Y352500D02*
D03*
X347000Y327500D02*
D03*
X331500Y310500D02*
D03*
X327500Y334500D02*
D03*
X315500Y334000D02*
D03*
X324000Y323500D02*
D03*
X323000Y310000D02*
D03*
X492000Y315500D02*
D03*
X489500Y330500D02*
D03*
X491500Y356000D02*
D03*
X492000Y310500D02*
D03*
Y325500D02*
D03*
D44*
X426500D02*
D03*
X430000Y354000D02*
D03*
X422000Y349000D02*
D03*
X427500Y317500D02*
D03*
X426500Y340500D02*
D03*
X434000Y312000D02*
D03*
M02*
