G04*
G04 #@! TF.GenerationSoftware,Altium Limited,Altium Designer,25.8.1 (18)*
G04*
G04 Layer_Color=32768*
%FSLAX25Y25*%
%MOIN*%
G70*
G04*
G04 #@! TF.SameCoordinates,1EE29D71-5A0B-43A1-B93D-2EDC50B85403*
G04*
G04*
G04 #@! TF.FilePolarity,Positive*
G04*
G01*
G75*
%ADD12C,0.00600*%
%ADD64C,0.00197*%
%ADD65C,0.00394*%
%ADD66C,0.00787*%
D12*
X140189Y185689D02*
Y209311D01*
X172689Y185689D02*
Y209311D01*
X205189Y185689D02*
Y209311D01*
X237689Y185689D02*
Y209311D01*
D64*
X384606Y298000D02*
G03*
X384606Y298000I-24606J0D01*
G01*
X134213Y384614D02*
X185787D01*
Y461386D01*
X134213D02*
X185787D01*
X134213Y384614D02*
Y461386D01*
X191213Y384614D02*
X242787D01*
Y461386D01*
X191213D02*
X242787D01*
X191213Y384614D02*
Y461386D01*
X255213Y384614D02*
X306787D01*
Y461386D01*
X255213D02*
X306787D01*
X255213Y384614D02*
Y461386D01*
X312213Y384614D02*
X363787D01*
Y461386D01*
X312213D02*
X363787D01*
X312213Y384614D02*
Y461386D01*
X376213Y384614D02*
X427787D01*
Y461386D01*
X376213D02*
X427787D01*
X376213Y384614D02*
Y461386D01*
X433213Y384614D02*
X484787D01*
Y461386D01*
X433213D02*
X484787D01*
X433213Y384614D02*
Y461386D01*
X395370Y334776D02*
Y348224D01*
X387630Y334776D02*
Y348224D01*
Y334776D02*
X395370D01*
X387630Y348224D02*
X395370D01*
X476484Y290736D02*
X505854D01*
X425146D02*
X454516D01*
X425146Y205264D02*
Y290736D01*
Y205264D02*
X454516D01*
X476484D02*
X505854D01*
Y290736D01*
X476484D02*
Y294732D01*
X454516D02*
X476484D01*
X454516Y290736D02*
Y294732D01*
X476484Y201268D02*
Y205264D01*
X454516Y201268D02*
X476484D01*
X454516D02*
Y205264D01*
X438154Y301307D02*
X484846D01*
X438154Y364693D02*
X484846D01*
Y301307D02*
Y364693D01*
X438154Y301307D02*
Y364693D01*
D65*
X140189Y209311D02*
X163811D01*
X140189Y185689D02*
X163811D01*
X172689Y209311D02*
X196311D01*
X172689Y185689D02*
X196311D01*
X205189Y209311D02*
X228811D01*
X205189Y185689D02*
X228811D01*
X237689Y209311D02*
X261311D01*
X237689Y185689D02*
X261311D01*
X401295Y338578D02*
X403264D01*
Y342515D01*
X401295D02*
X403264D01*
X401295Y338578D02*
Y342515D01*
X385032Y218016D02*
Y219984D01*
Y218016D02*
X388968D01*
Y219984D01*
X385032D02*
X388968D01*
X336984Y233032D02*
Y236968D01*
X335016Y233032D02*
X336984D01*
X335016D02*
Y236968D01*
X336984D01*
X322532Y341516D02*
Y343484D01*
Y341516D02*
X326468D01*
Y343484D01*
X322532D02*
X326468D01*
D66*
X379118Y177760D02*
Y220240D01*
X332661Y177760D02*
Y220240D01*
X379118D01*
X332661Y177760D02*
X379118D01*
M02*
