G04*
G04 #@! TF.GenerationSoftware,Altium Limited,Altium Designer,25.8.1 (18)*
G04*
G04 Layer_Physical_Order=3*
G04 Layer_Color=16440176*
%FSLAX25Y25*%
%MOIN*%
G70*
G04*
G04 #@! TF.SameCoordinates,1EE29D71-5A0B-43A1-B93D-2EDC50B85403*
G04*
G04*
G04 #@! TF.FilePolarity,Positive*
G04*
G01*
G75*
%ADD49C,0.01300*%
%ADD50C,0.02200*%
%ADD54C,0.04795*%
%ADD56C,0.07874*%
%ADD57C,0.15000*%
%ADD58C,0.03937*%
%ADD59C,0.02000*%
%ADD60C,0.02400*%
%ADD61C,0.04000*%
%ADD62C,0.05937*%
G36*
X528000Y165500D02*
X100500D01*
X100500Y476500D01*
X528000D01*
Y165500D01*
D02*
G37*
%LPC*%
G36*
X511337Y468000D02*
X509663D01*
X508021Y467673D01*
X506474Y467033D01*
X505082Y466102D01*
X503898Y464918D01*
X502967Y463526D01*
X502327Y461979D01*
X502000Y460337D01*
Y458663D01*
X502327Y457021D01*
X502967Y455474D01*
X503898Y454082D01*
X505082Y452898D01*
X506474Y451967D01*
X508021Y451327D01*
X509663Y451000D01*
X511337D01*
X512979Y451327D01*
X514526Y451967D01*
X515918Y452898D01*
X517102Y454082D01*
X518033Y455474D01*
X518673Y457021D01*
X519000Y458663D01*
Y460337D01*
X518673Y461979D01*
X518033Y463526D01*
X517102Y464918D01*
X515918Y466102D01*
X514526Y467033D01*
X512979Y467673D01*
X511337Y468000D01*
D02*
G37*
G36*
X118837D02*
X117163D01*
X115521Y467673D01*
X113974Y467033D01*
X112582Y466102D01*
X111398Y464918D01*
X110467Y463526D01*
X109827Y461979D01*
X109500Y460337D01*
Y458663D01*
X109827Y457021D01*
X110467Y455474D01*
X111398Y454082D01*
X112582Y452898D01*
X113974Y451967D01*
X115521Y451327D01*
X117163Y451000D01*
X118837D01*
X120479Y451327D01*
X122026Y451967D01*
X123418Y452898D01*
X124602Y454082D01*
X125533Y455474D01*
X126173Y457021D01*
X126500Y458663D01*
Y460337D01*
X126173Y461979D01*
X125533Y463526D01*
X124602Y464918D01*
X123418Y466102D01*
X122026Y467033D01*
X120479Y467673D01*
X118837Y468000D01*
D02*
G37*
G36*
X396174Y352000D02*
X394500D01*
Y350326D01*
X395246Y350635D01*
X395865Y351254D01*
X396174Y352000D01*
D02*
G37*
G36*
X393500D02*
X391826D01*
X392135Y351254D01*
X392754Y350635D01*
X393500Y350326D01*
Y352000D01*
D02*
G37*
G36*
X405000Y349674D02*
Y348000D01*
X406674D01*
X406365Y348746D01*
X405746Y349365D01*
X405000Y349674D01*
D02*
G37*
G36*
X404000D02*
X403254Y349365D01*
X402635Y348746D01*
X402326Y348000D01*
X404000D01*
Y349674D01*
D02*
G37*
G36*
X422395Y352000D02*
X421605D01*
X420842Y351796D01*
X420158Y351401D01*
X419599Y350842D01*
X419204Y350158D01*
X419000Y349395D01*
Y348605D01*
X419204Y347842D01*
X419599Y347158D01*
X420158Y346599D01*
X420842Y346204D01*
X421605Y346000D01*
X422395D01*
X423158Y346204D01*
X423842Y346599D01*
X424401Y347158D01*
X424796Y347842D01*
X425000Y348605D01*
Y349395D01*
X424796Y350158D01*
X424401Y350842D01*
X423842Y351401D01*
X423158Y351796D01*
X422395Y352000D01*
D02*
G37*
G36*
X406674Y347000D02*
X405000D01*
Y345326D01*
X405746Y345635D01*
X406365Y346254D01*
X406674Y347000D01*
D02*
G37*
G36*
X404000D02*
X402326D01*
X402635Y346254D01*
X403254Y345635D01*
X404000Y345326D01*
Y347000D01*
D02*
G37*
G36*
X384000Y338458D02*
Y337000D01*
X385458D01*
X385195Y337633D01*
X384633Y338195D01*
X384000Y338458D01*
D02*
G37*
G36*
X383000D02*
X382367Y338195D01*
X381804Y337633D01*
X381542Y337000D01*
X383000D01*
Y338458D01*
D02*
G37*
G36*
X328000Y336674D02*
Y335000D01*
X329674D01*
X329365Y335746D01*
X328746Y336365D01*
X328000Y336674D01*
D02*
G37*
G36*
X327000D02*
X326254Y336365D01*
X325635Y335746D01*
X325326Y335000D01*
X327000D01*
Y336674D01*
D02*
G37*
G36*
X385458Y336000D02*
X384000D01*
Y334542D01*
X384633Y334805D01*
X385195Y335367D01*
X385458Y336000D01*
D02*
G37*
G36*
X383000D02*
X381542D01*
X381804Y335367D01*
X382367Y334805D01*
X383000Y334542D01*
Y336000D01*
D02*
G37*
G36*
X316000Y336174D02*
Y334500D01*
X317674D01*
X317365Y335246D01*
X316746Y335865D01*
X316000Y336174D01*
D02*
G37*
G36*
X315000D02*
X314254Y335865D01*
X313635Y335246D01*
X313326Y334500D01*
X315000D01*
Y336174D01*
D02*
G37*
G36*
X329674Y334000D02*
X328000D01*
Y332326D01*
X328746Y332635D01*
X329365Y333254D01*
X329674Y334000D01*
D02*
G37*
G36*
X327000D02*
X325326D01*
X325635Y333254D01*
X326254Y332635D01*
X327000Y332326D01*
Y334000D01*
D02*
G37*
G36*
X317674Y333500D02*
X316000D01*
Y331826D01*
X316746Y332135D01*
X317365Y332754D01*
X317674Y333500D01*
D02*
G37*
G36*
X315000D02*
X313326D01*
X313635Y332754D01*
X314254Y332135D01*
X315000Y331826D01*
Y333500D01*
D02*
G37*
G36*
X489938Y332700D02*
X489062D01*
X488254Y332365D01*
X487635Y331746D01*
X487300Y330938D01*
Y330062D01*
X487635Y329254D01*
X488254Y328635D01*
X489062Y328300D01*
X489938D01*
X490746Y328635D01*
X491365Y329254D01*
X491700Y330062D01*
Y330938D01*
X491365Y331746D01*
X490746Y332365D01*
X489938Y332700D01*
D02*
G37*
G36*
X347500Y329674D02*
Y328000D01*
X349174D01*
X348865Y328746D01*
X348246Y329365D01*
X347500Y329674D01*
D02*
G37*
G36*
X346500D02*
X345754Y329365D01*
X345135Y328746D01*
X344826Y328000D01*
X346500D01*
Y329674D01*
D02*
G37*
G36*
X349174Y327000D02*
X347500D01*
Y325326D01*
X348246Y325635D01*
X348865Y326254D01*
X349174Y327000D01*
D02*
G37*
G36*
X346500D02*
X344826D01*
X345135Y326254D01*
X345754Y325635D01*
X346500Y325326D01*
Y327000D01*
D02*
G37*
G36*
X392891Y329969D02*
X392109D01*
X391354Y329766D01*
X390677Y329375D01*
X390125Y328823D01*
X389734Y328146D01*
X389531Y327391D01*
Y326609D01*
X389734Y325854D01*
X390125Y325177D01*
X390677Y324625D01*
X391354Y324234D01*
X392109Y324031D01*
X392891D01*
X393646Y324234D01*
X394323Y324625D01*
X394875Y325177D01*
X395266Y325854D01*
X395468Y326609D01*
Y327391D01*
X395266Y328146D01*
X394875Y328823D01*
X394323Y329375D01*
X393646Y329766D01*
X392891Y329969D01*
D02*
G37*
G36*
X324500Y325674D02*
Y324000D01*
X326174D01*
X325865Y324746D01*
X325246Y325365D01*
X324500Y325674D01*
D02*
G37*
G36*
X323500D02*
X322754Y325365D01*
X322135Y324746D01*
X321826Y324000D01*
X323500D01*
Y325674D01*
D02*
G37*
G36*
X407500Y323458D02*
Y322000D01*
X408958D01*
X408696Y322633D01*
X408133Y323196D01*
X407500Y323458D01*
D02*
G37*
G36*
X406500D02*
X405867Y323196D01*
X405304Y322633D01*
X405042Y322000D01*
X406500D01*
Y323458D01*
D02*
G37*
G36*
X326174Y323000D02*
X324500D01*
Y321326D01*
X325246Y321635D01*
X325865Y322254D01*
X326174Y323000D01*
D02*
G37*
G36*
X323500D02*
X321826D01*
X322135Y322254D01*
X322754Y321635D01*
X323500Y321326D01*
Y323000D01*
D02*
G37*
G36*
X408958Y321000D02*
X407500D01*
Y319542D01*
X408133Y319805D01*
X408696Y320367D01*
X408958Y321000D01*
D02*
G37*
G36*
X406500D02*
X405042D01*
X405304Y320367D01*
X405867Y319805D01*
X406500Y319542D01*
Y321000D01*
D02*
G37*
G36*
X427895Y320500D02*
X427105D01*
X426342Y320296D01*
X425658Y319901D01*
X425099Y319342D01*
X424704Y318658D01*
X424500Y317895D01*
Y317105D01*
X424704Y316342D01*
X425099Y315658D01*
X425658Y315099D01*
X426342Y314704D01*
X427105Y314500D01*
X427895D01*
X428658Y314704D01*
X429342Y315099D01*
X429901Y315658D01*
X430296Y316342D01*
X430500Y317105D01*
Y317895D01*
X430296Y318658D01*
X429901Y319342D01*
X429342Y319901D01*
X428658Y320296D01*
X427895Y320500D01*
D02*
G37*
G36*
X398500Y313958D02*
Y312500D01*
X399958D01*
X399695Y313133D01*
X399133Y313696D01*
X398500Y313958D01*
D02*
G37*
G36*
X397500D02*
X396867Y313696D01*
X396304Y313133D01*
X396042Y312500D01*
X397500D01*
Y313958D01*
D02*
G37*
G36*
X332000Y312674D02*
Y311000D01*
X333674D01*
X333365Y311746D01*
X332746Y312365D01*
X332000Y312674D01*
D02*
G37*
G36*
X331000D02*
X330254Y312365D01*
X329635Y311746D01*
X329326Y311000D01*
X331000D01*
Y312674D01*
D02*
G37*
G36*
X323500Y312174D02*
Y310500D01*
X325174D01*
X324865Y311246D01*
X324246Y311865D01*
X323500Y312174D01*
D02*
G37*
G36*
X322500D02*
X321754Y311865D01*
X321135Y311246D01*
X320826Y310500D01*
X322500D01*
Y312174D01*
D02*
G37*
G36*
X399958Y311500D02*
X398500D01*
Y310042D01*
X399133Y310304D01*
X399695Y310867D01*
X399958Y311500D01*
D02*
G37*
G36*
X397500D02*
X396042D01*
X396304Y310867D01*
X396867Y310304D01*
X397500Y310042D01*
Y311500D01*
D02*
G37*
G36*
X434395Y315000D02*
X433605D01*
X432842Y314796D01*
X432158Y314401D01*
X431599Y313842D01*
X431204Y313158D01*
X431000Y312395D01*
Y311605D01*
X431204Y310842D01*
X431599Y310158D01*
X432158Y309599D01*
X432842Y309204D01*
X433605Y309000D01*
X434395D01*
X435158Y309204D01*
X435842Y309599D01*
X436401Y310158D01*
X436796Y310842D01*
X437000Y311605D01*
Y312395D01*
X436796Y313158D01*
X436401Y313842D01*
X435842Y314401D01*
X435158Y314796D01*
X434395Y315000D01*
D02*
G37*
G36*
X415500Y310458D02*
Y309000D01*
X416958D01*
X416695Y309633D01*
X416133Y310195D01*
X415500Y310458D01*
D02*
G37*
G36*
X414500D02*
X413867Y310195D01*
X413305Y309633D01*
X413042Y309000D01*
X414500D01*
Y310458D01*
D02*
G37*
G36*
X333674Y310000D02*
X332000D01*
Y308326D01*
X332746Y308635D01*
X333365Y309254D01*
X333674Y310000D01*
D02*
G37*
G36*
X331000D02*
X329326D01*
X329635Y309254D01*
X330254Y308635D01*
X331000Y308326D01*
Y310000D01*
D02*
G37*
G36*
X436500Y472500D02*
X142500D01*
X140000Y470000D01*
Y460500D01*
X135000D01*
Y385500D01*
X180000D01*
Y376000D01*
X182500Y373500D01*
X226972D01*
X242486Y357986D01*
X243181Y357522D01*
X244000Y357359D01*
X353113D01*
X355986Y354486D01*
X356681Y354022D01*
X357500Y353859D01*
X391099D01*
X391753Y353000D01*
X396248D01*
X396901Y353859D01*
X426924D01*
X427000Y353783D01*
Y353605D01*
X427204Y352842D01*
X427599Y352158D01*
X428158Y351599D01*
X428842Y351204D01*
X429605Y351000D01*
X430395D01*
X431158Y351204D01*
X431842Y351599D01*
X432401Y352158D01*
X432796Y352842D01*
X433000Y353605D01*
Y354395D01*
X432796Y355158D01*
X432401Y355842D01*
X431842Y356401D01*
X431158Y356796D01*
X430395Y357000D01*
X429839D01*
X429325Y357514D01*
X428631Y357978D01*
X427811Y358141D01*
X423500D01*
Y361359D01*
X433113D01*
X435359Y359113D01*
Y343887D01*
X429953Y338481D01*
X429153Y339095D01*
X429296Y339342D01*
X429500Y340105D01*
Y340895D01*
X429296Y341658D01*
X428901Y342342D01*
X428342Y342901D01*
X427658Y343296D01*
X426895Y343500D01*
X426105D01*
X425342Y343296D01*
X424658Y342901D01*
X424099Y342342D01*
X423704Y341658D01*
X423500Y340895D01*
Y340105D01*
X423704Y339342D01*
X424099Y338658D01*
X424658Y338099D01*
X425342Y337704D01*
X426105Y337500D01*
X426895D01*
X427658Y337704D01*
X427905Y337847D01*
X428519Y337047D01*
X424986Y333514D01*
X424522Y332819D01*
X424359Y332000D01*
Y327602D01*
X424099Y327342D01*
X423704Y326658D01*
X423500Y325895D01*
Y325105D01*
X423704Y324342D01*
X424099Y323658D01*
X424658Y323099D01*
X425342Y322704D01*
X426105Y322500D01*
X426895D01*
X427658Y322704D01*
X428342Y323099D01*
X428901Y323658D01*
X429296Y324342D01*
X429500Y325105D01*
Y325895D01*
X429296Y326658D01*
X428901Y327342D01*
X428641Y327602D01*
Y331113D01*
X439014Y341486D01*
X439478Y342181D01*
X439641Y343000D01*
X441178D01*
Y303606D01*
X441178Y302570D01*
X441203Y302545D01*
X441326Y302667D01*
X442178Y302667D01*
X481844D01*
Y347971D01*
X482767Y348353D01*
X492818Y338303D01*
Y328697D01*
X491821Y327700D01*
X491562D01*
X490754Y327365D01*
X490135Y326746D01*
X489800Y325938D01*
Y325062D01*
X490135Y324254D01*
X490754Y323635D01*
X491562Y323300D01*
X492438D01*
X493246Y323635D01*
X493865Y324254D01*
X494200Y325062D01*
Y325321D01*
X495690Y326810D01*
X495690Y326810D01*
X496054Y327356D01*
X496182Y328000D01*
Y339000D01*
X496182Y339000D01*
X497318D01*
Y323197D01*
X491821Y317700D01*
X491562D01*
X490754Y317365D01*
X490135Y316746D01*
X489800Y315938D01*
Y315062D01*
X490135Y314254D01*
X490754Y313635D01*
X490980Y313541D01*
Y312459D01*
X490754Y312365D01*
X490135Y311746D01*
X489800Y310938D01*
Y310062D01*
X490135Y309254D01*
X490754Y308635D01*
X491562Y308300D01*
X492438D01*
X493246Y308635D01*
X493865Y309254D01*
X494200Y310062D01*
Y310938D01*
X493865Y311746D01*
X493246Y312365D01*
X493020Y312459D01*
Y313541D01*
X493246Y313635D01*
X493865Y314254D01*
X494200Y315062D01*
Y315321D01*
X500190Y321310D01*
X500190Y321310D01*
X500554Y321856D01*
X500682Y322500D01*
Y393000D01*
X500554Y393644D01*
X500190Y394190D01*
X500190Y394190D01*
X484000Y410379D01*
Y460500D01*
X439000D01*
Y470000D01*
X436500Y472500D01*
D02*
G37*
G36*
X325174Y309500D02*
X323500D01*
Y307826D01*
X324246Y308135D01*
X324865Y308754D01*
X325174Y309500D01*
D02*
G37*
G36*
X322500D02*
X320826D01*
X321135Y308754D01*
X321754Y308135D01*
X322500Y307826D01*
Y309500D01*
D02*
G37*
G36*
X416958Y308000D02*
X415500D01*
Y306542D01*
X416133Y306804D01*
X416695Y307367D01*
X416958Y308000D01*
D02*
G37*
G36*
X414500D02*
X413042D01*
X413305Y307367D01*
X413867Y306804D01*
X414500Y306542D01*
Y308000D01*
D02*
G37*
G36*
X400500Y295958D02*
Y294500D01*
X401958D01*
X401695Y295133D01*
X401133Y295695D01*
X400500Y295958D01*
D02*
G37*
G36*
X399500D02*
X398867Y295695D01*
X398305Y295133D01*
X398042Y294500D01*
X399500D01*
Y295958D01*
D02*
G37*
G36*
X401958Y293500D02*
X400500D01*
Y292042D01*
X401133Y292304D01*
X401695Y292867D01*
X401958Y293500D01*
D02*
G37*
G36*
X399500D02*
X398042D01*
X398305Y292867D01*
X398867Y292304D01*
X399500Y292042D01*
Y293500D01*
D02*
G37*
G36*
X324500Y291958D02*
Y290500D01*
X325958D01*
X325695Y291133D01*
X325133Y291695D01*
X324500Y291958D01*
D02*
G37*
G36*
X323500D02*
X322867Y291695D01*
X322305Y291133D01*
X322042Y290500D01*
X323500D01*
Y291958D01*
D02*
G37*
G36*
X325958Y289500D02*
X324500D01*
Y288042D01*
X325133Y288304D01*
X325695Y288867D01*
X325958Y289500D01*
D02*
G37*
G36*
X323500D02*
X322042D01*
X322305Y288867D01*
X322867Y288304D01*
X323500Y288042D01*
Y289500D01*
D02*
G37*
G36*
X324500Y284458D02*
Y283000D01*
X325958D01*
X325695Y283633D01*
X325133Y284195D01*
X324500Y284458D01*
D02*
G37*
G36*
X323500D02*
X322867Y284195D01*
X322305Y283633D01*
X322042Y283000D01*
X323500D01*
Y284458D01*
D02*
G37*
G36*
X325958Y282000D02*
X324500D01*
Y280542D01*
X325133Y280804D01*
X325695Y281367D01*
X325958Y282000D01*
D02*
G37*
G36*
X323500D02*
X322042D01*
X322305Y281367D01*
X322867Y280804D01*
X323500Y280542D01*
Y282000D01*
D02*
G37*
G36*
X361185Y322130D02*
X358815D01*
X356455Y321898D01*
X354130Y321435D01*
X351861Y320747D01*
X349671Y319839D01*
X347580Y318722D01*
X345608Y317405D01*
X343776Y315901D01*
X342099Y314224D01*
X340595Y312391D01*
X339278Y310420D01*
X338161Y308329D01*
X337253Y306139D01*
X336565Y303870D01*
X336103Y301545D01*
X335870Y299185D01*
Y296815D01*
X336103Y294455D01*
X336565Y292130D01*
X337253Y289861D01*
X338161Y287671D01*
X339278Y285580D01*
X340595Y283609D01*
X342099Y281776D01*
X343776Y280099D01*
X345608Y278595D01*
X347580Y277278D01*
X349671Y276161D01*
X351861Y275253D01*
X354130Y274565D01*
X356455Y274102D01*
X358815Y273870D01*
X361185D01*
X363545Y274102D01*
X365870Y274565D01*
X368139Y275253D01*
X370329Y276161D01*
X372420Y277278D01*
X374392Y278595D01*
X376224Y280099D01*
X377901Y281776D01*
X379405Y283609D01*
X380722Y285580D01*
X381839Y287671D01*
X382747Y289861D01*
X383435Y292130D01*
X383897Y294455D01*
X384130Y296815D01*
Y299185D01*
X383897Y301545D01*
X383435Y303870D01*
X382747Y306139D01*
X381839Y308329D01*
X380722Y310420D01*
X379405Y312391D01*
X377901Y314224D01*
X376224Y315901D01*
X374392Y317405D01*
X372420Y318722D01*
X370329Y319839D01*
X368139Y320747D01*
X365870Y321435D01*
X363545Y321898D01*
X361185Y322130D01*
D02*
G37*
G36*
X383891Y259469D02*
X383109D01*
X382354Y259266D01*
X381677Y258875D01*
X381125Y258323D01*
X380734Y257646D01*
X380532Y256891D01*
Y256109D01*
X380734Y255354D01*
X381125Y254677D01*
X381677Y254125D01*
X382354Y253734D01*
X383109Y253532D01*
X383891D01*
X384646Y253734D01*
X385323Y254125D01*
X385875Y254677D01*
X386266Y255354D01*
X386469Y256109D01*
Y256891D01*
X386266Y257646D01*
X385875Y258323D01*
X385323Y258875D01*
X384646Y259266D01*
X383891Y259469D01*
D02*
G37*
G36*
X368000Y254958D02*
Y253500D01*
X369458D01*
X369196Y254133D01*
X368633Y254696D01*
X368000Y254958D01*
D02*
G37*
G36*
X367000D02*
X366367Y254696D01*
X365805Y254133D01*
X365542Y253500D01*
X367000D01*
Y254958D01*
D02*
G37*
G36*
X369458Y252500D02*
X368000D01*
Y251042D01*
X368633Y251305D01*
X369196Y251867D01*
X369458Y252500D01*
D02*
G37*
G36*
X367000D02*
X365542D01*
X365805Y251867D01*
X366367Y251305D01*
X367000Y251042D01*
Y252500D01*
D02*
G37*
G36*
X318500Y328500D02*
X112500D01*
Y245500D01*
X318500D01*
Y328500D01*
D02*
G37*
G36*
X326891Y235469D02*
X326109D01*
X325354Y235266D01*
X324677Y234875D01*
X324125Y234323D01*
X323734Y233646D01*
X323532Y232891D01*
Y232109D01*
X323734Y231354D01*
X324125Y230677D01*
X324677Y230125D01*
X325354Y229734D01*
X326109Y229532D01*
X326891D01*
X327646Y229734D01*
X328323Y230125D01*
X328875Y230677D01*
X329266Y231354D01*
X329468Y232109D01*
Y232891D01*
X329266Y233646D01*
X328875Y234323D01*
X328323Y234875D01*
X327646Y235266D01*
X326891Y235469D01*
D02*
G37*
G36*
X454000Y298500D02*
X427000Y298000D01*
X434500Y290500D01*
Y283500D01*
X435967Y209467D01*
X437433Y208000D01*
X442234Y203200D01*
X443034Y204000D01*
X460500D01*
Y230000D01*
Y231500D01*
Y291500D01*
X454307D01*
X453924Y292424D01*
X454000Y292500D01*
Y298500D01*
D02*
G37*
G36*
X384000Y203458D02*
Y202000D01*
X385458D01*
X385195Y202633D01*
X384633Y203196D01*
X384000Y203458D01*
D02*
G37*
G36*
X383000D02*
X382367Y203196D01*
X381804Y202633D01*
X381542Y202000D01*
X383000D01*
Y203458D01*
D02*
G37*
G36*
X385458Y201000D02*
X384000D01*
Y199542D01*
X384633Y199804D01*
X385195Y200367D01*
X385458Y201000D01*
D02*
G37*
G36*
X383000D02*
X381542D01*
X381804Y200367D01*
X382367Y199804D01*
X383000Y199542D01*
Y201000D01*
D02*
G37*
G36*
X384000Y198458D02*
Y197000D01*
X385458D01*
X385195Y197633D01*
X384633Y198196D01*
X384000Y198458D01*
D02*
G37*
G36*
X383000D02*
X382367Y198196D01*
X381804Y197633D01*
X381542Y197000D01*
X383000D01*
Y198458D01*
D02*
G37*
G36*
X328000D02*
Y197000D01*
X329458D01*
X329195Y197633D01*
X328633Y198196D01*
X328000Y198458D01*
D02*
G37*
G36*
X327000D02*
X326367Y198196D01*
X325804Y197633D01*
X325542Y197000D01*
X327000D01*
Y198458D01*
D02*
G37*
G36*
X385458Y196000D02*
X384000D01*
Y194542D01*
X384633Y194805D01*
X385195Y195367D01*
X385458Y196000D01*
D02*
G37*
G36*
X383000D02*
X381542D01*
X381804Y195367D01*
X382367Y194805D01*
X383000Y194542D01*
Y196000D01*
D02*
G37*
G36*
X329458D02*
X328000D01*
Y194542D01*
X328633Y194805D01*
X329195Y195367D01*
X329458Y196000D01*
D02*
G37*
G36*
X327000D02*
X325542D01*
X325804Y195367D01*
X326367Y194805D01*
X327000Y194542D01*
Y196000D01*
D02*
G37*
G36*
X384000Y193458D02*
Y192000D01*
X385458D01*
X385195Y192633D01*
X384633Y193195D01*
X384000Y193458D01*
D02*
G37*
G36*
X383000D02*
X382367Y193195D01*
X381804Y192633D01*
X381542Y192000D01*
X383000D01*
Y193458D01*
D02*
G37*
G36*
X328000D02*
Y192000D01*
X329458D01*
X329195Y192633D01*
X328633Y193195D01*
X328000Y193458D01*
D02*
G37*
G36*
X327000D02*
X326367Y193195D01*
X325804Y192633D01*
X325542Y192000D01*
X327000D01*
Y193458D01*
D02*
G37*
G36*
X385458Y191000D02*
X384000D01*
Y189542D01*
X384633Y189804D01*
X385195Y190367D01*
X385458Y191000D01*
D02*
G37*
G36*
X383000D02*
X381542D01*
X381804Y190367D01*
X382367Y189804D01*
X383000Y189542D01*
Y191000D01*
D02*
G37*
G36*
X329458D02*
X328000D01*
Y189542D01*
X328633Y189804D01*
X329195Y190367D01*
X329458Y191000D01*
D02*
G37*
G36*
X327000D02*
X325542D01*
X325804Y190367D01*
X326367Y189804D01*
X327000Y189542D01*
Y191000D01*
D02*
G37*
G36*
X384000Y188458D02*
Y187000D01*
X385458D01*
X385195Y187633D01*
X384633Y188196D01*
X384000Y188458D01*
D02*
G37*
G36*
X383000D02*
X382367Y188196D01*
X381804Y187633D01*
X381542Y187000D01*
X383000D01*
Y188458D01*
D02*
G37*
G36*
X328000Y187958D02*
Y186500D01*
X329458D01*
X329195Y187133D01*
X328633Y187696D01*
X328000Y187958D01*
D02*
G37*
G36*
X327000D02*
X326367Y187696D01*
X325804Y187133D01*
X325542Y186500D01*
X327000D01*
Y187958D01*
D02*
G37*
G36*
X385458Y186000D02*
X384000D01*
Y184542D01*
X384633Y184804D01*
X385195Y185367D01*
X385458Y186000D01*
D02*
G37*
G36*
X383000D02*
X381542D01*
X381804Y185367D01*
X382367Y184804D01*
X383000Y184542D01*
Y186000D01*
D02*
G37*
G36*
X329458Y185500D02*
X328000D01*
Y184042D01*
X328633Y184304D01*
X329195Y184867D01*
X329458Y185500D01*
D02*
G37*
G36*
X327000D02*
X325542D01*
X325804Y184867D01*
X326367Y184304D01*
X327000Y184042D01*
Y185500D01*
D02*
G37*
G36*
X384000Y183458D02*
Y182000D01*
X385458D01*
X385195Y182633D01*
X384633Y183195D01*
X384000Y183458D01*
D02*
G37*
G36*
X383000D02*
X382367Y183195D01*
X381804Y182633D01*
X381542Y182000D01*
X383000D01*
Y183458D01*
D02*
G37*
G36*
X328000Y182958D02*
Y181500D01*
X329458D01*
X329195Y182133D01*
X328633Y182695D01*
X328000Y182958D01*
D02*
G37*
G36*
X327000D02*
X326367Y182695D01*
X325804Y182133D01*
X325542Y181500D01*
X327000D01*
Y182958D01*
D02*
G37*
G36*
X385458Y181000D02*
X384000D01*
Y179542D01*
X384633Y179805D01*
X385195Y180367D01*
X385458Y181000D01*
D02*
G37*
G36*
X383000D02*
X381542D01*
X381804Y180367D01*
X382367Y179805D01*
X383000Y179542D01*
Y181000D01*
D02*
G37*
G36*
X329458Y180500D02*
X328000D01*
Y179042D01*
X328633Y179305D01*
X329195Y179867D01*
X329458Y180500D01*
D02*
G37*
G36*
X327000D02*
X325542D01*
X325804Y179867D01*
X326367Y179305D01*
X327000Y179042D01*
Y180500D01*
D02*
G37*
G36*
X376000Y221000D02*
X332000D01*
Y177000D01*
X376000D01*
Y221000D01*
D02*
G37*
G36*
X511337Y191500D02*
X509663D01*
X508021Y191173D01*
X506474Y190533D01*
X505082Y189602D01*
X503898Y188418D01*
X502967Y187026D01*
X502327Y185479D01*
X502000Y183837D01*
Y182163D01*
X502327Y180521D01*
X502967Y178974D01*
X503898Y177582D01*
X505082Y176398D01*
X506474Y175467D01*
X508021Y174827D01*
X509663Y174500D01*
X511337D01*
X512979Y174827D01*
X514526Y175467D01*
X515918Y176398D01*
X517102Y177582D01*
X518033Y178974D01*
X518673Y180521D01*
X519000Y182163D01*
Y183837D01*
X518673Y185479D01*
X518033Y187026D01*
X517102Y188418D01*
X515918Y189602D01*
X514526Y190533D01*
X512979Y191173D01*
X511337Y191500D01*
D02*
G37*
G36*
X118837D02*
X117163D01*
X115521Y191173D01*
X113974Y190533D01*
X112582Y189602D01*
X111398Y188418D01*
X110467Y187026D01*
X109827Y185479D01*
X109500Y183837D01*
Y182163D01*
X109827Y180521D01*
X110467Y178974D01*
X111398Y177582D01*
X112582Y176398D01*
X113974Y175467D01*
X115521Y174827D01*
X117163Y174500D01*
X118837D01*
X120479Y174827D01*
X122026Y175467D01*
X123418Y176398D01*
X124602Y177582D01*
X125533Y178974D01*
X126173Y180521D01*
X126500Y182163D01*
Y183837D01*
X126173Y185479D01*
X125533Y187026D01*
X124602Y188418D01*
X123418Y189602D01*
X122026Y190533D01*
X120479Y191173D01*
X118837Y191500D01*
D02*
G37*
%LPD*%
D49*
X499000Y322500D02*
Y393000D01*
X439000Y453000D02*
X499000Y393000D01*
X492000Y315500D02*
X499000Y322500D01*
X494500Y328000D02*
Y339000D01*
X449000Y384500D02*
X494500Y339000D01*
X492000Y325500D02*
X494500Y328000D01*
X449000Y384500D02*
Y393000D01*
D50*
X402000Y378500D02*
Y393000D01*
Y378500D02*
X417000Y363500D01*
X434000D01*
X437500Y360000D01*
X426500Y325500D02*
Y332000D01*
X437500Y343000D01*
Y360000D01*
X217000Y386500D02*
Y393000D01*
Y386500D02*
X244000Y359500D01*
X354000D01*
X357500Y356000D01*
X427811D02*
X429811Y354000D01*
X357500Y356000D02*
X427811D01*
X429811Y354000D02*
X430000D01*
D54*
X140000Y393000D02*
D03*
X150000D02*
D03*
X160000D02*
D03*
X170000D02*
D03*
X180000D02*
D03*
Y453000D02*
D03*
X170000D02*
D03*
X160000D02*
D03*
X150000D02*
D03*
X140000D02*
D03*
X197000Y393000D02*
D03*
X207000D02*
D03*
X217000D02*
D03*
X227000D02*
D03*
X237000D02*
D03*
Y453000D02*
D03*
X227000D02*
D03*
X217000D02*
D03*
X207000D02*
D03*
X197000D02*
D03*
X261000Y393000D02*
D03*
X271000D02*
D03*
X281000D02*
D03*
X291000D02*
D03*
X301000D02*
D03*
Y453000D02*
D03*
X291000D02*
D03*
X281000D02*
D03*
X271000D02*
D03*
X261000D02*
D03*
X318000Y393000D02*
D03*
X328000D02*
D03*
X338000D02*
D03*
X348000D02*
D03*
X358000D02*
D03*
Y453000D02*
D03*
X348000D02*
D03*
X338000D02*
D03*
X328000D02*
D03*
X318000D02*
D03*
X382000Y393000D02*
D03*
X392000D02*
D03*
X402000D02*
D03*
X412000D02*
D03*
X422000D02*
D03*
Y453000D02*
D03*
X412000D02*
D03*
X402000D02*
D03*
X392000D02*
D03*
X382000D02*
D03*
X439000Y393000D02*
D03*
X449000D02*
D03*
X459000D02*
D03*
X469000D02*
D03*
X479000D02*
D03*
Y453000D02*
D03*
X469000D02*
D03*
X459000D02*
D03*
X449000D02*
D03*
X439000D02*
D03*
D56*
X360000Y283039D02*
D03*
Y312961D02*
D03*
D57*
X510500Y183000D02*
D03*
Y459500D02*
D03*
X118000D02*
D03*
Y183000D02*
D03*
D58*
X392500Y327000D02*
D03*
X383500Y256500D02*
D03*
X326500Y232500D02*
D03*
D59*
X367500Y253000D02*
D03*
X383500Y336500D02*
D03*
X400000Y294000D02*
D03*
X398000Y312000D02*
D03*
X415000Y308500D02*
D03*
X407000Y321500D02*
D03*
X324000Y282500D02*
D03*
Y290000D02*
D03*
X383500Y201500D02*
D03*
Y196500D02*
D03*
Y191500D02*
D03*
Y186500D02*
D03*
Y181500D02*
D03*
X327500Y196500D02*
D03*
Y186000D02*
D03*
Y191500D02*
D03*
Y181000D02*
D03*
D60*
X491000Y348000D02*
D03*
X404500Y347500D02*
D03*
X394000Y352500D02*
D03*
X347000Y327500D02*
D03*
X331500Y310500D02*
D03*
X327500Y334500D02*
D03*
X315500Y334000D02*
D03*
X324000Y323500D02*
D03*
X323000Y310000D02*
D03*
X492000Y315500D02*
D03*
X489500Y330500D02*
D03*
X491500Y356000D02*
D03*
X492000Y310500D02*
D03*
Y325500D02*
D03*
D61*
X426500D02*
D03*
X430000Y354000D02*
D03*
X422000Y349000D02*
D03*
X427500Y317500D02*
D03*
X426500Y340500D02*
D03*
X434000Y312000D02*
D03*
D62*
X203000Y252000D02*
D03*
X163000D02*
D03*
X153000D02*
D03*
X143000D02*
D03*
X223000D02*
D03*
X133000D02*
D03*
X183000D02*
D03*
X233000D02*
D03*
X193000D02*
D03*
X173000D02*
D03*
X213000D02*
D03*
X243000D02*
D03*
X123000D02*
D03*
X283000Y322000D02*
D03*
X313000Y252000D02*
D03*
X303000D02*
D03*
X313000Y322000D02*
D03*
X283000Y252000D02*
D03*
X303000Y322000D02*
D03*
X293000D02*
D03*
Y252000D02*
D03*
X253000D02*
D03*
X273000Y322000D02*
D03*
X263000Y252000D02*
D03*
Y322000D02*
D03*
X253000D02*
D03*
X273000Y252000D02*
D03*
X153000Y322000D02*
D03*
X143000D02*
D03*
X133000D02*
D03*
X123000D02*
D03*
X193000D02*
D03*
X203000D02*
D03*
X233000D02*
D03*
X223000D02*
D03*
X173000D02*
D03*
X163000D02*
D03*
X213000D02*
D03*
X243000D02*
D03*
X183000D02*
D03*
M02*
